<?xml version="1.0" encoding="UTF-8"?>
<svg xmlns="http://www.w3.org/2000/svg" version="1.1" viewBox="0 0 209.1 170.8">
  <defs>
    <style>
      .cls-1 {
        fill: #898989;
      }
    </style>
  </defs>
  <!-- Generator: Adobe Illustrator 28.7.7, SVG Export Plug-In . SVG Version: 1.2.0 Build 194)  -->
  <g>
    <g id="Layer_2">
      <g id="Layer_1-2">
        <path class="cls-1" d="M190.1,106c2.6,0,4.7,2,4.7,4.6v53.9c0,3.5-2.8,6.3-6.3,6.3h-17.7c-3.5,0-6.3-2.8-6.3-6.3v-13.9c-2.2,1.8-4.4,3.6-6.8,5.2-14.4,9.9-31.1,15-48.2,15s-10.5-.5-15.7-1.4c-2-.4-4-.8-5.9-1.3-1.3-.4-1.1-2.3.3-2.3h.7c10.4,0,20.7-2.9,29.6-8.2,8.9-5.4,15.5-11.6,15.8-11.9h.1c8.9-9.1,15.4-18.7,18.4-23.6.3-.5.6-1,.8-1.5,2.1-3.7,5.7-10.8,8-18.4.6-1.9,2-3.4,3.9-4.1h0c2.1-.8,4.5-.3,6.2,1.2,1.3,1.1,2.7,2.1,4.3,3,4.3,2.5,9.1,3.7,14,3.6h0ZM206.5,88.5c-2.6,4.5-6.8,7.7-11.8,9.1h0c-5,1.3-10.2.7-14.8-1.9-3.6-2.1-6.4-5.2-8-8.8-3.7,2.1-8.1,4-13.2,5.4l-12.3,3.3c-.2,0-.4.2-.6.2h0l-25.9,7-13.8,3.7c0,3.3-.8,6.6-2.3,9.4.7-.1,1.3-.3,2-.4,3.9-.9,7-2.1,10.5-3.2,5.9-1.9,11.9-3.9,21.8-4.6.1,0,.3,0,.4,0,9.7.3,8.9,6.9,8.4,9.1-.1.4-.3.8-.5,1.2-2.9,4.7-9,13.7-17.4,22.1,0,0-6.1,5.8-14.4,10.8-7.7,4.6-16.6,7.1-25.6,7.1h0c-14.9,0-22.5-2.5-29.8-4.8-3.1-1-4.3-1.4-6.7-2.3-.3-.1-.6-.2-.9-.3-.8-.2-2.2-.6-3-.9-12.2-4.6-19.4-14.5-21.8-18.3-7.3-3.4-12.1-7.8-14.1-13.1-.9-2.3-1.1-4.5-1.1-6.2C-.9,105.1-.3,95.2.2,88.5c0-.8.1-1.6.1-2.4.1-3.1,1.8-5.8,4.6-7.3,2.7-1.5,5.8-1.4,8.4.1,17.6,10.3,53.2,30.3,53.5,30.5,0,0,0,0,0,0,0,0,.2,0,.5.3-1.6-9.7,4.4-19.2,14.1-21.8h0c.4,0,.7-.2,1.1-.3l4.8-12.3-4.7-5.4c-3.4,0-6.5-.6-7-.7-2.6-.6-4.2-3.1-3.7-5.7.6-2.6,3.1-4.2,5.7-3.7,1.8.4,5.3.7,7.3.2,0,0,0,0,0,0,1.5-.4,2.8-1.2,4-2,1.4-.9,3-1.8,4.8-2.1,2.6-.4,5.1,1.4,5.5,4,.4,2.5-1.3,4.9-3.8,5.4-.3.1-.9.5-1.4.8-.4.2-.8.5-1.2.8l5.6,6.4c.9.8,5.3,4.5,11.9,7.5,8.9,4.1,17.6,5.3,25.9,3.4l-18.5-41-4.1,1.2c-2.6.8-5.4-.8-6.1-3.5-.6-2.5,1-5,3.4-5.7l7.9-2.4c2.3-.7,4.8.4,5.8,2.6l4.4,9.7,50.8-8.9c6.4-1.1,12.5,2.8,14.1,9,0,.3.1.6.1.9,0,.3.4,5.9-1.5,13.1,3.2.5,6.2,1.8,8.9,3.9,2.7,2.1,4.8,4.9,6.1,8.1,2.2,5.6,1.7,11.7-1.2,16.9h0ZM77.1,109.2c.9,3.4,3.5,5.9,6.6,6.9.9.2,1.8.3,2.7.4.9,0,1.9,0,2.8-.3h0c6.6-1.8,9.8-9.8,4.9-16-2.3-2.9-6.2-4.1-9.8-3.1-5.3,1.4-8.6,6.8-7.2,12.1h0ZM92.2,127c-.4,0-2.7-.2-3.1-.2-12.2,0-26.1-7.9-27.2-8.6-1.3-.7-33.7-18.9-51.7-29.4,0,.1,0,.3,0,.4-.5,7-.8,11.2,8.8,15.2.4.2.8.4,1.1.6,10.8,6.5,19.3,10.2,23.9,12.1.5.2.3.9-.2.8-7.9-1.2-18.2-5.1-22.2-6.6-.4,1.4-.7,6.6,10.6,11.4.2,0,.3.1.4.2h0s0,0,0,0c0,0,.2,0,.3.2,9.6,5.8,12.7,6.3,17.6,8,.5.2.3.9-.2.8-4.3-.7-9-1.9-13-3.1,3,3.8,8.4,9.4,16.2,11.8.2,0,.5.2.7.3,2.8.7,5.5,1.8,8,2.6,6.9,2.2,13.4,4.4,26.7,4.4s5.3-.1,7.6-.3c5-.4,9.9-2,14.1-4.8,10.3-6.8,18.9-17.5,24-24.8-6.4.8-10.8,2.2-15.3,3.7-7.2,2.3-12.7,5.1-27.1,5.2h0ZM117,93.5c-10.2-2.5-18.1-7.6-22.2-10.7l-2.1,5.4c4.5,1.5,8.5,4.6,10.9,8.9l13-3.5c.1,0,.3-.1.4-.2h0ZM199.5,78.2c-.2-3.4-2.1-6.3-4.9-7.9-1.6-.9-3.5-1.4-5.4-1.3h0c-2,3.9-4.9,8.1-9.2,12h0c.8,3.6,3.5,6.5,7.3,7.5,1.6.4,3.3.3,4.9,0h0c3.2-.9,5.7-3.2,6.8-6.5.4-1.2.6-2.4.5-3.6h0ZM171.4,26.6c-12.3-13-28.4-21.8-46.4-25.2-22.4-4.2-45.1.7-63.9,13.6-18.8,12.9-31.4,32.4-35.6,54.8-.7,3.9,1.1,7.9,4.6,9.8,3.7,2.1,7.5,4.3,11.3,6.5,5.9,3.3,13.2-.4,14-7.2.2-1.9.5-3.7,1-5.6,2.9-13,10.6-24.5,21.4-32.2,4.2-3,8.8-5.4,13.6-7.1,0,0,.2,0,.2-.1,4.5-2,9.4-3.5,12.6-4.4h0l4.7-1.4h0l1.9-.6h0l6.2-1.9c6-1.8,12.5,1.1,15,6.8,0,0,.5,1.2,1,2.2.5,1.2,1.8,1.9,3.1,1.6l34.2-6c1.8-.3,2.5-2.5,1.3-3.8h0Z"/>
      </g>
    </g>
  </g>
</svg>