<?xml version="1.0" encoding="UTF-8"?>
<svg id="Layer_2" data-name="Layer 2" xmlns="http://www.w3.org/2000/svg" viewBox="0 0 209.06 170.8">
  <defs>
    <style>
      .cls-1 {
        fill: #b2b2b2;
      }
    </style>
  </defs>
  <g id="Layer_1-2" data-name="Layer 1">
    <path class="cls-1" d="M190.07,105.96c2.58-.05,4.69,2.04,4.69,4.62v53.87c0,3.46-2.8,6.26-6.26,6.26h-17.69c-3.46,0-6.26-2.8-6.26-6.26v-13.86c-2.16,1.82-4.42,3.55-6.78,5.17-14.39,9.89-31.08,15.04-48.18,15.04-5.23,0-10.49-.48-15.74-1.45-2-.37-3.97-.81-5.91-1.31-1.34-.35-1.08-2.33.3-2.32.2,0,.4,0,.6,0h.09c10.43,0,20.66-2.85,29.57-8.21,8.94-5.38,15.51-11.61,15.78-11.87l.15-.15c8.88-8.95,15.36-18.52,18.43-23.42.3-.49.57-.99.8-1.51,2.09-3.74,5.72-10.8,7.97-18.37.56-1.89,2.01-3.39,3.87-4.05l.07-.02c2.14-.75,4.51-.28,6.23,1.21,1.31,1.13,2.73,2.14,4.26,3.02,4.32,2.48,9.13,3.71,13.99,3.62ZM206.47,88.47c-2.58,4.49-6.76,7.71-11.76,9.07,0,0-.02,0-.02,0-5.01,1.35-10.25.67-14.75-1.91-3.59-2.06-6.37-5.15-8.03-8.85-3.73,2.14-8.1,3.99-13.22,5.38l-12.33,3.34c-.19.08-.38.15-.58.2,0,0,0,0,0,0l-25.88,6.99-13.85,3.74c.05,3.32-.77,6.55-2.28,9.4.68-.13,1.33-.27,1.96-.41,3.91-.89,7.01-2.05,10.46-3.17,5.87-1.91,11.91-3.87,21.78-4.57.15-.01.3-.01.45-.01,9.69.26,8.92,6.9,8.4,9.09-.1.42-.27.82-.5,1.18-2.91,4.66-9.02,13.67-17.36,22.08,0,0-6.12,5.84-14.43,10.84-7.72,4.65-16.58,7.1-25.59,7.11h-.09c-14.93,0-22.5-2.46-29.82-4.84-3.11-1.01-4.34-1.39-6.66-2.28-.3-.12-.61-.22-.93-.31-.83-.24-2.18-.63-2.98-.93-12.22-4.61-19.38-14.46-21.82-18.34-7.33-3.39-12.09-7.79-14.15-13.11-.9-2.33-1.14-4.47-1.08-6.25C-.91,105.1-.26,95.25.19,88.54c.06-.83.11-1.61.14-2.38.13-3.1,1.83-5.83,4.56-7.32,2.67-1.46,5.83-1.42,8.43.11,17.6,10.34,53.2,30.33,53.55,30.53.03.02.06.03.08.05.01,0,.18.1.47.26-1.56-9.68,4.43-19.21,14.1-21.83,0,0,.01,0,.02,0,.36-.1.72-.18,1.07-.26l4.79-12.32-4.71-5.37c-3.44.04-6.49-.57-6.97-.67-2.59-.55-4.24-3.1-3.69-5.69.55-2.59,3.09-4.24,5.68-3.69,1.76.37,5.27.74,7.27.2.02,0,.04-.01.06-.02,1.49-.42,2.75-1.21,3.97-1.97,1.45-.91,2.96-1.84,4.81-2.12,2.62-.4,5.06,1.4,5.46,4.02.39,2.55-1.31,4.93-3.81,5.42-.29.13-.92.53-1.39.82-.38.24-.79.49-1.25.76l5.62,6.42c.9.78,5.35,4.49,11.91,7.53,8.88,4.11,17.58,5.27,25.9,3.45l-18.51-40.96-4.06,1.22c-2.64.8-5.42-.79-6.05-3.52-.58-2.49,1-4.97,3.44-5.71l7.93-2.39c2.31-.69,4.76.43,5.75,2.61l4.37,9.68,50.78-8.85c6.37-1.11,12.46,2.76,14.15,9.01.08.29.13.6.15.9.02.29.4,5.86-1.5,13.13,3.16.51,6.2,1.81,8.87,3.88,2.72,2.11,4.83,4.93,6.09,8.14,2.2,5.62,1.73,11.72-1.22,16.86ZM77.09,109.24c.9,3.41,3.49,5.93,6.63,6.9.89.18,1.78.33,2.67.43.92.02,1.86-.08,2.79-.34,0,0,0,0,.01,0,6.57-1.78,9.79-9.85,4.93-15.98-2.32-2.92-6.22-4.08-9.83-3.11-5.27,1.43-8.6,6.81-7.21,12.1ZM92.19,126.99c-.37.09-2.71-.21-3.11-.21-12.21,0-26.08-7.93-27.16-8.56-1.29-.73-33.72-18.95-51.68-29.44,0,.14-.02.28-.03.42-.47,7-.75,11.22,8.76,15.23.4.17.77.38,1.12.61,10.78,6.46,19.26,10.15,23.91,12.09.47.19.27.9-.23.82-7.91-1.24-18.22-5.05-22.22-6.61-.35,1.44-.7,6.61,10.55,11.37.15.06.3.14.44.22h0s.05.03.08.05c.09.05.18.1.26.16,9.6,5.75,12.66,6.3,17.56,8,.49.17.31.92-.2.83-4.27-.7-9.02-1.92-13.01-3.08,2.96,3.8,8.39,9.35,16.17,11.82.24.08.47.17.68.28,2.83.73,5.55,1.79,8.04,2.6,6.88,2.23,13.38,4.35,26.72,4.35,2.83,0,5.35-.1,7.63-.27,5.03-.38,9.89-2,14.1-4.78,10.35-6.83,18.92-17.48,24.05-24.79-6.36.79-10.76,2.22-15.34,3.71-7.19,2.34-12.68,5.1-27.1,5.18ZM116.98,93.48c-10.18-2.46-18.11-7.59-22.18-10.65l-2.12,5.44c4.54,1.5,8.46,4.64,10.86,8.92l12.99-3.51c.14-.07.29-.14.44-.2ZM199.46,78.2c-.24-3.41-2.08-6.31-4.93-7.95-1.65-.95-3.5-1.39-5.37-1.3,0,0,0,0,0,0-2.02,3.92-4.95,8.11-9.17,11.96,0,0,0,0,0,0,.81,3.64,3.53,6.5,7.33,7.48,1.59.41,3.27.34,4.86-.09h.01c3.18-.87,5.7-3.21,6.8-6.46.39-1.17.55-2.41.47-3.64ZM171.35,26.62c-12.32-13.04-28.4-21.83-46.38-25.17-22.42-4.16-45.12.67-63.92,13.58-18.79,12.92-31.43,32.38-35.59,54.8-.72,3.92,1.1,7.87,4.56,9.85,3.66,2.1,7.5,4.29,11.3,6.46,5.89,3.35,13.2-.44,14-7.17.22-1.87.55-3.74.97-5.61,2.92-12.96,10.56-24.47,21.36-32.21,4.23-3.04,8.8-5.39,13.57-7.09.08-.04.15-.07.24-.11,4.52-1.97,9.43-3.5,12.55-4.39h0s4.7-1.42,4.7-1.42c0,0,0,0,0,0l1.92-.58h0s6.16-1.86,6.16-1.86c6-1.8,12.46,1.14,15.03,6.84,0,0,.49,1.15.97,2.25.52,1.18,1.78,1.86,3.05,1.64l34.25-6.01c1.79-.31,2.5-2.49,1.26-3.81Z"/>
  </g>
</svg>