<?xml version="1.0" encoding="UTF-8"?>
<svg id="Layer_2" data-name="Layer 2" xmlns="http://www.w3.org/2000/svg" viewBox="0 0 4921.71 506.64">
  <defs>
    <style>
      .cls-1 {
        stroke: #fff;
        stroke-miterlimit: 10;
        stroke-width: .45px;
      }

      .cls-1, .cls-2 {
        fill: #303030;
      }

      .cls-3 {
        fill: #385c38;
      }

      .cls-4 {
        fill: #007acc;
      }

      .cls-5 {
        opacity: .53;
      }
    </style>
  </defs>
  <g id="Layer_1-2" data-name="Layer 1">
    <g>
      <g class="cls-5">
        <g>
          <path class="cls-2" d="M631.39,190.74h0c-6.64-16.58-19.35-29.57-35.77-36.6-16.42-7.02-34.59-7.23-51.17-.59-4.23,1.7-8.23,3.79-11.95,6.23l-27.4-27.89-9.59-23.92,32.3-12.94c6.59-2.64,9.79-10.12,7.15-16.71-2.64-6.59-10.12-9.79-16.71-7.15l-44.23,17.73c-3.16,1.27-5.69,3.74-7.04,6.88-1.34,3.13-1.38,6.67-.11,9.84l10.55,26.31-118.8,47.61-5.76-14.38,17.33-6.95c6.59-2.64,9.79-10.12,7.15-16.71-2.64-6.59-10.12-9.79-16.71-7.15l-29.26,11.73c-3.16,1.27-5.69,3.74-7.04,6.88-1.34,3.13-1.38,6.67-.11,9.84l14.15,35.3-4.3,41.56c-4.86.78-9.66,2.11-14.34,3.99-16.58,6.64-29.57,19.35-36.6,35.77-7.02,16.42-7.23,34.59-.59,51.17,6.64,16.58,19.35,29.57,35.77,36.6,8.45,3.61,17.36,5.42,26.28,5.42,8.42,0,16.84-1.61,24.88-4.84,16.58-6.64,29.57-19.35,36.6-35.77,5.31-12.41,6.72-25.82,4.23-38.78l52.67-21.11c3.01-1.21,5.32-3.43,6.68-6.11.47-.85.85-1.75,1.13-2.71l29.48-99.62,13.9,14.15c-2.45,3.59-4.56,7.44-6.31,11.52-7.02,16.42-7.23,34.59-.59,51.17,6.64,16.58,19.35,29.57,35.77,36.6,8.45,3.61,17.36,5.42,26.28,5.42,8.42,0,16.84-1.61,24.88-4.84,16.58-6.64,29.57-19.35,36.6-35.77,7.02-16.42,7.23-34.59.59-51.17ZM357.14,266.51c7.31,2.34,13.92,6.7,18.97,12.7l-21.16,8.48,2.19-21.18ZM359.91,343.89c-10.2,4.09-21.39,3.96-31.5-.36-10.11-4.32-17.92-12.32-22.01-22.53-8.44-21.06,1.83-45.07,22.89-53.51.66-.26,1.32-.51,1.98-.73l-2.78,26.92c-.74,7.19,2.26,14.09,8.03,18.45,3.63,2.74,7.93,4.15,12.28,4.15,2.57,0,5.17-.49,7.66-1.49l29.21-11.71c1.09,17.25-8.86,34.04-25.76,40.81ZM400.74,269.34c-7.15-11.1-17.43-19.82-29.84-25.12-3.62-1.55-7.32-2.76-11.08-3.65l2.37-22.94,67.27,40.21-28.72,11.51ZM450.69,240.58l-70.35-42.05,93.94-37.65-23.59,79.7ZM607.17,231.8c-4.32,10.11-12.32,17.92-22.53,22.01-10.2,4.09-21.39,3.96-31.5-.36-10.11-4.32-17.92-12.32-22.01-22.53-4.09-10.2-3.96-21.39.36-31.5.39-.92.82-1.82,1.27-2.7l27.4,27.89c2.52,2.56,5.84,3.85,9.17,3.85s6.5-1.23,9.01-3.68c5.06-4.97,5.14-13.11.16-18.18l-27.4-27.89c.95-.47,1.92-.9,2.92-1.3,5-2.01,10.17-2.95,15.26-2.95,16.33,0,31.81,9.78,38.25,25.84,4.09,10.2,3.96,21.39-.36,31.5Z"/>
          <path class="cls-2" d="M153.28,413.38l-5.58-13.92"/>
          <path class="cls-2" d="M292.88,377.54c-15.03-7.48-26.75-20.16-32.98-35.7-6.2-15.47-6.52-32.65-.89-48.38,1.76-4.94.46-10.48-3.32-14.12-3.78-3.64-9.36-4.72-14.23-2.77L0,373.35l8.25,13.05c.32.51,7.99,12.52,20.67,22.53,7.85,6.2,16.07,10.45,24.43,12.63,7.4,1.93,14.79,2.24,22.1.93,3.54,4.42,8.79,9.27,16.3,12.61,10.93,4.86,23.59,5.23,37.72,1.13,2.65,2.35,6.08,4.82,10.41,6.92,5.48,2.66,13.04,4.98,22.77,4.98,8.28,0,18.13-1.68,29.59-6.27l99.68-39.95c4.88-1.96,8.16-6.61,8.37-11.86.21-5.25-2.7-10.16-7.4-12.5ZM182.67,417.99c-12.18,4.88-22.71,5.76-30.45,2.54-1.94-.81-3.49-1.78-4.68-2.7,29.98-12.61,52.1-26.97,65.19-36.63,2.49-1.84.32-5.72-2.55-4.57l-73.59,29.49v.03s-8.01,3.22-8.01,3.22c-8.4,3.37-20.17,6.3-28.5,1.13-2.94-1.83-4.82-4.24-5.84-5.87,32.59-13.09,56.47-28.54,70.3-38.73,2.49-1.84.32-5.72-2.55-4.57l-72.74,29.16h0s-12.73,5.09-12.73,5.09c-14.37,5.76-27.5-2.53-36.12-10.71l189.22-75.84c-1.14,14.33,1.01,28.83,6.44,42.39h0c5.46,13.63,13.98,25.66,24.79,35.26l-78.17,31.33Z"/>
        </g>
        <g>
          <path class="cls-2" d="M604.22,302.66c-11.2,4.49-22.95,6.77-34.9,6.77-10.47,0-20.75-1.74-30.65-5.19-1.94-.68-4.07.32-4.76,2.26-21.34,60.19-78.85,103.42-146.26,103.42-17.98,0-35.26-3.08-51.33-8.73-1.74-.61-3.66.12-4.55,1.74-4.41,7.97-11.48,14.4-20.26,17.92l-68.21,27.34c-2.73,1.09-3.2,4.77-.83,6.5,15.18,11.05,31.57,20.32,49.02,27.7,30.48,12.89,62.84,19.43,96.16,19.43s65.68-6.54,96.16-19.43c29.42-12.44,55.83-30.25,78.5-52.92,22.67-22.67,40.48-49.08,52.92-78.5,7.73-18.28,13.18-37.24,16.3-56.67.54-3.33-3.25-5.61-5.96-3.59-6.48,4.84-13.64,8.87-21.35,11.95Z"/>
          <path class="cls-2" d="M230.43,249.78c1.34-.54,2.24-1.8,2.31-3.23,4.3-81.71,72.14-146.87,154.9-146.87,16.24,0,31.91,2.51,46.63,7.16,2.48.78,4.96-1.16,4.8-3.75-.35-6.06.7-12.16,3.16-17.91,4.18-9.77,11.91-17.32,21.77-21.28l44.23-17.73s.05-.02.08-.03c2.9-1.15,3.21-5.13.49-6.67-8.06-4.54-16.4-8.63-25-12.27-30.48-12.89-62.84-19.43-96.16-19.43s-65.68,6.54-96.16,19.43c-29.42,12.44-55.83,30.25-78.5,52.92s-40.48,49.08-52.92,78.5c-12.89,30.48-19.43,62.84-19.43,96.16,0,8.52.43,16.99,1.28,25.37.25,2.45,2.77,3.98,5.06,3.06l83.46-33.45Z"/>
        </g>
      </g>
      <g class="cls-5">
        <g>
          <path class="cls-2" d="M818.24,269.43c21.93.6,51.67-3.71,81.19-9.72,2.15-.44,3.66-2.35,3.63-4.54,0-.66-.01-1.32-.01-1.99,0-86.89,70.69-157.59,157.59-157.59,4.55,0,9.06.2,13.51.58.75.06,1.49-.06,2.19-.35,1.45-.61,2.94-1.15,4.47-1.63,12.98-4.06,26.77-2.82,38.82,3.49l22.25,11.65c1.03.54,2.03,1.11,3.01,1.71,1.13.69,2.5.88,3.76.48l46.29-14.47c11.65-3.64,24.14-4.32,36.12-1.97l16.69,3.28c4.22.83,7.14-4.13,4.35-7.41-4.45-5.24-9.12-10.31-14.02-15.21-23.03-23.03-49.86-41.12-79.75-53.76-30.97-13.1-63.84-19.74-97.69-19.74s-66.72,6.64-97.69,19.74c-29.89,12.64-56.72,30.73-79.75,53.76-23.03,23.03-41.12,49.86-53.76,79.75-13.1,30.97-19.74,63.84-19.74,97.69,0,4,.09,7.98.28,11.94.12,2.48,2.22,4.42,4.7,4.32,1.18-.04,2.37-.05,3.56-.02Z"/>
          <path class="cls-2" d="M1268.51,341.54c-9.05,2.83-18.27,4.19-27.38,4.19-14.5,0-28.7-3.45-41.47-9.92-2.1-1.06-4.65-.35-5.91,1.64-27.98,44.04-77.19,73.32-133.11,73.32-3.71,0-7.39-.13-11.04-.38-.64-.04-1.28.05-1.88.26-1.25.45-2.51.88-3.78,1.28l-90.06,28.16c-10.45,3.27-20.77,4.91-30.8,4.91-3.89,0-7.74-.25-11.54-.74-.07,0-.13-.02-.2-.03-4.63-.61-7.12,5.26-3.41,8.11,16.86,12.96,35.27,23.69,55.02,32.04,30.97,13.1,63.84,19.74,97.69,19.74s66.72-6.64,97.69-19.74c29.89-12.64,56.72-30.73,79.75-53.76,23.03-23.03,41.12-49.86,53.76-79.75,2-4.73,3.85-9.51,5.55-14.33,1.44-4.09-3.13-7.65-6.78-5.31-6.75,4.32-14.16,7.81-22.1,10.3Z"/>
        </g>
        <path class="cls-2" d="M1287.45,144.45l-63.63-12.5c-5.86-1.15-11.97-.82-17.67.96l-73.46,22.97-1.69-5.41c-1.06-3.38-3.41-6.2-6.55-7.85l-22.25-11.65c-6.53-3.42-14.61-.9-18.03,5.64-3.42,6.53-.9,14.61,5.64,18.03l17.35,9.08,4.03,12.88,29.68,94.92-3.72,1.16-102.47-54.45-3.67-11.74,9.99-3.12c7.04-2.2,10.96-9.69,8.76-16.73s-9.69-10.96-16.73-8.76l-22.74,7.11c-7.04,2.2-10.96,9.69-8.76,16.73l8.11,25.93-13.03,46.2c-13.94,4.24-116.99,34.84-179.37,33.14-7.29-.2-14.15,3.87-18.83,11.17-4.94,7.7-5.92,16.71-2.56,23.53.8,1.62,1.56,3.33,2.37,5.15,3.24,7.29,7.28,16.36,15.95,23.03,7.95,6.12,18.33,9.11,31.59,9.06,2.01,2.31,4.65,4.82,8.05,7.16,7.08,4.87,19.03,9.99,37.2,8.72,2.14,2.13,4.9,4.4,8.35,6.43,8.37,4.93,22.69,9.45,43.33,3l90.06-28.16c24.11-7.54,39.24-30.48,37.93-54.63l90.9-28.42s0,0,.01,0l33.53-10.48c12.72,20.48,38.15,30.65,62.2,23.13,24.05-7.52,39.16-30.36,37.95-54.44l6.94-2.17c18.93-5.92,29.51-26.13,23.59-45.06l-10.94-35c-3.94-12.6-14.44-22.01-27.39-24.56ZM1100.92,283.69c-.84.28-1.65.64-2.42,1.07l-35.81,11.2c-8.32-13.51-22.17-22.56-37.51-25.06l6.74-23.87,69.01,36.67ZM913.83,378.73c-1.4-.71-2.51-1.51-3.35-2.26,16.42-5.34,38.22-15.02,43.73-20.69,1.22-1.26-1.12-2.71-2.79-2.19-18.25,5.65-41.02,11.03-46.9,12.39l-9.85,1.55c-10.28,1.62-18.77.68-24.57-2.72-.37-.21-.7-.43-1.03-.65,29.01-8.63,46.02-15.53,56.06-23.19,1.51-1.15.11-3.9-1.68-3.36-35.94,10.95-64.5,13.7-64.5,13.7v.02s-7.53.63-7.53.63c-10.02.84-17.07-.26-20.95-3.25-3.31-2.55-5.41-7.27-7.84-12.73-.32-.73-.65-1.46-.98-2.2,29.55.1,68.89-5.55,117.07-16.82,9.11-2.13,17.69-4.27,25.48-6.29-2.51,9.51-2.46,19.82.69,29.88s8.4,17.7,15.35,23.97l-45.5,14.23c-8.54,2.67-15.56,2.67-20.87-.01ZM1024.76,350.59c-14.45,4.52-29.89-3.56-34.4-18.02-4.52-14.45,3.56-29.89,18.02-34.4,14.45-4.52,29.89,3.56,34.4,18.02s-3.56,29.89-18.02,34.4ZM1249.33,280.19c-14.07,4.4-29.08-3.15-34.03-16.9-.08-.32-.16-.65-.26-.97-.11-.36-.24-.71-.38-1.06-3.91-14.19,4.13-29.07,18.28-33.5s29.89,3.56,34.4,18.02c4.52,14.45-3.56,29.89-18.02,34.4ZM1300.29,211.98c1.52,4.87-1.2,10.07-6.07,11.59l-6.86,2.14c-12.65-20.69-38.22-31.01-62.39-23.45-24.17,7.56-39.31,30.6-37.92,54.81l-20.7,6.47-25.69-82.17,73.46-22.97c1.47-.46,3.04-.54,4.54-.25l63.63,12.5c3.33.65,6.03,3.08,7.05,6.32l10.94,35Z"/>
      </g>
      <g class="cls-5">
        <g>
          <path class="cls-2" d="M2017.71,130.69l-61.45-11.36c-5.66-1.05-11.54-.66-17.01,1.12l-70.54,22.92-1.69-5.19c-1.06-3.25-3.36-5.94-6.4-7.49l-21.56-10.99c-6.33-3.23-14.08-.71-17.31,5.63-3.23,6.33-.71,14.08,5.63,17.31l16.81,8.57,4.02,12.36,29.62,91.14-3.57,1.16-99.32-51.36-3.66-11.27,9.6-3.12c6.76-2.2,10.46-9.46,8.26-16.22s-9.46-10.46-16.22-8.26l-21.84,7.1c-6.76,2.2-10.46,9.46-8.26,16.22l8.09,24.9-12.11,44.83c-25.01,10.25-38.3,38.31-29.81,64.42,8.9,27.38,38.41,42.41,65.78,33.51,23.15-7.52,37.48-29.79,35.96-53.05l87.28-28.37s0,0,.01,0l32.19-10.46c12.48,19.6,37.09,29.12,60.18,21.62,23.09-7.51,37.4-29.68,35.98-52.87l6.66-2.17c18.17-5.91,28.15-25.5,22.25-43.67l-10.92-33.61c-3.93-12.1-14.15-21.06-26.66-23.37ZM1839.48,266.87c-.81.27-1.58.63-2.32,1.06l-34.39,11.17c-8.17-12.93-21.6-21.5-36.42-23.74l6.23-23.08,66.89,34.58ZM1766.81,332.15c-13.88,4.51-28.84-3.11-33.35-16.99-4.51-13.88,3.11-28.84,16.99-33.35,13.88-4.51,28.84,3.11,33.35,16.99s-3.11,28.84-16.99,33.35ZM1982.45,261.9c-13.51,4.39-28.05-2.72-32.97-15.91-.08-.31-.16-.62-.26-.93-.11-.35-.24-.68-.38-1.01-3.92-13.63,3.66-28.06,17.25-32.48s28.84,3.11,33.35,16.99-3.11,28.84-16.99,33.35ZM2030.81,195.63c1.52,4.68-1.05,9.72-5.72,11.23l-6.58,2.14c-12.41-19.8-37.16-29.46-60.37-21.92-23.21,7.54-37.55,29.91-35.95,53.22l-19.87,6.46-25.64-78.9,70.54-22.92c1.41-.46,2.92-.56,4.38-.29l61.45,11.36c3.22.59,5.85,2.9,6.86,6.01l10.92,33.61Z"/>
          <path class="cls-1" d="M1707.05,365.31h0c-3.78-4.12-8.37-8.97-13.64-14.43-11.31-11.72-15.09-28.53-9.86-43.87l.05-.15c1.71-4.95.5-10.35-3.15-14.1-3.65-3.75-9.02-5.1-14.01-3.53-9.92,3.13-98.64,30.52-159.15,29.54-7.02-.11-13.59,3.88-18.02,10.96-4.67,7.47-5.52,16.17-2.21,22.7.79,1.55,1.54,3.2,2.34,4.94,3.2,6.99,7.19,15.68,15.62,22.02,7.72,5.81,17.76,8.58,30.53,8.39,1.96,2.21,4.53,4.59,7.84,6.81,6.88,4.62,18.45,9.42,35.94,8,2.09,2.03,4.77,4.18,8.11,6.1,8.12,4.66,21.96,8.86,41.78,2.42l71.95-23.38c4.48-1.46,7.87-5.05,9.07-9.61,1.2-4.56,0-9.35-3.18-12.82ZM1621.26,386.63c-8.2,2.67-14.97,2.74-20.11.21-1.83-.9-3.16-1.99-4.04-2.86,14.9-5.48,32.22-13.69,36.93-18.65,1.16-1.22-1.11-2.6-2.71-2.08-16.73,5.39-37.41,10.57-44.18,12.23l-4.59.78c-9.88,1.67-18.08.86-23.71-2.35-.66-.37-1.24-.76-1.76-1.14,24.84-7.91,39.77-14.35,48.77-21.38,1.44-1.12.06-3.76-1.66-3.22-23.4,7.42-43.57,11.16-54.13,12.81l-.06-.13-9.3.88c-9.65.91-16.45-.06-20.22-2.9-3.22-2.42-5.29-6.95-7.7-12.19-.32-.69-.64-1.39-.97-2.1,49.43-.28,111.55-15.99,143.71-25.18-.12,5.55.43,11.13,1.67,16.6,2.78,12.34,8.89,23.68,17.68,32.79.11.12.23.23.34.35l-53.96,17.54Z"/>
        </g>
        <g>
          <path class="cls-2" d="M2002.68,324.16c-28.9,9.39-59.73,3.76-83.1-13.51-.39-.29-.89-.37-1.34-.22h0c-.42.14-.76.46-.92.87-22.95,58.37-79.87,99.8-146.3,99.8-10.69,0-21.12-1.07-31.22-3.12-.54-.11-1.1.09-1.45.52-6.38,7.82-14.95,13.77-24.91,17.01l-71.95,23.38c-5.97,1.94-11.9,3.34-17.78,4.2-1.31.19-1.72,1.89-.65,2.68,15.63,11.48,32.53,21.1,50.56,28.72,30.88,13.06,63.65,19.68,97.4,19.68s66.53-6.62,97.4-19.68c29.8-12.6,56.55-30.64,79.51-53.6,22.96-22.96,41-49.72,53.6-79.51,3.87-9.15,7.17-18.47,9.91-27.93.35-1.21-.85-2.27-2.01-1.79-2.2.92-4.46,1.75-6.76,2.5Z"/>
          <path class="cls-2" d="M1613.21,262.92c.55-.14.91-.64.89-1.2-.13-2.57-.19-5.15-.19-7.74,0-86.64,70.48-157.12,157.12-157.12,6.94,0,13.78.46,20.49,1.33.4.05.8-.11,1.06-.42,6.31-7.7,14.69-13.46,24.39-16.61,13.36-4.34,27.62-3.22,40.14,3.16l21.56,10.98c1.03.53,2.04,1.08,3.03,1.67.29.17.64.21.96.11l44.32-14.4c6.54-2.12,13.34-3.32,20.19-3.58,1.03-.04,1.53-1.28.8-2.01,0,0-.01-.01-.02-.02-22.96-22.96-49.72-41-79.51-53.6-30.88-13.06-63.65-19.68-97.4-19.68s-66.53,6.62-97.4,19.68c-29.8,12.6-56.55,30.64-79.51,53.6s-41,49.72-53.6,79.51c-13.06,30.88-19.68,63.65-19.68,97.4,0,7.92.37,15.79,1.09,23.59.06.64.61,1.11,1.25,1.07,27.79-1.73,61.5-8.55,90.04-15.72Z"/>
        </g>
      </g>
      <g class="cls-5">
        <g>
          <path class="cls-2" d="M2221.09,271.95c21.93.6,51.67-3.71,81.19-9.72,2.15-.44,3.66-2.35,3.63-4.54,0-.66-.01-1.32-.01-1.99,0-86.89,70.69-157.59,157.59-157.59,4.55,0,9.06.2,13.51.58.75.06,1.49-.06,2.19-.35,1.45-.61,2.94-1.15,4.47-1.63,12.98-4.06,26.77-2.82,38.82,3.49l22.25,11.65c1.03.54,2.03,1.11,3.01,1.71,1.13.69,2.5.88,3.76.48l46.29-14.47c11.65-3.64,24.14-4.32,36.12-1.97l16.69,3.28c4.22.83,7.14-4.13,4.35-7.41-4.45-5.24-9.12-10.31-14.02-15.21-23.03-23.03-49.86-41.12-79.75-53.76-30.97-13.1-63.84-19.74-97.69-19.74s-66.72,6.64-97.69,19.74c-29.89,12.64-56.72,30.73-79.75,53.76-23.03,23.03-41.12,49.86-53.76,79.75-13.1,30.97-19.74,63.84-19.74,97.69,0,4,.09,7.98.28,11.94.12,2.48,2.22,4.42,4.7,4.32,1.18-.04,2.37-.05,3.56-.02Z"/>
          <path class="cls-2" d="M2671.37,344.05c-9.05,2.83-18.27,4.19-27.38,4.19-14.5,0-28.7-3.45-41.47-9.92-2.1-1.06-4.65-.35-5.91,1.64-27.98,44.04-77.19,73.32-133.11,73.32-3.71,0-7.39-.13-11.04-.38-.64-.04-1.28.05-1.88.26-1.25.45-2.51.88-3.78,1.28l-90.06,28.16c-10.45,3.27-20.77,4.91-30.8,4.91-3.89,0-7.74-.25-11.54-.74-.07,0-.13-.02-.2-.03-4.63-.61-7.12,5.26-3.41,8.11,16.86,12.96,35.27,23.69,55.02,32.04,30.97,13.1,63.84,19.74,97.69,19.74s66.72-6.64,97.69-19.74c29.89-12.64,56.72-30.73,79.75-53.76,23.03-23.03,41.12-49.86,53.76-79.75,2-4.73,3.85-9.51,5.55-14.33,1.44-4.09-3.13-7.65-6.78-5.31-6.75,4.32-14.16,7.81-22.1,10.3Z"/>
        </g>
        <path class="cls-2" d="M2728.64,206.52l-10.94-35c-3.94-12.6-14.44-22.01-27.39-24.56l-63.63-12.5c-5.86-1.15-11.97-.82-17.67.96l-73.46,22.97-1.69-5.41c-1.06-3.38-3.41-6.2-6.55-7.85l-22.25-11.65c-6.53-3.42-14.61-.9-18.03,5.64-3.42,6.53-.9,14.61,5.64,18.03l17.35,9.08,4.03,12.88,29.68,94.92-3.72,1.16-102.47-54.45-3.67-11.74,9.99-3.12c7.04-2.2,10.96-9.69,8.76-16.73-2.2-7.04-9.69-10.96-16.73-8.76l-22.74,7.11c-7.04,2.2-10.96,9.69-8.76,16.73l8.11,25.93-13.03,46.2c-13.94,4.24-116.99,34.84-179.37,33.14-7.29-.2-14.15,3.87-18.83,11.17-4.94,7.7-5.92,16.71-2.56,23.53.8,1.62,1.56,3.33,2.37,5.15,3.24,7.29,7.28,16.36,15.95,23.03,7.95,6.12,18.33,9.11,31.59,9.06,2.01,2.31,4.65,4.82,8.05,7.16,7.08,4.87,19.03,9.99,37.2,8.72,2.14,2.13,4.9,4.4,8.35,6.43,8.37,4.93,22.69,9.45,43.33,3l90.06-28.16c24.11-7.54,39.24-30.48,37.93-54.63l90.9-28.42s0,0,.01,0l33.53-10.48c12.72,20.48,38.15,30.65,62.2,23.13,24.05-7.52,39.16-30.36,37.95-54.44l6.94-2.17c18.93-5.92,29.51-26.13,23.59-45.06ZM2429.1,352.58h0s0,0-.01,0c-.49.18-.98.36-1.48.51-.4.13-.81.24-1.21.35-17.12,5.44-55.07,17.25-55.52,17.39l-33.33,10.42c-8.54,2.67-15.56,2.67-20.87-.01-1.4-.71-2.51-1.52-3.35-2.26,16.42-5.34,70.55-26.1,76.06-31.76,1.22-1.26-1.12-2.71-2.79-2.19-18.25,5.65-73.35,22.1-79.23,23.46l-9.85,1.55c-10.28,1.62-18.77.68-24.57-2.72-.37-.21-.7-.43-1.03-.65,29.01-8.63,86.47-24.29,96.51-31.95,1.51-1.15.11-3.9-1.68-3.36-35.94,10.95-104.95,22.45-104.95,22.45v.02s-7.53.63-7.53.63c-10.02.84-17.07-.26-20.95-3.25-3.31-2.55-5.41-7.27-7.84-12.73-.32-.73-.65-1.46-.99-2.2,29.55.1,68.89-5.55,117.07-16.82,9.11-2.13,17.69-4.27,25.48-6.29,0,0,0,.02,0,.03,21.52-5.46,47.82-13.78,47.82-13.78h0c13.29-2.21,26.66,6.05,30.79,19.27,4.36,13.95-3.01,28.8-16.52,33.89ZM2501.35,287.27l-35.81,11.2c-8.32-13.51-22.16-22.56-37.51-25.06l6.74-23.88,69.01,36.67c-.84.28-1.65.64-2.42,1.07ZM2652.18,282.7c-14.07,4.4-29.08-3.15-34.03-16.9-.08-.32-.16-.65-.26-.97-.11-.36-.24-.71-.38-1.06-3.91-14.19,4.13-29.07,18.28-33.5,14.45-4.52,29.89,3.56,34.4,18.02,4.52,14.45-3.56,29.89-18.02,34.4ZM2697.07,226.09l-6.86,2.14c-12.65-20.69-38.22-31.01-62.39-23.45-24.17,7.56-39.31,30.6-37.92,54.81l-20.7,6.47-25.69-82.17,73.46-22.97c1.47-.46,3.04-.54,4.54-.25l63.63,12.5c3.33.65,6.03,3.08,7.05,6.32l10.94,35c1.52,4.87-1.2,10.07-6.07,11.59Z"/>
      </g>
      <g class="cls-5">
        <g>
          <path class="cls-2" d="M2908.44,267.19c21.93.6,51.67-3.71,81.19-9.72,2.15-.44,3.66-2.35,3.63-4.54,0-.66-.01-1.32-.01-1.99,0-86.89,70.69-157.59,157.59-157.59,4.55,0,9.06.2,13.51.58.75.06,1.49-.06,2.19-.35,1.45-.61,2.94-1.15,4.47-1.63,12.98-4.06,26.77-2.82,38.82,3.49l22.25,11.65c1.03.54,2.03,1.11,3.01,1.71,1.13.69,2.5.88,3.76.48l46.29-14.47c11.65-3.64,24.14-4.32,36.12-1.97l16.69,3.28c4.22.83,7.14-4.13,4.35-7.41-4.45-5.24-9.12-10.31-14.02-15.21-23.03-23.03-49.86-41.12-79.75-53.76-30.97-13.1-63.84-19.74-97.69-19.74s-66.72,6.64-97.69,19.74c-29.89,12.64-56.72,30.73-79.75,53.76-23.03,23.03-41.12,49.86-53.76,79.75-13.1,30.97-19.74,63.84-19.74,97.69,0,4,.09,7.98.28,11.94.12,2.48,2.22,4.42,4.7,4.32,1.18-.04,2.37-.05,3.56-.02Z"/>
          <path class="cls-2" d="M3358.71,339.29c-9.05,2.83-18.27,4.19-27.38,4.19-14.5,0-28.7-3.45-41.47-9.92-2.1-1.06-4.65-.35-5.91,1.64-27.98,44.04-77.19,73.32-133.11,73.32-3.71,0-7.39-.13-11.04-.38-.64-.04-1.28.05-1.88.26-1.25.45-2.51.88-3.78,1.28l-90.06,28.16c-10.45,3.27-20.77,4.91-30.8,4.91-3.89,0-7.74-.25-11.54-.74-.07,0-.13-.02-.2-.03-4.63-.61-7.12,5.26-3.41,8.11,16.86,12.96,35.27,23.69,55.02,32.04,30.97,13.1,63.84,19.74,97.69,19.74s66.72-6.64,97.69-19.74c29.89-12.64,56.72-30.73,79.75-53.76,23.03-23.03,41.12-49.86,53.76-79.75,2-4.73,3.85-9.51,5.55-14.33,1.44-4.09-3.13-7.65-6.78-5.31-6.75,4.32-14.16,7.81-22.1,10.3Z"/>
        </g>
        <path class="cls-2" d="M3032.87,401.99l90.06-28.16c24.11-7.54,39.24-30.48,37.93-54.63l90.9-28.42s0,0,.01,0l33.53-10.48c12.72,20.48,38.15,30.65,62.2,23.13,24.05-7.52,39.16-30.36,37.95-54.44l6.94-2.17c18.93-5.92,29.51-26.13,23.59-45.06l-10.94-35c-3.94-12.6-14.44-22.01-27.39-24.56l-63.63-12.5c-5.86-1.15-11.97-.82-17.67.96l-73.46,22.97-1.69-5.41c-1.06-3.38-3.41-6.2-6.55-7.85l-22.25-11.65c-6.53-3.42-14.61-.9-18.03,5.64-3.42,6.53-.9,14.61,5.64,18.03l17.35,9.08,4.03,12.88,29.68,94.92-3.72,1.16-102.47-54.45-3.67-11.74,9.99-3.12c7.04-2.2,10.96-9.69,8.76-16.73-2.2-7.04-9.69-10.96-16.73-8.76l-22.74,7.11c-7.04,2.2-10.96,9.69-8.76,16.73l8.11,25.93-13.03,46.2c-13.94,4.24-116.99,34.84-179.37,33.14-7.29-.2-14.15,3.87-18.83,11.17-4.94,7.7-5.92,16.71-2.56,23.53.8,1.62,1.56,3.33,2.37,5.15,3.24,7.29,7.28,16.36,15.95,23.03,7.95,6.12,18.33,9.11,31.59,9.06,2.01,2.31,35.7,18.53,39.1,20.87,0,0,24.49,14.86,57.83,4.44ZM3024.9,376.49l-9.85,1.55c-10.28,1.62-28.03-.02-33.83-3.42-.37-.21-11.87-4.98-12.19-5.2,90.3-22.68,115.81-33.51,125.84-41.17,1.51-1.15.11-3.9-1.68-3.36-35.94,10.95-144.05,24.17-144.05,24.17v.02s-7.53.63-7.53.63c-10.02.84-17.07-.26-20.95-3.25-3.31-2.55-5.41-7.27-7.84-12.73-.32-.73-.65-1.46-.99-2.2,29.55.1,68.89-5.55,117.07-16.82,9.11-2.13,17.69-4.27,25.48-6.29,0,0,0,.02,0,.03,21.52-5.46,47.82-13.78,47.82-13.78h0c13.29-2.21,26.66,6.05,30.79,19.27,4.36,13.95-3.01,28.8-16.52,33.89h0s0,0-.01,0c-.49.18-.98.36-1.48.51-.4.13-.81.24-1.21.35-17.12,5.44-55.07,17.25-55.52,17.39l-33.33,10.42M3188.7,282.51l-35.81,11.2c-8.32-13.51-22.16-22.56-37.51-25.06l6.74-23.88,69.01,36.67c-.84.28-1.65.64-2.42,1.07ZM3339.53,277.94c-14.07,4.4-29.08-3.15-34.03-16.9-.08-.32-.16-.65-.26-.97-.11-.36-.24-.71-.38-1.06-3.91-14.19,4.13-29.07,18.28-33.5,14.45-4.52,29.89,3.56,34.4,18.02,4.52,14.45-3.56,29.89-18.02,34.4ZM3384.41,221.33l-6.86,2.14c-12.65-20.69-38.22-31.01-62.39-23.45-24.17,7.56-39.31,30.6-37.92,54.81l-20.7,6.47-25.69-82.17,73.46-22.97c1.47-.46,3.04-.54,4.54-.25l63.63,12.5c3.33.65,6.03,3.08,7.05,6.32l10.94,35c1.52,4.87-1.2,10.07-6.07,11.59Z"/>
      </g>
      <g class="cls-5">
        <g>
          <path class="cls-2" d="M3707.78,254.47c14.16-1.8,27.48-3.68,38.86-5.38.64-72.39,53.11-136.34,126.93-148.89,14.04-2.39,27.97-2.76,41.49-1.34.33-.91.7-1.81,1.1-2.7,9.36-20.89,33.98-30.27,54.87-20.91l24.43,10.95c3.19,1.43,6.14,3.22,8.81,5.33l56.61-21.57c.14-.05.28-.1.42-.16-6.86-6.14-14.1-11.92-21.69-17.31-25.7-18.23-54.23-31.14-84.79-38.35-31.66-7.47-64.09-8.48-96.38-2.99s-62.57,17.15-89.98,34.67c-26.46,16.9-49.12,38.51-67.35,64.21-18.23,25.7-31.14,54.23-38.35,84.79-5.07,21.47-7.16,43.29-6.27,65.18,14.16-1.18,31.09-2.96,51.3-5.52Z"/>
          <g>
            <path class="cls-2" d="M3801.01,274.99c-3.27-3.87-8.35-5.68-13.34-4.8-1.37.24-137.63,23.9-193.39,18.27-8.52-.86-16.69,2.76-21.86,9.68-5.27,7.07-6.43,16.14-3.09,24.27.27.65.54,1.31.81,1.97,4.42,10.82,9.92,24.28,20.25,34.67,10.71,10.76,24.53,16.17,41.18,16.13,2.64,3.82,6.36,8.29,11.37,12.45,9.41,7.82,24.97,15.86,47.7,13.12,2.51,2.9,5.84,6.08,10.12,9.01,10.12,6.93,27.82,13.85,54.67,7.42.22-.05.44-.11.65-.17l66.29-19.23c.38-.11.74-.23,1.11-.37,4.37-1.67,7.67-5.39,8.77-9.98,1.19-4.98-.38-10.21-4.11-13.71-.18-.17-17.92-17.17-26.05-38.52-7.44-19.52,1.19-45.53,1.46-46.32,1.69-4.77.71-10.04-2.56-13.9ZM3793.12,376.63l-44.62,12.94c-12.66,2.97-22.95,2.09-30.61-2.62-2.08-1.28-3.69-2.68-4.91-3.94,19.25-7.38,38.35-17.94,45.26-24.14,1.9-1.7.1-4.78-2.32-3.96-16.99,5.73-47.53,13.07-60.29,16.05-.61.07-1.22.18-1.84.33-12.97,3.1-23.7,1.44-31.89-4.93-1.34-1.04-2.51-2.13-3.55-3.22,33.69-9.88,49.55-19.11,63.07-28.67,2.25-1.59.37-5.67-2.27-4.97-38.38,10.17-66.62,14.9-79.23,16.72-.7-.02-1.4.01-2.11.1-23.98,2.8-31.43-9.01-39.81-28.99,48.07,2.96,134.02-9.35,173.66-15.64-2.21,16.53-.92,31.22,3.82,43.66s11.4,22.94,17.62,31.28Z"/>
            <path class="cls-2" d="M4157.83,102.44l-68.51-9.16c-6.31-.84-12.78-.09-18.73,2.18l-76.66,29.21-2.15-5.64c-1.34-3.53-4.04-6.38-7.48-7.92l-24.43-10.95c-7.17-3.22-15.6,0-18.81,7.17-3.22,7.18,0,15.6,7.17,18.81l19.05,8.54,5.12,13.43s0,0,0,0l37.75,99.05-3.88,1.48-112.56-51.26-4.67-12.25,10.43-3.97c7.35-2.8,11.03-11.03,8.23-18.37-2.8-7.35-11.03-11.03-18.37-8.23l-23.73,9.04c-7.35,2.8-11.03,11.03-8.23,18.37l10.31,27.06-10.9,50.2c-27.06,12.71-40.19,44.43-29.38,72.81,11.34,29.75,44.77,44.73,74.52,33.39,25.16-9.59,39.76-34.98,36.8-60.58l94.87-36.15h0s34.99-13.33,34.99-13.33c14.86,20.96,42.58,30.13,67.68,20.56,25.1-9.56,39.69-34.85,36.83-60.39l7.24-2.76c19.75-7.53,29.7-29.72,22.17-49.47l-13.92-36.53c-5.01-13.15-16.79-22.48-30.74-24.34ZM3968.46,262.71c-.88.35-1.72.79-2.51,1.3l-37.37,14.24c-9.73-13.83-25.05-22.56-41.54-24.22l5.61-25.84,75.8,34.52ZM3891.78,338.83c-15.08,5.75-32.03-1.85-37.77-16.93-5.75-15.08,1.85-32.03,16.93-37.77,15.08-5.75,32.03,1.85,37.77,16.93,5.75,15.08-1.85,32.03-16.93,37.77ZM4126.11,249.32c-14.69,5.6-31.14-1.46-37.3-15.76-.1-.34-.21-.68-.34-1.01-.14-.38-.3-.74-.48-1.1-5.09-14.84,2.5-31.2,17.27-36.83s32.03,1.85,37.77,16.93c5.75,15.08-1.85,32.03-16.93,37.77ZM4175.89,173.45c1.94,5.08-.62,10.79-5.7,12.73l-7.15,2.73c-14.81-21.19-42.67-30.5-67.9-20.89-25.23,9.61-39.83,35.11-36.78,60.78l-21.6,8.23-32.68-85.75,76.66-29.21c1.53-.58,3.2-.78,4.82-.56l68.51,9.16c3.59.48,6.62,2.88,7.91,6.26l13.92,36.53Z"/>
          </g>
        </g>
        <path class="cls-2" d="M4134.26,304.95c-5.38,1.21-10.87,1.89-16.4,2.02-9.28.23-18.5-1.06-27.4-3.83-8.68-2.71-16.87-6.81-24.22-12.05-3.21-2.3-7.36-2.83-11.05-1.42l-4.42,1.68c-3.29,1.25-5.86,3.9-6.97,7.24-17.27,51.68-61.74,92.49-119.12,102.24-17.96,3.05-35.73,2.82-52.69-.27-7.62-1.39-15.39,1.64-19.93,7.92-4.67,6.45-11.17,11.52-18.84,14.44-1.05.4-2.14.76-3.22,1.08l-66.29,19.23c-.64.19-1.28.36-1.92.51-.77.18-1.55.36-2.32.53-2.01.44-2.54,3.06-.86,4.25l.05.03c25.7,18.23,54.23,31.14,84.79,38.35,31.66,7.47,64.09,8.48,96.38,2.99,32.29-5.49,62.57-17.15,89.98-34.67.42-.27.84-.55,1.27-.82v25.35c0,7.52,6.1,13.62,13.62,13.62h77.19c7.52,0,13.62-6.1,13.62-13.62v-173.52c.18-.75-.49-1.42-1.24-1.26Z"/>
      </g>
      <g>
        <path class="cls-3" d="M4826.32,305.31c-4.45-2.57-8.54-5.5-12.4-8.78-5.03-4.33-11.82-5.73-18.02-3.51h-.23c-5.38,1.99-9.59,6.32-11.23,11.82-6.55,21.88-17.08,42.36-23.17,53.24-.7,1.52-1.4,2.93-2.34,4.33-8.89,14.27-27.61,42-53.35,67.86l-.47.47c-.82.82-19.89,18.84-45.75,34.4-25.86,15.56-55.46,23.75-85.76,23.75h-1.99c-3.98,0-4.8,5.73-.94,6.79,5.62,1.4,11.35,2.69,17.2,3.74,15.21,2.81,30.42,4.21,45.63,4.21,49.61,0,97.93-14.86,139.59-43.64,6.79-4.68,13.34-9.71,19.66-14.98v40.13c0,10.06,8.07,18.14,18.14,18.14h51.25c10.06,0,18.14-8.07,18.14-18.14v-156.08c0-7.49-6.08-13.57-13.57-13.34-14.04.23-27.96-3.28-40.6-10.53,0,0,.23.12.23.12Z"/>
        <path d="M4552.3,263.66h0c-28.08,7.61-45.4,35.22-40.83,63.3-.35-.23-.7-.35-.94-.47,8.54,12.4,45.51,57.1,111.97,16.85-1.87.47-3.74.82-5.73,1.17,4.45-8.31,6.79-17.55,6.67-27.26l40.13-10.88,75-20.24c.59-.12,1.17-.35,1.64-.59l35.69-9.71c14.86-3.98,27.5-9.36,38.26-15.56,4.8,10.76,12.87,19.66,23.28,25.62,12.99,7.49,28.2,9.48,42.71,5.5,14.51-3.98,26.56-13.22,34.05-26.33,8.54-14.86,9.95-32.53,3.51-48.91-3.63-9.24-9.71-17.43-17.67-23.63-7.72-5.97-16.5-9.71-25.74-11.23,5.5-21.06,4.45-37.21,4.33-38.03,0-.94-.23-1.76-.47-2.57-4.91-18.14-22.58-29.37-41.07-26.09l-147.19,25.62-12.64-28.08c-2.93-6.32-9.95-9.59-16.61-7.61l-22.93,6.9c-7.14,2.11-11.7,9.36-9.95,16.5,1.87,7.96,9.83,12.52,17.55,10.18l11.82-3.51,53.7,118.76c-24.1,5.27-49.38,1.87-75.12-9.95-18.95-8.78-31.94-19.54-34.52-21.76l-16.26-18.6c1.29-.82,2.46-1.52,3.63-2.22,1.4-.82,3.16-1.99,4.1-2.34,7.25-1.4,12.17-8.31,11-15.68-1.17-7.61-8.19-12.75-15.8-11.7-5.38.82-9.71,3.51-13.92,6.2-3.51,2.22-7.14,4.45-11.47,5.73h-.23c-5.73,1.52-15.91.47-21.06-.59-7.49-1.64-14.86,3.16-16.5,10.65-1.64,7.49,3.16,14.86,10.65,16.5,1.4.35,10.18,2.11,20.24,1.99l13.69,15.56-13.92,35.69c-1.05.23-2.11.47-3.16.7,0,0,.12.12.12.12ZM4837.67,243.18c12.17-11.12,20.71-23.28,26.56-34.63,5.38-.23,10.76,1.05,15.56,3.74,8.31,4.8,13.57,13.22,14.27,23.05.23,3.51-.23,7.14-1.4,10.53-3.16,9.36-10.53,16.15-19.66,18.72-4.56,1.29-9.48,1.52-14.04.23-11-2.81-18.95-11.12-21.29-21.65ZM4590.67,248.8c11.82,8.89,34.75,23.75,64.24,30.89-.47.12-.82.35-1.29.59l-37.68,10.18c-7.02-12.4-18.37-21.53-31.47-25.86l6.08-15.8s.12,0,.12,0ZM4588.8,299.22c14.04,17.78,4.8,41.19-14.27,46.33-2.69.7-5.38,1.05-8.07.94-2.57-.35-5.15-.7-7.72-1.29-9.13-2.81-16.61-10.06-19.19-20.01-4.1-15.33,5.62-30.89,20.94-35.1,10.41-2.81,21.76.59,28.43,9.01,0,0-.12.12-.12.12Z"/>
        <path class="cls-4" d="M4717.15,320.75h-1.29c-28.67,1.99-46.1,7.72-63.18,13.22-11.58,3.74-21.88,7.72-36.04,10.41-51.95,18.25-105.3-17.55-105.3-17.55-.82-.47-1.29-.7-1.4-.82,0,0-.12,0-.23-.12-1.05-.59-104.25-58.5-155.26-88.45-7.61-4.45-16.73-4.56-24.45-.35-7.96,4.33-12.87,12.29-13.22,21.18,0,2.22-.23,4.45-.35,6.9-1.29,19.42-3.16,47.97,32.53,67.75-.23,5.15.47,11.35,3.16,18.14,5.97,15.44,19.77,28.2,41.07,38.03,7.02,11.23,27.85,39.78,63.18,53.12,2.34.94,6.2,1.99,8.66,2.69.94.23,1.76.59,2.69.94,6.79,2.57,10.3,3.63,19.31,6.55,21.18,6.9,43.17,14.04,86.47,14.04h.23c26.09,0,51.83-7.14,74.18-20.59,24.1-14.51,41.89-31.47,41.89-31.47,24.22-24.34,41.89-50.55,50.31-64,.7-1.05,1.17-2.22,1.4-3.39,1.52-6.32,3.74-25.62-24.34-26.33,0,0,0,.12,0,.12ZM4636.42,422.9c-12.17,8.07-26.33,12.75-40.83,13.81-6.67.47-13.92.82-22.11.82-38.61,0-57.45-6.08-77.46-12.64-7.25-2.34-15.09-5.38-23.28-7.49-.59-.35-1.29-.59-1.99-.82-22.58-7.14-38.26-23.28-46.92-34.28,11.58,3.39,25.39,6.9,37.68,8.89,1.52.23,1.99-1.87.59-2.46-14.27-4.91-23.05-6.55-50.9-23.17-.23-.12-.47-.35-.82-.47,0,0-.12,0-.23-.12,0,0-.82-.47-1.29-.59-32.64-13.81-31.59-28.78-30.54-33,11.58,4.56,41.54,15.56,64.47,19.19,1.4.23,1.99-1.76.7-2.34-13.46-5.62-38.03-16.26-69.27-34.98-1.05-.7-2.11-1.29-3.28-1.76-27.61-11.58-26.79-23.87-25.39-44.11v-1.17c52.07,30.42,146.02,83.19,149.77,85.3,3.16,1.87,43.29,24.8,78.74,24.8,1.17,0,7.96.82,9.01.59,41.77-.23,57.68-8.19,78.51-14.98,13.22-4.33,25.97-8.42,44.46-10.76-14.86,21.18-39.78,52.07-69.73,71.84,0,0,.12-.12.12-.12Z"/>
        <path class="cls-3" d="M4812.63,85.81c-35.69-37.79-82.25-63.3-134.44-72.89-64.94-12.05-130.81,1.99-185.22,39.43-54.52,37.44-91.15,93.84-103.2,158.89-2.11,11.35,3.16,22.82,13.22,28.55,10.65,6.08,21.76,12.4,32.76,18.72,17.08,9.71,38.26-1.29,40.6-20.83.7-5.38,1.64-10.88,2.81-16.26,8.42-37.56,30.66-70.9,61.9-93.37,12.29-8.78,25.51-15.68,39.31-20.59.23,0,.47-.23.7-.35,13.1-5.73,27.38-10.18,36.39-12.75l13.69-4.1,5.5-1.64,17.9-5.38c17.43-5.27,36.15,3.28,43.53,19.77,0,0,1.4,3.28,2.81,6.55,1.52,3.39,5.15,5.38,8.89,4.8l99.22-17.43c5.15-.94,7.25-7.25,3.63-11,0,0,0-.12,0-.12Z"/>
      </g>
    </g>
  </g>
</svg>