<?xml version="1.0" encoding="UTF-8"?>
<svg id="Layer_2" xmlns="http://www.w3.org/2000/svg" viewBox="0 0 176.50358 42.583615">
  <defs>
    <style>
      .cls-1 {
        fill: #385c38;
      }

      .cls-2 {
        fill: #212121;
      }

      .cls-3 {
        fill: #007acc;
      }
    </style>
  </defs>
  <g id="Layer_2-2" data-name="Layer_2">
    <g>
      <g>
        <path class="cls-2" d="M59.504443,13.363548c-1.224388,0-2.30029-.275265-3.227707-.827276-.927417-.551517-1.655045-1.321076-2.18239-2.309663-.527345-.9876-.790771-2.136512-.790771-3.445749,0-1.297397.263426-2.439896.790771-3.42799s1.254973-1.761106,2.18239-2.318542c.927417-.55793,2.003319-.836648,3.227707-.836648,1.24856,0,2.339755.278718,3.273585.836648.933337.557437,1.657511,1.330449,2.173017,2.318542.515012.988094.773012,2.130592.773012,3.42799,0,1.309237-.258,2.458148-.773012,3.445749-.515506.988587-1.23968,1.758146-2.173017,2.309663-.93383.55201-2.025025.827276-3.273585.827276ZM59.522696,11.745008c.873153,0,1.636792-.199789,2.291411-.599861s1.160751-.969841,1.518399-1.709308.536718-1.62446.536718-2.654978-.17907-1.915511-.536718-2.655471c-.357648-.738974-.86378-1.305783-1.518399-1.699936s-1.418257-.590982-2.291411-.590982c-.87266,0-1.636792.196829-2.291411.590982s-1.163711.960962-1.527278,1.699936c-.36406.73996-.545597,1.624953-.545597,2.655471s.181537,1.915511.545597,2.654978c.363567.739467.87266,1.309237,1.527278,1.709308s1.418751.599861,2.291411.599861Z"/>
        <path class="cls-2" d="M71.179538,13.363548c-.715788,0-1.336862-.145526-1.864207-.436083-.527345-.291051-.93383-.727628-1.218468-1.30973-.285131-.581609-.427204-1.315156-.427204-2.200149V3.980358h1.818329v5.236946c0,.861314.18795,1.509519.56385,1.946096.375407.436577.915084.654618,1.61854.654618.472588,0,.900285-.114941,1.282105-.345315s.68175-.56385.900285-1.000426c.218042-.436577.327062-.969841.327062-1.600288V3.980358h1.818823v9.165149h-1.61854l-.127273-1.563783c-.279212.557437-.685203.994013-1.218468,1.309237-.533758.315223-1.151872.472588-1.854834.472588Z"/>
        <path class="cls-2" d="M78.489853,13.145507V3.980358h1.636792l.163285,1.727561c.206202-.412405.473081-.760679.800144-1.045811.327556-.284638.712335-.506133,1.154831-.663991.442496-.157365.948629-.236294,1.518399-.236294v1.927843h-.654618c-.3759,0-.733547.045384-1.072943.136153-.339395.091262-.639326.245667-.900285.463708-.260466.218535-.463708.515506-.608741.891406-.145526.3759-.218535.842568-.218535,1.400005v4.564569h-1.818329Z"/>
      </g>
      <g>
        <path class="cls-1" d="M38.318937,22.265964c-.333775-.193237-.641197-.412825-.931055-.658764-.377692-.324991-.887135-.430393-1.35266-.263505h-.017567c-.404045.14932-.720249.47431-.843221.887135-.491875,1.64252-1.282394,3.179637-1.739138,3.996505-.052699.114185-.105401.219588-.175671.32499-.667546,1.07159-2.072909,3.153286-4.005285,5.094445l-.035135.035134c-.061484.061484-1.4932,1.414147-3.434358,2.582356s-4.163391,1.783055-6.438324,1.783055h-.14932c-.29864,0-.360124.430393-.070268.509445.421609.105401.852003.202021,1.291179.281073,1.141858.210804,2.283715.316207,3.425575.316207,3.724215,0,7.35181-1.115508,10.478746-3.276255.509443-.351342,1.001321-.729033,1.475633-1.124292v3.012749c0,.755383.606062,1.361447,1.361446,1.361447h3.847185c.75538,0,1.361446-.606064,1.361446-1.361447v-11.717223c0-.562145-.456744-1.018888-1.018889-1.001322-1.054024.017567-2.099262-.245938-3.047884-.790517l.017567.008784Z"/>
        <path d="M17.747919,19.139031h0c-2.108046.570929-3.408007,2.64384-3.06545,4.751886-.02635-.017567-.052701-.02635-.070268-.035134.641197.931054,3.416793,4.286361,8.405834,1.264828-.140536.035133-.281073.061484-.430393.087835.333775-.62363.509444-1.317529.500662-2.046561l3.012748-.816867,5.630241-1.519551c.043917-.008782.087834-.02635.122969-.043917l2.678975-.729033c1.115508-.29864,2.06413-.702681,2.872213-1.168209.360124.808084.966186,1.475633,1.74792,1.923593.974972.562145,2.116833.711465,3.205988.412825s1.993861-.992538,2.556006-1.976293c.641197-1.115508.746602-2.441819.263505-3.671514-.272287-.693898-.729031-1.308745-1.326311-1.774273-.579713-.447958-1.238477-.729031-1.932376-.843218.412827-1.581034.333775-2.793161.324993-2.854646,0-.070268-.017571-.131753-.035135-.193239-.36891-1.361446-1.695221-2.204663-3.083019-1.958726l-11.049673,1.923593-.948622-2.108046c-.219588-.474311-.746598-.720249-1.247261-.57093l-1.72157.518231c-.535796.1581-.878353.702678-.7466,1.238474.140536.59728.737816.939839,1.317529.764167l.887136-.263505,4.031637,8.915278c-1.809404.395259-3.706645.140536-5.639022-.7466-1.422932-.658764-2.397902-1.466849-2.591141-1.633735l-1.220909-1.396581c.096619-.061484.184453-.114187.272289-.166887.105403-.061484.237156-.14932.307424-.17567.544579-.105403.913487-.623631.825652-1.176993-.087836-.57093-.614847-.957404-1.185776-.878353-.404043.061484-.729033.263505-1.04524.465526-.263505.166887-.535794.333775-.860785.430393h-.017567c-.430393.114185-1.194558.035133-1.581034-.043917-.562147-.12297-1.115508.237154-1.238477.799301-.12297.562145.237154,1.115506.799301,1.238477.105403.026351.764166.158104,1.519549.14932l1.027673,1.168209-1.04524,2.678975c-.079052.017567-.158102.035135-.237154.052702l.008782.008784ZM39.17094,17.601914c.913484-.834436,1.554681-1.747923,1.993857-2.599924.404041-.017567.808083.079052,1.16821.281073.62363.360124,1.018889.992538,1.071591,1.730354.017564.263507-.017571.535796-.105405.790519-.237152.702681-.790519,1.212126-1.475633,1.405363-.342557.096619-.711463.114187-1.05402.017567-.825654-.210804-1.422934-.834434-1.598601-1.624951ZM20.628916,18.023523c.887136.667548,2.608706,1.783055,4.822155,2.31885-.035133.008784-.061484.026351-.096619.043917l-2.828295.764167c-.527012-.931053-1.379013-1.616169-2.362769-1.94116l.456744-1.185775h.008784ZM20.48838,21.809222c1.054024,1.335096.360124,3.091801-1.071589,3.478276-.202022.052702-.404043.079052-.606064.070268-.193237-.02635-.386476-.052702-.579713-.096618-.685116-.210804-1.247261-.755384-1.440499-1.501983-.307422-1.150642.42161-2.318851,1.572252-2.635058.781733-.210804,1.633736.043919,2.134397.676332l-.008784.008784Z"/>
        <path d="M14.673687,23.890916l-.043917-.439176c0,.14932.02635.29864.043917.439176"/>
        <path class="cls-3" d="M30.12391,23.42539h-.096619c-2.151964.149318-3.460709.579713-4.743105.992538-.869569.281073-1.642518.579713-2.705326.781733-3.899886,1.37023-7.905171-1.317529-7.905171-1.317529-.061486-.035133-.096619-.052701-.105405-.061484,0,0-.008782,0-.017566-.008784-.079052-.043917-7.826121-4.391763-11.655739-6.640345-.570929-.333773-1.256044-.342557-1.835757-.026351-.59728.324991-.966188.922271-.992538,1.589819,0,.166886-.017567.333773-.026351.518228-.096618,1.458065-.237156,3.601244,2.441821,5.08566-.017567.386476.035133.852002.237156,1.361447.447958,1.159425,1.484415,2.116829,3.083016,2.854646.527012.843218,2.09048,2.986398,4.743104,3.987721.175671.070268.465527.14932.649982.202021.070268.017567.131753.043917.202021.070268.509444.193237.77295.272289,1.449281.491877,1.589819.518228,3.241121,1.054023,6.491025,1.054023h.017567c1.958726,0,3.891102-.535795,5.568755-1.5459,1.809407-1.089157,3.144502-2.362768,3.144502-2.362768,1.818191-1.826973,3.144502-3.794484,3.776917-4.804589.052702-.079052.087834-.166887.105401-.254721.114187-.474311.281073-1.923593-1.826972-1.976293v.008784ZM24.063276,31.093407c-.913487.606063-1.976293.957404-3.06545,1.036456-.500661.035134-1.04524.061485-1.660087.061485-2.898563,0-4.312711-.456743-5.814693-.948621-.544578-.175671-1.133075-.404042-1.747921-.562146-.043918-.026351-.096619-.043918-.14932-.061485-1.695221-.535795-2.872213-1.747922-3.522194-2.573573.869569.254722,1.906025.518227,2.828295.667547.114186.017567.14932-.140536.043918-.184453-1.071591-.368908-1.730356-.491878-3.820834-1.739138-.017567-.008783-.035135-.02635-.061484-.035134,0,0-.008784,0-.017567-.008784,0,0-.061484-.035133-.096619-.043917-2.450603-1.036456-2.371551-2.160748-2.292499-2.476955.869569.342558,3.118151,1.16821,4.839723,1.440498.105401.017567.14932-.131753.052701-.175671-1.010105-.421609-2.854646-1.220909-5.199847-2.626274-.079052-.052701-.158104-.096618-.245939-.131753-2.072911-.869569-2.011426-1.79184-1.906025-3.311389v-.087836c3.908669,2.283717,10.96184,6.245087,11.242913,6.403191.237156.140536,3.249904,1.862107,5.911313,1.862107.087836,0,.59728.061484.676332.043918,3.135718-.017567,4.330278-.614847,5.893745-1.124292.992539-.32499,1.949942-.632413,3.337741-.808084-1.115508,1.589818-2.9864,3.908669-5.234982,5.393085l.008784-.008784Z"/>
        <path class="cls-1" d="M37.291263,5.788071c-2.678975-2.837078-6.174817-4.751887-10.092271-5.472136-4.874858-.904705-9.819982.149318-13.904321,2.960047-4.093123,2.810729-6.842367,7.044388-7.747069,11.928029-.158104.852.237156,1.712786.992539,2.143179.799301.456744,1.633733.931055,2.459386,1.405364,1.282394.729033,2.872212-.096619,3.047883-1.563468.052701-.404041.122969-.816868.210804-1.220909.632413-2.819511,2.301284-5.322816,4.646486-7.009253.922269-.658764,1.914807-1.176993,2.951263-1.545902.017567,0,.035135-.017564.052701-.02635.983756-.430391,2.055345-.764166,2.731677-.957404l1.027673-.307422.412825-.122969,1.34388-.404045c1.308745-.395256,2.714108.245941,3.267471,1.484418,0,0,.105401.245938.210806.491875.114183.254723.386474.404045.667546.360124l7.448429-1.308743c.386477-.07027.544581-.544578.27229-.825654v-.008782Z"/>
      </g>
      <g>
        <path class="cls-1" d="M62.014704,37.175412c-1.733398,0-3.245605-.384766-4.537109-1.15625-1.291016-.771484-2.29248-1.850586-3.00293-3.237305-.710938-1.386719-1.065918-3.006836-1.065918-4.862305,0-1.87207.368164-3.526367,1.10498-4.96582.736816-1.438477,1.79834-2.564941,3.185059-3.379883,1.386719-.814453,3.041992-1.222168,4.96582-1.222168,2.166992,0,3.965332.52002,5.39502,1.560059,1.430176,1.040039,2.353027,2.479004,2.769043,4.315918h-4.341797c-.260254-.727539-.714844-1.291016-1.365234-1.689941-.649902-.398438-1.477539-.597656-2.48291-.597656-1.144043,0-2.105957.24707-2.885742.740723-.780273.494141-1.369629,1.1875-1.768066,2.07959-.398926.893555-.598145,1.946289-.598145,3.15918,0,1.248047.199219,2.305664.598145,3.171875.398438.867188.979004,1.521484,1.741699,1.963867.762695.441406,1.664062.662109,2.704102.662109,1.490723,0,2.621582-.389648,3.393066-1.169922.770996-.779297,1.243652-1.758789,1.416992-2.9375h-4.237793v-2.912109h8.137695v10.456167h-3.587891l-.312012-2.396596c-.36377.520508-.792969.962891-1.287109,1.326172-.493652.364258-1.065918.637695-1.71582.819336s-1.391113.272461-2.223145.272461Z"/>
        <path class="cls-1" d="M73.350641,37.15404v-13.394155h3.458008l.364258,2.39209c.346191-.554688.753906-1.03125,1.22168-1.430664.468262-.398438,1.009766-.709961,1.625-.935547.615234-.225098,1.27832-.337891,1.989258-.337891v4.133789h-1.300293c-.52002,0-.992188.056641-1.416992.168945-.424805.113281-.788574.298828-1.091797.55957-.303711.259766-.537598.610352-.702148,1.052734-.165039.442383-.24707.992188-.24707,1.651367v6.13976h-3.899902Z"/>
        <path class="cls-1" d="M95.411677,26.632459c-.563477-.978516-1.338867-1.754883-2.327148-2.32666-.987793-.571777-2.140625-.85791-3.458008-.85791-1.352051,0-2.539062.303711-3.562012.910156s-1.819824,1.438477-2.391602,2.496094c-.572266,1.057617-.858398,2.261719-.858398,3.613281,0,1.318359.290039,2.483398.871094,3.49707.580566,1.014648,1.382324,1.803711,2.405273,2.366211,1.022461.563477,2.209961.844727,3.562012.844727,1.022461,0,1.958496-.194336,2.807617-.584961.849121-.389648,1.568848-.917969,2.158203-1.585938.588867-.666992,1.004883-1.416992,1.248047-2.249023h-3.978027c-.208008.364258-.498535.663086-.871094.897461-.373047.234375-.844727.350586-1.416992.350586-.606934,0-1.130859-.129883-1.572754-.389648-.442383-.259766-.780273-.624023-1.01416-1.091797-.184265-.36853-.274658-.792908-.313782-1.248047h9.478821c.034668-.225586.056152-.446289.064941-.663086.008301-.216797.013184-.411133.013184-.584961,0-1.282227-.282227-2.414062-.845215-3.393555ZM86.772028,29.012342c.067078-.317932.163025-.606079.293457-.858398.268555-.520508.628418-.910156,1.079102-1.169922s.953125-.389648,1.508301-.389648c.728027,0,1.338867.220703,1.833008.662109.493652.442383.757812,1.027344.792969,1.755859h-5.506836Z"/>
        <path class="cls-1" d="M110.387751,26.632459c-.563477-.978516-1.338867-1.754883-2.327148-2.32666-.987793-.571777-2.140625-.85791-3.458008-.85791-1.352051,0-2.539062.303711-3.562012.910156s-1.819824,1.438477-2.391602,2.496094c-.572266,1.057617-.858398,2.261719-.858398,3.613281,0,1.318359.290039,2.483398.871094,3.49707.580566,1.014648,1.382324,1.803711,2.405273,2.366211,1.022461.563477,2.209961.844727,3.562012.844727,1.022461,0,1.958496-.194336,2.807617-.584961.849121-.389648,1.568848-.917969,2.158203-1.585938.588867-.666992,1.004883-1.416992,1.24707-2.249023h-3.977051c-.208008.364258-.498535.663086-.871094.897461-.373047.234375-.844727.350586-1.416992.350586-.606934,0-1.130859-.129883-1.572754-.389648-.442383-.259766-.780273-.624023-1.01416-1.091797-.184265-.36853-.274658-.792908-.313782-1.248047h9.478333c.035156-.225586.056641-.446289.064453-.663086.009766-.216797.013672-.411133.013672-.584961,0-1.282227-.28125-2.414062-.844727-3.393555ZM101.748102,29.012342c.067078-.317932.163025-.606079.293457-.858398.268555-.520508.628418-.910156,1.079102-1.169922s.953125-.389648,1.508301-.389648c.728027,0,1.338867.220703,1.833008.662109.493652.442383.757812,1.027344.792969,1.755859h-5.506836Z"/>
        <path class="cls-1" d="M113.157282,37.15404v-13.394155h3.405273l.3125,2.105957c.398438-.727539.961914-1.3125,1.689453-1.754883.728516-.441895,1.612305-.663086,2.652344-.663086,1.091797,0,2.010742.233887,2.755859.702148.745117.467773,1.313477,1.139648,1.703125,2.014648.389648.875977.584961,1.946289.584961,3.210938v7.778432h-3.874023v-7.414174c0-.953125-.204102-1.694336-.611328-2.222656-.407227-.529297-1.052734-.792969-1.936523-.792969-.520508,0-.992188.125977-1.416992.376953s-.758789.610352-1.000977,1.079102c-.243164.467773-.364258,1.03125-.364258,1.689453v7.284292h-3.899414Z"/>
        <polygon class="cls-1" points="144.409235 23.7599 142.330744 32.789624 139.911188 23.7599 135.621149 23.7599 133.199213 32.795301 131.096735 23.7599 127.249079 23.7599 131.123102 37.15404 135.152399 37.15404 137.76391 27.567639 140.352595 37.15404 144.409235 37.15404 148.256891 23.7599 144.409235 23.7599"/>
        <path class="cls-1" d="M153.119196,37.15404c-1.091797,0-1.998047-.172852-2.716797-.519531-.719727-.34668-1.248047-.819336-1.585938-1.416992s-.507812-1.260742-.507812-1.989258c0-.779297.195312-1.46875.584961-2.066406.390625-.598633,1.001953-1.075195,1.833008-1.430664.832031-.354492,1.880859-.532227,3.146484-.532227h3.171875c0-.589844-.074219-1.075195-.220703-1.456055-.147461-.381836-.385742-.666992-.714844-.858398-.330078-.19043-.780273-.286133-1.352539-.286133-.606445,0-1.118164.12207-1.53418.364258-.416016.243164-.675781.624023-.779297,1.143555h-3.744141c.085938-.935547.393555-1.75.922852-2.443359.52832-.693359,1.235352-1.239258,2.119141-1.638184.883789-.398438,1.897461-.598145,3.041992-.598145,1.248047,0,2.331055.204102,3.25.61084.917969.407715,1.633789,1.001465,2.144531,1.780762.511719.780273.767578,1.750977.767578,2.912109v8.423828h-3.25l-.46875-2.209961c-.19043.330078-.416016.628906-.675781.897461s-.563477.50293-.910156.702148-.727539.350586-1.143555.455078c-.416016.103516-.875977.155273-1.37793.155273ZM154.08111,34.190173c.416016,0,.780273-.068359,1.091797-.208008.3125-.137695.581055-.329102.806641-.571289.224609-.243164.411133-.524414.558594-.845703.147461-.320312.255859-.670898.325195-1.052734v-.026367h-2.522461c-.433594,0-.792969.056641-1.079102.169922-.286133.112305-.498047.272461-.636719.480469s-.208008.451172-.208008.728516c0,.294922.073242.541016.220703.740234.147461.200195.34668.347656.598633.442383.250977.095703.532227.142578.844727.142578Z"/>
        <path class="cls-1" d="M164.361002,42.583615l3.146484-7.175781h-.780273l-5.27832-11.647949h4.238281l3.614258,7.981934,3.015625-7.981934h4.186523l-8.007812,18.82373h-4.134766Z"/>
      </g>
    </g>
  </g>
</svg>