<?xml version="1.0" encoding="UTF-8"?>
<svg id="Layer_2" xmlns="http://www.w3.org/2000/svg" viewBox="0 0 203.95 28.17">
  <defs>
    <style>
      .cls-1 {
        fill: #3a5f3a;
      }

      .cls-2 {
        fill: #212121;
      }
    </style>
  </defs>
  <g id="Layer_1-2" data-name="Layer_1">
    <g>
      <path class="cls-2" d="M10.27,21.88c-2.04,0-3.82-.46-5.35-1.38-1.53-.92-2.74-2.2-3.61-3.84-.88-1.64-1.31-3.55-1.31-5.73s.44-4.05,1.31-5.7c.88-1.64,2.08-2.93,3.61-3.85,1.53-.93,3.31-1.39,5.35-1.39s3.86.46,5.43,1.39c1.56.93,2.77,2.21,3.63,3.85s1.28,3.54,1.28,5.7-.43,4.08-1.28,5.73-2.06,2.92-3.63,3.84c-1.56.92-3.37,1.38-5.43,1.38ZM10.27,19.19c1.47,0,2.75-.33,3.84-1,1.09-.67,1.93-1.61,2.52-2.84s.89-2.7.89-4.41-.3-3.18-.89-4.41c-.59-1.23-1.43-2.17-2.52-2.82-1.09-.65-2.37-.98-3.84-.98s-2.68.33-3.76.98c-1.08.65-1.92,1.6-2.52,2.82-.6,1.23-.91,2.7-.91,4.41s.3,3.18.91,4.41c.61,1.23,1.45,2.18,2.52,2.84,1.08.67,2.33,1,3.76,1Z"/>
      <path class="cls-2" d="M29.08,21.88c-1.17,0-2.2-.24-3.08-.73-.89-.48-1.56-1.21-2.02-2.18-.46-.97-.69-2.19-.69-3.66V6.29h3.02v8.7c0,1.45.31,2.53.92,3.25.61.72,1.52,1.07,2.71,1.07.79,0,1.49-.19,2.12-.57.62-.38,1.12-.93,1.5-1.65.37-.71.56-1.6.56-2.64V6.29h3.02v15.23h-2.72l-.18-2.6c-.46.93-1.14,1.65-2.04,2.18-.9.52-1.93.79-3.1.79Z"/>
      <path class="cls-2" d="M40.49,21.52V6.29h2.72l.24,2.87c.36-.69.81-1.26,1.34-1.74.53-.47,1.18-.84,1.93-1.1s1.6-.39,2.52-.39v3.17h-1.09c-.63,0-1.22.08-1.78.24s-1.06.42-1.48.79c-.42.36-.76.85-1.01,1.47s-.38,1.4-.38,2.34v7.59h-3.02Z"/>
      <path class="cls-1" d="M67.57,21.88c-2,0-3.74-.45-5.24-1.34-1.5-.9-2.67-2.15-3.51-3.76-.84-1.61-1.25-3.5-1.25-5.65s.43-4.1,1.3-5.77c.87-1.67,2.1-2.98,3.7-3.93,1.6-.95,3.52-1.42,5.76-1.42,2.54,0,4.63.61,6.29,1.81,1.65,1.21,2.72,2.88,3.2,5.02h-5.02c-.3-.85-.83-1.5-1.59-1.96-.76-.46-1.73-.69-2.92-.69-1.31,0-2.42.29-3.34.86-.92.57-1.61,1.38-2.07,2.42-.46,1.04-.7,2.26-.7,3.67s.24,2.68.71,3.69,1.15,1.77,2.02,2.28c.88.51,1.93.77,3.16.77,1.73,0,3.05-.45,3.94-1.36.9-.91,1.45-2.04,1.65-3.42h-4.96v-3.38h9.49v11.82h-4.17l-.36-2.45c-.42.61-.92,1.12-1.5,1.54-.57.42-1.24.74-1.99.95-.76.21-1.63.32-2.61.32Z"/>
      <path class="cls-1" d="M81.55,21.52V6.29h4.02l.39,2.78c.4-.65.88-1.2,1.42-1.66s1.17-.83,1.87-1.09c.71-.26,1.49-.39,2.36-.39v4.81h-1.54c-.61,0-1.15.07-1.63.2-.48.13-.91.35-1.27.65-.36.3-.63.71-.82,1.22-.18.51-.27,1.15-.27,1.92v6.8h-4.53Z"/>
      <path class="cls-1" d="M101.01,21.88c-1.57,0-2.95-.33-4.13-.98s-2.1-1.57-2.77-2.75c-.66-1.18-1-2.53-1-4.07s.32-2.97.97-4.2c.64-1.23,1.57-2.2,2.76-2.9s2.58-1.06,4.16-1.06,2.87.33,4.02.98c1.15.65,2.04,1.56,2.69,2.7.64,1.15.97,2.47.97,3.96,0,.2,0,.43-.01.68-.01.25-.03.51-.05.77h-12.3v-2.66h7.8c-.06-.83-.37-1.5-.94-2.02s-1.28-.79-2.15-.79c-.66,0-1.26.15-1.78.45-.52.3-.93.76-1.22,1.37-.29.62-.44,1.39-.44,2.31v.88c0,.71.13,1.34.39,1.89.26.55.65.98,1.18,1.28.52.3,1.12.45,1.78.45s1.24-.14,1.68-.41c.43-.27.77-.61,1.01-1.01h4.62c-.28.93-.77,1.78-1.45,2.57-.69.79-1.52,1.41-2.49,1.86s-2.08.68-3.31.68Z"/>
      <path class="cls-1" d="M118.66,21.88c-1.57,0-2.95-.33-4.13-.98s-2.1-1.57-2.77-2.75c-.66-1.18-1-2.53-1-4.07s.32-2.97.97-4.2c.64-1.23,1.57-2.2,2.76-2.9s2.58-1.06,4.16-1.06,2.87.33,4.02.98c1.15.65,2.04,1.56,2.69,2.7.64,1.15.97,2.47.97,3.96,0,.2,0,.43-.01.68-.01.25-.03.51-.05.77h-12.3v-2.66h7.8c-.06-.83-.37-1.5-.94-2.02s-1.28-.79-2.15-.79c-.66,0-1.26.15-1.78.45-.52.3-.93.76-1.22,1.37-.29.62-.44,1.39-.44,2.31v.88c0,.71.13,1.34.39,1.89.26.55.65.98,1.18,1.28.52.3,1.12.45,1.78.45s1.24-.14,1.68-.41c.43-.27.77-.61,1.01-1.01h4.62c-.28.93-.77,1.78-1.45,2.57-.69.79-1.52,1.41-2.49,1.86s-2.08.68-3.31.68Z"/>
      <path class="cls-1" d="M129.01,21.52V6.29h3.96l.33,2.42c.44-.83,1.09-1.5,1.95-2.01.86-.51,1.89-.77,3.1-.77,1.27,0,2.34.27,3.2.82s1.53,1.32,1.98,2.34c.45,1.02.68,2.27.68,3.76v8.67h-4.53v-8.28c0-1.13-.23-2-.7-2.6-.46-.61-1.2-.91-2.21-.91-.65,0-1.21.15-1.69.44-.48.29-.86.71-1.13,1.24-.27.53-.41,1.19-.41,1.98v8.13h-4.53Z"/>
      <path class="cls-1" d="M150.05,21.52l-4.5-15.23h4.47l2.84,12.18h-.82l3.23-12.18h4.99l3.26,12.15-.85.03,2.84-12.18h4.44l-4.44,15.23h-4.71l-3.54-12.48h.97l-3.48,12.48h-4.71Z"/>
      <path class="cls-1" d="M176.38,21.88c-1.25,0-2.29-.21-3.13-.62s-1.45-.96-1.84-1.65c-.39-.68-.59-1.45-.59-2.3s.23-1.69.68-2.4c.45-.71,1.16-1.27,2.12-1.68.96-.4,2.19-.61,3.7-.61h3.66c0-.68-.09-1.25-.26-1.71-.17-.45-.45-.79-.83-1.01-.38-.22-.91-.33-1.57-.33-.71,0-1.3.15-1.78.44s-.79.74-.91,1.34h-4.35c.1-1.09.45-2.03,1.06-2.84.6-.81,1.43-1.44,2.46-1.9,1.04-.46,2.22-.69,3.55-.69,1.45,0,2.71.23,3.78.69,1.07.46,1.9,1.15,2.49,2.07.59.92.89,2.05.89,3.4v9.43h-3.78l-.54-2.21c-.22.38-.48.73-.79,1.04s-.65.58-1.06.82c-.4.23-.85.41-1.33.53-.48.12-1.03.18-1.63.18ZM177.53,18.44c.46,0,.88-.08,1.24-.24s.68-.38.95-.67c.27-.28.49-.61.67-.98.17-.37.3-.79.38-1.25h-2.93c-.5,0-.93.07-1.27.2-.34.13-.59.32-.74.57-.15.25-.23.53-.23.83,0,.34.09.63.26.85.17.22.4.39.69.51s.62.18.98.18Z"/>
      <path class="cls-1" d="M189.87,28.17l3.69-8.34h-.91l-6.17-13.54h4.93l4.2,9.25,3.51-9.25h4.84l-9.28,21.88h-4.81Z"/>
    </g>
  </g>
</svg>