<?xml version="1.0" encoding="UTF-8"?>
<svg id="Layer_2" xmlns="http://www.w3.org/2000/svg" viewBox="0 0 51.79 42.31">
  <defs>
    <style>
      .cls-1 {
        fill: #007acc;
      }

      .cls-2 {
        fill: #385c38;
      }
    </style>
  </defs>
  <g id="Layer_1-2" data-name="Layer_1">
    <g>
      <g>
        <path class="cls-2" d="M43.62,25.35c-.38-.22-.73-.47-1.06-.75-.43-.37-1.01-.49-1.54-.3h-.02c-.46.17-.82.54-.96,1.01-.56,1.87-1.46,3.62-1.98,4.55-.06.13-.12.25-.2.37-.76,1.22-2.36,3.59-4.56,5.8l-.04.04c-.07.07-1.7,1.61-3.91,2.94-2.21,1.33-4.74,2.03-7.33,2.03h-.02s-.1,0-.15,0c-.34,0-.41.49-.08.58.48.12.97.23,1.47.32,1.3.24,2.6.36,3.9.36,4.24,0,8.37-1.27,11.93-3.73.58-.4,1.14-.83,1.68-1.28v3.43c0,.86.69,1.55,1.55,1.55h4.38c.86,0,1.55-.69,1.55-1.55v-13.34c0-.64-.52-1.16-1.16-1.14-1.2.02-2.39-.28-3.47-.9Z"/>
        <path d="M20.2,21.79s0,0,0,0c-2.4.65-3.88,3.01-3.49,5.41-.03-.02-.06-.03-.08-.04.73,1.06,3.89,4.88,9.57,1.44-.16.04-.32.07-.49.1.38-.71.58-1.5.57-2.33l3.43-.93,6.41-1.73s0,0,0,0c.05-.01.1-.03.14-.05l3.05-.83c1.27-.34,2.35-.8,3.27-1.33.41.92,1.1,1.68,1.99,2.19,1.11.64,2.41.81,3.65.47,0,0,0,0,0,0,1.24-.34,2.27-1.13,2.91-2.25.73-1.27.85-2.78.3-4.18-.31-.79-.83-1.49-1.51-2.02-.66-.51-1.41-.83-2.2-.96.47-1.8.38-3.18.37-3.25,0-.08-.02-.15-.04-.22-.42-1.55-1.93-2.51-3.51-2.23l-12.58,2.19-1.08-2.4c-.25-.54-.85-.82-1.42-.65l-1.96.59c-.61.18-1,.8-.85,1.41.16.68.84,1.07,1.5.87l1.01-.3,4.59,10.15c-2.06.45-4.22.16-6.42-.85-1.62-.75-2.73-1.67-2.95-1.86l-1.39-1.59c.11-.07.21-.13.31-.19.12-.07.27-.17.35-.2.62-.12,1.04-.71.94-1.34-.1-.65-.7-1.09-1.35-1-.46.07-.83.3-1.19.53-.3.19-.61.38-.98.49,0,0-.01,0-.02,0-.49.13-1.36.04-1.8-.05-.64-.14-1.27.27-1.41.91-.14.64.27,1.27.91,1.41.12.03.87.18,1.73.17l1.17,1.33-1.19,3.05c-.09.02-.18.04-.27.06ZM44.59,20.04c1.04-.95,1.77-1.99,2.27-2.96,0,0,0,0,0,0,.46-.02.92.09,1.33.32.71.41,1.16,1.13,1.22,1.97.02.3-.02.61-.12.9-.27.8-.9,1.38-1.68,1.6h0c-.39.11-.81.13-1.2.02-.94-.24-1.62-.95-1.82-1.85,0,0,0,0,0,0ZM23.48,20.52c1.01.76,2.97,2.03,5.49,2.64-.04.01-.07.03-.11.05l-3.22.87c-.6-1.06-1.57-1.84-2.69-2.21l.52-1.35ZM23.32,24.83c1.2,1.52.41,3.52-1.22,3.96,0,0,0,0,0,0-.23.06-.46.09-.69.08-.22-.03-.44-.06-.66-.11-.78-.24-1.42-.86-1.64-1.71-.35-1.31.48-2.64,1.79-3,.89-.24,1.86.05,2.43.77Z"/>
        <g>
          <path d="M16.7,27.2l-.05-.5c0,.17.03.34.05.5Z"/>
          <path class="cls-1" d="M34.29,26.67s-.07,0-.11,0c-2.45.17-3.94.66-5.4,1.13-.99.32-1.87.66-3.08.89-4.44,1.56-9-1.5-9-1.5-.07-.04-.11-.06-.12-.07,0,0-.01,0-.02-.01-.09-.05-8.91-5-13.27-7.56-.65-.38-1.43-.39-2.09-.03-.68.37-1.1,1.05-1.13,1.81,0,.19-.02.38-.03.59-.11,1.66-.27,4.1,2.78,5.79-.02.44.04.97.27,1.55.51,1.32,1.69,2.41,3.51,3.25.6.96,2.38,3.4,5.4,4.54.2.08.53.17.74.23.08.02.15.05.23.08.58.22.88.31,1.65.56,1.81.59,3.69,1.2,7.39,1.2h.02c2.23,0,4.43-.61,6.34-1.76,2.06-1.24,3.58-2.69,3.58-2.69,2.07-2.08,3.58-4.32,4.3-5.47.06-.09.1-.19.12-.29.13-.54.32-2.19-2.08-2.25ZM27.39,35.4c-1.04.69-2.25,1.09-3.49,1.18-.57.04-1.19.07-1.89.07-3.3,0-4.91-.52-6.62-1.08-.62-.2-1.29-.46-1.99-.64-.05-.03-.11-.05-.17-.07-1.93-.61-3.27-1.99-4.01-2.93.99.29,2.17.59,3.22.76.13.02.17-.16.05-.21-1.22-.42-1.97-.56-4.35-1.98-.02-.01-.04-.03-.07-.04,0,0-.01,0-.02-.01h0s-.07-.04-.11-.05c-2.79-1.18-2.7-2.46-2.61-2.82.99.39,3.55,1.33,5.51,1.64.12.02.17-.15.06-.2-1.15-.48-3.25-1.39-5.92-2.99-.09-.06-.18-.11-.28-.15-2.36-.99-2.29-2.04-2.17-3.77,0-.03,0-.07,0-.1,4.45,2.6,12.48,7.11,12.8,7.29.27.16,3.7,2.12,6.73,2.12.1,0,.68.07.77.05,3.57-.02,4.93-.7,6.71-1.28,1.13-.37,2.22-.72,3.8-.92-1.27,1.81-3.4,4.45-5.96,6.14Z"/>
        </g>
      </g>
      <path class="cls-2" d="M42.45,6.59c-3.05-3.23-7.03-5.41-11.49-6.23-5.55-1.03-11.18.17-15.83,3.37-4.66,3.2-7.79,8.02-8.82,13.58-.18.97.27,1.95,1.13,2.44.91.52,1.86,1.06,2.8,1.6,1.46.83,3.27-.11,3.47-1.78.06-.46.14-.93.24-1.39.72-3.21,2.62-6.06,5.29-7.98,1.05-.75,2.18-1.34,3.36-1.76.02,0,.04-.02.06-.03,1.12-.49,2.34-.87,3.11-1.09h0s1.17-.35,1.17-.35c0,0,0,0,0,0l.47-.14h0s1.53-.46,1.53-.46c1.49-.45,3.09.28,3.72,1.69,0,0,.12.28.24.56.13.29.44.46.76.41l8.48-1.49c.44-.08.62-.62.31-.94Z"/>
    </g>
  </g>
</svg>