<?xml version="1.0" encoding="UTF-8"?>
<svg id="Layer_2" xmlns="http://www.w3.org/2000/svg" viewBox="0 0 142.31 49.11">
  <defs>
    <style>
      .cls-1 {
        fill: #212121;
      }

      .cls-2 {
        fill: #385c38;
      }
    </style>
  </defs>
  <g id="Layer_1-2" data-name="Layer_1">
    <g>
      <path class="cls-1" d="M7.24,15.43c-1.44,0-2.69-.33-3.77-.97-1.08-.65-1.93-1.55-2.55-2.71C.31,10.59,0,9.25,0,7.71s.31-2.86.93-4.02c.62-1.16,1.47-2.06,2.55-2.72C4.56.33,5.82,0,7.25,0s2.72.33,3.83.98c1.1.65,1.95,1.56,2.56,2.72.6,1.16.9,2.5.9,4.02s-.3,2.88-.91,4.04c-.61,1.16-1.46,2.06-2.56,2.71-1.1.65-2.38.97-3.83.97ZM7.24,13.54c1.04,0,1.94-.23,2.71-.7.77-.47,1.36-1.14,1.78-2,.42-.87.63-1.9.63-3.11s-.21-2.25-.63-3.11c-.42-.87-1.01-1.53-1.78-1.99-.77-.46-1.67-.69-2.71-.69s-1.89.23-2.65.69c-.76.46-1.35,1.13-1.78,1.99-.43.87-.64,1.9-.64,3.11s.21,2.25.64,3.11c.43.87,1.02,1.54,1.78,2.01.76.47,1.64.7,2.65.71Z"/>
      <path class="cls-1" d="M20.14,15.44c-.82,0-1.55-.17-2.17-.51-.63-.34-1.1-.85-1.43-1.54-.33-.68-.49-1.54-.49-2.58v-6.37s2.14,0,2.14,0v6.14c0,1.02.21,1.79.64,2.29.43.5,1.07.76,1.91.76.55,0,1.05-.13,1.49-.4.44-.27.79-.66,1.06-1.16.26-.5.4-1.13.4-1.87v-5.76s2.14,0,2.14,0v10.74s-1.93,0-1.93,0l-.13-1.83c-.33.65-.81,1.16-1.44,1.53-.63.37-1.36.55-2.19.55Z"/>
      <path class="cls-1" d="M27.53,15.19V4.45s1.93,0,1.93,0l.17,2.03c.26-.48.57-.89.95-1.23.38-.33.83-.59,1.36-.78.53-.18,1.13-.28,1.78-.28v2.24s-.77,0-.77,0c-.44,0-.86.06-1.26.17-.4.11-.75.3-1.04.55-.3.26-.54.6-.72,1.03-.18.43.06.98.06,1.65l-.33,5.35h-2.13Z"/>
      <path class="cls-2" d="M10.04,42.7c-2,0-3.76-.45-5.26-1.35-1.51-.9-2.68-2.16-3.52-3.78C.42,35.95,0,34.06,0,31.89s.44-4.12,1.31-5.8c.87-1.68,2.11-2.99,3.72-3.94,1.61-.95,3.54-1.42,5.78-1.42,2.55,0,4.65.61,6.31,1.83,1.66,1.22,2.73,2.9,3.21,5.04h-5.04c-.3-.85-.83-1.51-1.59-1.98-.76-.47-1.73-.7-2.93-.7-1.32,0-2.43.29-3.35.86-.92.58-1.61,1.38-2.08,2.43-.47,1.04-.7,2.27-.7,3.69s.24,2.69.71,3.7c.47,1.01,1.15,1.78,2.03,2.29s1.94.78,3.17.78c1.74,0,3.06-.45,3.96-1.36.9-.91,1.45-2.05,1.66-3.43h-4.98s0-3.4,0-3.4h9.53s0,11.87,0,11.87h-4.19s-.36-2.46-.36-2.46c-.43.61-.93,1.12-1.5,1.55-.58.42-1.24.74-2,.95s-1.63.32-2.63.32Z"/>
      <path class="cls-2" d="M23.42,42.35v-15.3s4.05,0,4.05,0l.39,2.79c.4-.65.88-1.2,1.43-1.67.55-.46,1.17-.83,1.88-1.09.71-.26,1.5-.39,2.37-.39v4.83s-1.55,0-1.55,0c-.61,0-1.15.07-1.64.2-.49.13-.91.35-1.27.65-.36.3-.64.71-.82,1.23-.18.52-.27,1.16-.27,1.93v6.83s-4.56,0-4.56,0Z"/>
      <path class="cls-2" d="M41.88,42.73c-1.58,0-2.96-.33-4.14-.99-1.18-.66-2.11-1.58-2.77-2.76-.67-1.18-1-2.54-1-4.08s.33-2.98.97-4.22c.65-1.23,1.57-2.2,2.78-2.91,1.2-.71,2.6-1.06,4.17-1.06s2.88.33,4.04.99c1.15.66,2.05,1.56,2.7,2.72.65,1.15.97,2.48.97,3.98,0,.2,0,.43-.02.68-.01.25-.03.51-.05.77h-12.35s0-2.68,0-2.68h7.83c-.06-.82-.37-1.5-.94-2.03-.57-.53-1.28-.79-2.15-.79-.67,0-1.26.15-1.79.45-.53.3-.94.76-1.23,1.38-.29.62-.44,1.39-.44,2.32v.88c0,.71.13,1.34.39,1.9.26.56.66.99,1.18,1.29.53.3,1.12.46,1.79.46s1.25-.14,1.68-.41c.43-.27.77-.61,1.02-1.02h4.64c-.28.93-.77,1.79-1.46,2.58-.69.79-1.52,1.41-2.51,1.86-.98.45-2.09.68-3.32.68Z"/>
      <path class="cls-2" d="M59.19,42.74c-1.58,0-2.96-.33-4.14-.99-1.18-.66-2.11-1.58-2.77-2.76-.67-1.18-1-2.54-1-4.08s.33-2.98.97-4.22c.65-1.23,1.57-2.2,2.78-2.91,1.2-.71,2.6-1.06,4.17-1.06s2.88.33,4.04.99c1.15.66,2.05,1.56,2.7,2.72.65,1.15.97,2.48.97,3.98,0,.2,0,.43-.02.68-.01.25-.03.51-.05.77h-12.35s0-2.68,0-2.68h7.83c-.06-.82-.37-1.5-.94-2.03-.57-.53-1.28-.79-2.15-.79-.67,0-1.26.15-1.79.45-.53.3-.94.76-1.23,1.38-.29.62-.44,1.39-.44,2.32v.88c0,.71.13,1.34.39,1.9.26.56.66.99,1.18,1.29.53.3,1.12.46,1.79.46s1.25-.14,1.68-.41c.43-.27.77-.61,1.02-1.02h4.64c-.28.93-.77,1.79-1.46,2.58-.69.79-1.52,1.41-2.51,1.86-.98.45-2.09.68-3.32.68Z"/>
      <path class="cls-2" d="M69.11,42.38v-15.3s3.99,0,3.99,0l.33,2.43c.45-.83,1.1-1.5,1.96-2.02.86-.52,1.9-.77,3.11-.77,1.27,0,2.35.27,3.22.82.87.55,1.53,1.33,1.99,2.35.45,1.02.68,2.28.68,3.78v8.71s-4.56,0-4.56,0v-8.32c0-1.13-.22-2-.69-2.61-.46-.61-1.2-.91-2.21-.91-.65,0-1.21.15-1.7.44-.49.29-.87.71-1.14,1.24-.27.54-.41,1.2-.41,1.99v8.16s-4.56,0-4.56,0Z"/>
      <path class="cls-2" d="M89.42,42.4l-4.51-15.3h4.49s2.84,12.24,2.84,12.24h-.82s3.26-12.23,3.26-12.23h5.01s3.27,12.21,3.27,12.21l-.85.03,2.86-12.23h4.46s-4.47,15.3-4.47,15.3h-4.73s-3.54-12.54-3.54-12.54h.97s-3.5,12.53-3.5,12.53h-4.73Z"/>
      <path class="cls-2" d="M115.14,42.78c-1.25,0-2.3-.21-3.14-.62-.84-.42-1.46-.97-1.85-1.66-.39-.69-.59-1.46-.59-2.31s.23-1.69.68-2.41c.46-.72,1.16-1.28,2.13-1.68.96-.4,2.2-.61,3.72-.6h3.67c0-.68-.09-1.26-.26-1.71-.17-.46-.45-.79-.83-1.02-.38-.22-.91-.33-1.58-.33-.71,0-1.31.15-1.79.44-.49.29-.79.74-.91,1.35h-4.37c.1-1.1.46-2.05,1.06-2.86.61-.81,1.43-1.45,2.47-1.91,1.04-.46,2.23-.7,3.57-.7,1.46,0,2.72.23,3.79.7,1.07.47,1.91,1.16,2.5,2.08.6.92.89,2.06.89,3.41v9.47s-3.8,0-3.8,0l-.54-2.22c-.22.38-.49.73-.79,1.05-.3.31-.66.59-1.06.82-.41.23-.85.41-1.34.53-.49.12-1.03.18-1.64.18ZM116.3,39.32c.47,0,.88-.08,1.24-.24.36-.16.68-.38.96-.67.27-.28.5-.61.67-.99.17-.37.3-.79.38-1.26h-2.94c-.51,0-.93.06-1.27.19-.34.13-.59.32-.74.58-.15.25-.23.53-.23.83,0,.34.09.63.26.85.17.22.4.39.7.52.29.12.62.18.99.18Z"/>
      <path class="cls-2" d="M128.15,49.1l3.71-8.37h-.91s-6.18-13.6-6.18-13.6h4.95s4.21,9.29,4.21,9.29l3.53-9.28h4.86s-9.33,21.97-9.33,21.97h-4.83Z"/>
    </g>
  </g>
</svg>