<?xml version="1.0" encoding="UTF-8"?>
<svg id="Layer_2" xmlns="http://www.w3.org/2000/svg" viewBox="0 0 66.99 21.02">
  <defs>
    <style>
      .cls-1 {
        fill: #fff;
      }
    </style>
  </defs>
  <g id="Layer_1-2" data-name="Layer_1">
    <g>
      <path class="cls-1" d="M28.79,7.15c-.66,0-1.25-.15-1.75-.45-.5-.3-.89-.72-1.18-1.25-.29-.54-.43-1.16-.43-1.87s.14-1.32.43-1.86c.29-.54.68-.96,1.18-1.26.5-.3,1.08-.45,1.75-.45s1.26.15,1.77.45c.51.3.9.72,1.18,1.26.28.54.42,1.16.42,1.86s-.14,1.33-.42,1.87c-.28.54-.67.95-1.18,1.25-.51.3-1.1.45-1.77.45ZM28.79,6.27c.48,0,.9-.11,1.25-.33s.63-.53.82-.93c.19-.4.29-.88.29-1.44s-.1-1.04-.29-1.44c-.19-.4-.47-.71-.82-.92s-.77-.32-1.25-.32-.88.11-1.23.32-.63.52-.82.92c-.2.4-.3.88-.3,1.44s.1,1.04.3,1.44.47.71.82.93.76.33,1.23.33Z"/>
      <path class="cls-1" d="M34.9,7.15c-.38,0-.72-.08-1.01-.24-.29-.16-.51-.39-.66-.71-.15-.32-.23-.71-.23-1.19v-2.95h.99v2.84c0,.47.1.83.3,1.06.2.23.49.35.88.35.26,0,.49-.06.69-.19s.37-.3.49-.54c.12-.23.18-.52.18-.86v-2.66h.99v4.97h-.89l-.06-.85c-.15.3-.37.54-.67.71s-.63.26-1.01.26Z"/>
      <path class="cls-1" d="M38.59,7.03V2.05h.89l.08.94c.12-.22.26-.41.44-.57.17-.15.39-.27.63-.36.25-.09.52-.13.82-.13v1.04h-.36c-.2,0-.4.03-.58.08-.18.05-.35.14-.48.26s-.25.28-.33.48c-.08.2-.12.46-.12.76v2.48h-.99Z"/>
      <path class="cls-1" d="M4.63,18.1c-.92,0-1.73-.21-2.43-.62-.7-.42-1.24-1-1.62-1.74-.39-.75-.58-1.62-.58-2.62s.2-1.9.6-2.67c.4-.77.97-1.38,1.72-1.82s1.63-.66,2.67-.66c1.18,0,2.15.28,2.91.84.77.56,1.26,1.33,1.48,2.32h-2.32c-.14-.39-.39-.7-.74-.91s-.8-.32-1.35-.32c-.61,0-1.12.13-1.55.4-.42.27-.74.64-.96,1.12-.21.48-.32,1.05-.32,1.7s.11,1.24.33,1.71c.22.47.53.82.94,1.06.41.24.89.36,1.46.36.8,0,1.41-.21,1.83-.63.42-.42.67-.95.76-1.58h-2.3v-1.57h4.4v5.47h-1.93l-.17-1.13c-.2.28-.43.52-.69.71s-.57.34-.92.44c-.35.1-.75.15-1.21.15Z"/>
      <path class="cls-1" d="M11.01,17.94v-7.06h1.86l.18,1.29c.19-.3.41-.56.66-.77.25-.21.54-.38.87-.5.33-.12.69-.18,1.09-.18v2.23h-.71c-.28,0-.53.03-.76.09-.22.06-.42.16-.59.3-.17.14-.29.33-.38.57-.08.24-.13.53-.13.89v3.15h-2.1Z"/>
      <path class="cls-1" d="M19.91,18.1c-.73,0-1.37-.15-1.91-.46-.55-.3-.97-.73-1.28-1.27s-.46-1.17-.46-1.88.15-1.38.45-1.95c.3-.57.73-1.02,1.28-1.34.56-.33,1.2-.49,1.93-.49s1.33.15,1.86.46c.53.3.95.72,1.25,1.25.3.53.45,1.14.45,1.83,0,.09,0,.2,0,.32,0,.12-.01.24-.02.36h-5.7v-1.23h3.61c-.03-.38-.17-.7-.43-.94-.26-.24-.59-.36-.99-.36-.31,0-.58.07-.83.21s-.43.35-.57.64c-.14.28-.2.64-.2,1.07v.41c0,.33.06.62.18.88.12.26.3.46.55.6.24.14.52.21.83.21s.58-.06.78-.19c.2-.13.36-.28.47-.47h2.14c-.13.43-.35.83-.67,1.19-.32.36-.7.65-1.16.86-.45.21-.96.32-1.53.32Z"/>
      <path class="cls-1" d="M27.97,18.1c-.73,0-1.37-.15-1.91-.46-.55-.3-.97-.73-1.28-1.27s-.46-1.17-.46-1.88.15-1.38.45-1.95c.3-.57.73-1.02,1.28-1.34.56-.33,1.2-.49,1.93-.49s1.33.15,1.86.46c.53.3.95.72,1.25,1.25.3.53.45,1.14.45,1.83,0,.09,0,.2,0,.32,0,.12-.01.24-.02.36h-5.7v-1.23h3.61c-.03-.38-.17-.7-.43-.94-.26-.24-.59-.36-.99-.36-.31,0-.58.07-.83.21s-.43.35-.57.64c-.14.28-.2.64-.2,1.07v.41c0,.33.06.62.18.88.12.26.3.46.55.6.24.14.52.21.83.21s.58-.06.78-.19c.2-.13.36-.28.47-.47h2.14c-.13.43-.35.83-.67,1.19-.32.36-.7.65-1.16.86-.45.21-.96.32-1.53.32Z"/>
      <path class="cls-1" d="M32.65,17.94v-7.06h1.83l.15,1.12c.21-.38.51-.69.9-.93.4-.24.88-.36,1.44-.36.59,0,1.08.13,1.48.38.4.25.71.61.92,1.09.21.47.32,1.05.32,1.74v4.02h-2.1v-3.84c0-.52-.11-.92-.32-1.2-.21-.28-.56-.42-1.02-.42-.3,0-.56.07-.78.2-.22.14-.4.33-.53.57s-.19.55-.19.92v3.77h-2.1Z"/>
      <path class="cls-1" d="M42.27,17.94l-2.09-7.06h2.07l1.32,5.64h-.38l1.5-5.64h2.31l1.51,5.63h-.39s1.32-5.63,1.32-5.63h2.06l-2.06,7.06h-2.18l-1.64-5.78h.45l-1.61,5.78h-2.18Z"/>
      <path class="cls-1" d="M54.35,18.1c-.58,0-1.06-.1-1.45-.29-.39-.19-.67-.45-.85-.76-.18-.32-.27-.67-.27-1.06s.11-.78.32-1.11c.21-.33.54-.59.98-.78.44-.19,1.02-.28,1.72-.28h1.69c0-.32-.04-.58-.12-.79-.08-.21-.21-.37-.39-.47-.18-.1-.42-.15-.73-.15-.33,0-.6.07-.83.2-.22.14-.36.34-.42.62h-2.02c.05-.5.21-.94.49-1.32.28-.37.66-.67,1.14-.88.48-.21,1.03-.32,1.65-.32.67,0,1.26.11,1.75.32.49.21.88.53,1.16.96.28.42.41.95.41,1.58v4.37h-1.75l-.25-1.02c-.1.18-.22.34-.36.48-.14.14-.3.27-.49.38s-.39.19-.62.25c-.22.06-.48.08-.76.08ZM54.88,16.51c.21,0,.41-.04.57-.11.17-.07.32-.18.44-.31.13-.13.23-.28.31-.46.08-.17.14-.37.18-.58h-1.36c-.23,0-.43.03-.59.09-.16.06-.27.15-.34.27s-.11.25-.11.39c0,.16.04.29.12.39.08.1.19.18.32.24.14.06.29.08.46.08Z"/>
      <path class="cls-1" d="M60.47,21.02l1.71-3.86h-.42l-2.86-6.27h2.28l1.95,4.28,1.62-4.28h2.24l-4.3,10.14h-2.23Z"/>
    </g>
  </g>
</svg>