<?xml version="1.0" encoding="UTF-8"?>
<svg id="Layer_2" xmlns="http://www.w3.org/2000/svg" viewBox="0 0 66.99 68.43">
  <defs>
    <style>
      .cls-1 {
        fill: #212121;
      }

      .cls-2 {
        fill: #007acc;
      }

      .cls-3 {
        fill: #385c38;
      }
    </style>
  </defs>
  <g id="Layer_1-2" data-name="Layer_1">
    <g>
      <g>
        <path class="cls-1" d="M28.79,54.56c-.66,0-1.25-.15-1.75-.45-.5-.3-.89-.72-1.18-1.25-.29-.54-.43-1.16-.43-1.87s.14-1.32.43-1.86c.29-.54.68-.96,1.18-1.26.5-.3,1.08-.45,1.75-.45s1.26.15,1.77.45c.51.3.9.72,1.18,1.26.28.54.42,1.16.42,1.86s-.14,1.33-.42,1.87c-.28.54-.67.95-1.18,1.25-.51.3-1.1.45-1.77.45ZM28.79,53.68c.48,0,.9-.11,1.25-.33s.63-.53.82-.93c.19-.4.29-.88.29-1.44s-.1-1.04-.29-1.44c-.19-.4-.47-.71-.82-.92s-.77-.32-1.25-.32-.88.11-1.23.32-.63.52-.82.92c-.2.4-.3.88-.3,1.44s.1,1.04.3,1.44.47.71.82.93.76.33,1.23.33Z"/>
        <path class="cls-1" d="M34.9,54.56c-.38,0-.72-.08-1.01-.24-.29-.16-.51-.39-.66-.71-.15-.32-.23-.71-.23-1.19v-2.95h.99v2.84c0,.47.1.83.3,1.06.2.23.49.35.88.35.26,0,.49-.06.69-.19s.37-.3.49-.54c.12-.23.18-.52.18-.86v-2.66h.99v4.97h-.89l-.06-.85c-.15.3-.37.54-.67.71s-.63.26-1.01.26Z"/>
        <path class="cls-1" d="M38.59,54.44v-4.97h.89l.08.94c.12-.22.26-.41.44-.57.17-.15.39-.27.63-.36.25-.09.52-.13.82-.13v1.04h-.36c-.2,0-.4.03-.58.08-.18.05-.35.14-.48.26s-.25.28-.33.48c-.08.2-.12.46-.12.76v2.48h-.99Z"/>
        <path class="cls-3" d="M4.63,65.52c-.92,0-1.73-.21-2.43-.62-.7-.42-1.24-1-1.62-1.74-.39-.75-.58-1.62-.58-2.62s.2-1.9.6-2.67c.4-.77.97-1.38,1.72-1.82s1.63-.66,2.67-.66c1.18,0,2.15.28,2.91.84.77.56,1.26,1.33,1.48,2.32h-2.32c-.14-.39-.39-.7-.74-.91s-.8-.32-1.35-.32c-.61,0-1.12.13-1.55.4-.42.27-.74.64-.96,1.12-.21.48-.32,1.05-.32,1.7s.11,1.24.33,1.71c.22.47.53.82.94,1.06.41.24.89.36,1.46.36.8,0,1.41-.21,1.83-.63.42-.42.67-.95.76-1.58h-2.3v-1.57h4.4v5.47h-1.93l-.17-1.13c-.2.28-.43.52-.69.71s-.57.34-.92.44c-.35.1-.75.15-1.21.15Z"/>
        <path class="cls-3" d="M11.01,65.35v-7.06h1.86l.18,1.29c.19-.3.41-.56.66-.77.25-.21.54-.38.87-.5.33-.12.69-.18,1.09-.18v2.23h-.71c-.28,0-.53.03-.76.09-.22.06-.42.16-.59.3-.17.14-.29.33-.38.57-.08.24-.13.53-.13.89v3.15h-2.1Z"/>
        <path class="cls-3" d="M19.91,65.52c-.73,0-1.37-.15-1.91-.46-.55-.3-.97-.73-1.28-1.27s-.46-1.17-.46-1.88.15-1.38.45-1.95c.3-.57.73-1.02,1.28-1.34.56-.33,1.2-.49,1.93-.49s1.33.15,1.86.46c.53.3.95.72,1.25,1.25.3.53.45,1.14.45,1.83,0,.09,0,.2,0,.32,0,.12-.01.24-.02.36h-5.7v-1.23h3.61c-.03-.38-.17-.7-.43-.94-.26-.24-.59-.36-.99-.36-.31,0-.58.07-.83.21s-.43.35-.57.64c-.14.28-.2.64-.2,1.07v.41c0,.33.06.62.18.88.12.26.3.46.55.6.24.14.52.21.83.21s.58-.06.78-.19c.2-.13.36-.28.47-.47h2.14c-.13.43-.35.83-.67,1.19-.32.36-.7.65-1.16.86-.45.21-.96.32-1.53.32Z"/>
        <path class="cls-3" d="M27.97,65.52c-.73,0-1.37-.15-1.91-.46-.55-.3-.97-.73-1.28-1.27s-.46-1.17-.46-1.88.15-1.38.45-1.95c.3-.57.73-1.02,1.28-1.34.56-.33,1.2-.49,1.93-.49s1.33.15,1.86.46c.53.3.95.72,1.25,1.25.3.53.45,1.14.45,1.83,0,.09,0,.2,0,.32,0,.12-.01.24-.02.36h-5.7v-1.23h3.61c-.03-.38-.17-.7-.43-.94-.26-.24-.59-.36-.99-.36-.31,0-.58.07-.83.21s-.43.35-.57.64c-.14.28-.2.64-.2,1.07v.41c0,.33.06.62.18.88.12.26.3.46.55.6.24.14.52.21.83.21s.58-.06.78-.19c.2-.13.36-.28.47-.47h2.14c-.13.43-.35.83-.67,1.19-.32.36-.7.65-1.16.86-.45.21-.96.32-1.53.32Z"/>
        <path class="cls-3" d="M32.65,65.35v-7.06h1.83l.15,1.12c.21-.38.51-.69.9-.93.4-.24.88-.36,1.44-.36.59,0,1.08.13,1.48.38.4.25.71.61.92,1.09.21.47.32,1.05.32,1.74v4.02h-2.1v-3.84c0-.52-.11-.92-.32-1.2-.21-.28-.56-.42-1.02-.42-.3,0-.56.07-.78.2-.22.14-.4.33-.53.57s-.19.55-.19.92v3.77h-2.1Z"/>
        <path class="cls-3" d="M42.27,65.35l-2.09-7.06h2.07l1.32,5.64h-.38l1.5-5.64h2.31l1.51,5.63h-.39s1.32-5.63,1.32-5.63h2.06l-2.06,7.06h-2.18l-1.64-5.78h.45l-1.61,5.78h-2.18Z"/>
        <path class="cls-3" d="M54.35,65.52c-.58,0-1.06-.1-1.45-.29-.39-.19-.67-.45-.85-.76-.18-.32-.27-.67-.27-1.06s.11-.78.32-1.11c.21-.33.54-.59.98-.78.44-.19,1.02-.28,1.72-.28h1.69c0-.32-.04-.58-.12-.79-.08-.21-.21-.37-.39-.47-.18-.1-.42-.15-.73-.15-.33,0-.6.07-.83.2-.22.14-.36.34-.42.62h-2.02c.05-.5.21-.94.49-1.32.28-.37.66-.67,1.14-.88.48-.21,1.03-.32,1.65-.32.67,0,1.26.11,1.75.32.49.21.88.53,1.16.96.28.42.41.95.41,1.58v4.37h-1.75l-.25-1.02c-.1.18-.22.34-.36.48-.14.14-.3.27-.49.38s-.39.19-.62.25c-.22.06-.48.08-.76.08ZM54.88,63.92c.21,0,.41-.04.57-.11.17-.07.32-.18.44-.31.13-.13.23-.28.31-.46.08-.17.14-.37.18-.58h-1.36c-.23,0-.43.03-.59.09-.16.06-.27.15-.34.27s-.11.25-.11.39c0,.16.04.29.12.39.08.1.19.18.32.24.14.06.29.08.46.08Z"/>
        <path class="cls-3" d="M60.47,68.43l1.71-3.86h-.42l-2.86-6.27h2.28l1.95,4.28,1.62-4.28h2.24l-4.3,10.14h-2.23Z"/>
      </g>
      <g>
        <g>
          <path class="cls-3" d="M51.27,25.35c-.38-.22-.73-.47-1.06-.75-.43-.37-1.01-.49-1.54-.3h-.02c-.46.17-.82.54-.96,1.01-.56,1.87-1.46,3.62-1.98,4.55-.06.13-.12.25-.2.37-.76,1.22-2.36,3.59-4.56,5.8l-.04.04c-.07.07-1.7,1.61-3.91,2.94-2.21,1.33-4.74,2.03-7.33,2.03h-.02s-.1,0-.15,0c-.34,0-.41.49-.08.58.48.12.97.23,1.47.32,1.3.24,2.6.36,3.9.36,4.24,0,8.37-1.27,11.93-3.73.58-.4,1.14-.83,1.68-1.28v3.43c0,.86.69,1.55,1.55,1.55h4.38c.86,0,1.55-.69,1.55-1.55v-13.34c0-.64-.52-1.16-1.16-1.14-1.2.02-2.39-.28-3.47-.9Z"/>
          <path d="M27.86,21.79s0,0,0,0c-2.4.65-3.88,3.01-3.49,5.41-.03-.02-.06-.03-.08-.04.73,1.06,3.89,4.88,9.57,1.44-.16.04-.32.07-.49.1.38-.71.58-1.5.57-2.33l3.43-.93,6.41-1.73s0,0,0,0c.05-.01.1-.03.14-.05l3.05-.83c1.27-.34,2.35-.8,3.27-1.33.41.92,1.1,1.68,1.99,2.19,1.11.64,2.41.81,3.65.47,0,0,0,0,0,0,1.24-.34,2.27-1.13,2.91-2.25.73-1.27.85-2.78.3-4.18-.31-.79-.83-1.49-1.51-2.02-.66-.51-1.41-.83-2.2-.96.47-1.8.38-3.18.37-3.25,0-.08-.02-.15-.04-.22-.42-1.55-1.93-2.51-3.51-2.23l-12.58,2.19-1.08-2.4c-.25-.54-.85-.82-1.42-.65l-1.96.59c-.61.18-1,.8-.85,1.41.16.68.84,1.07,1.5.87l1.01-.3,4.59,10.15c-2.06.45-4.22.16-6.42-.85-1.62-.75-2.73-1.67-2.95-1.86l-1.39-1.59c.11-.07.21-.13.31-.19.12-.07.27-.17.35-.2.62-.12,1.04-.71.94-1.34-.1-.65-.7-1.09-1.35-1-.46.07-.83.3-1.19.53-.3.19-.61.38-.98.49,0,0-.01,0-.02,0-.49.13-1.36.04-1.8-.05-.64-.14-1.27.27-1.41.91-.14.64.27,1.27.91,1.41.12.03.87.18,1.73.17l1.17,1.33-1.19,3.05c-.09.02-.18.04-.27.06ZM52.25,20.04c1.04-.95,1.77-1.99,2.27-2.96,0,0,0,0,0,0,.46-.02.92.09,1.33.32.71.41,1.16,1.13,1.22,1.97.02.3-.02.61-.12.9-.27.8-.9,1.38-1.68,1.6h0c-.39.11-.81.13-1.2.02-.94-.24-1.62-.95-1.82-1.85,0,0,0,0,0,0ZM31.14,20.52c1.01.76,2.97,2.03,5.49,2.64-.04.01-.07.03-.11.05l-3.22.87c-.6-1.06-1.57-1.84-2.69-2.21l.52-1.35ZM30.97,24.83c1.2,1.52.41,3.52-1.22,3.96,0,0,0,0,0,0-.23.06-.46.09-.69.08-.22-.03-.44-.06-.66-.11-.78-.24-1.42-.86-1.64-1.71-.35-1.31.48-2.64,1.79-3,.89-.24,1.86.05,2.43.77Z"/>
          <g>
            <path d="M24.36,27.2l-.05-.5c0,.17.03.34.05.5Z"/>
            <path class="cls-2" d="M41.94,26.67s-.07,0-.11,0c-2.45.17-3.94.66-5.4,1.13-.99.32-1.87.66-3.08.89-4.44,1.56-9-1.5-9-1.5-.07-.04-.11-.06-.12-.07,0,0-.01,0-.02-.01-.09-.05-8.91-5-13.27-7.56-.65-.38-1.43-.39-2.09-.03-.68.37-1.1,1.05-1.13,1.81,0,.19-.02.38-.03.59-.11,1.66-.27,4.1,2.78,5.79-.02.44.04.97.27,1.55.51,1.32,1.69,2.41,3.51,3.25.6.96,2.38,3.4,5.4,4.54.2.08.53.17.74.23.08.02.15.05.23.08.58.22.88.31,1.65.56,1.81.59,3.69,1.2,7.39,1.2h.02c2.23,0,4.43-.61,6.34-1.76,2.06-1.24,3.58-2.69,3.58-2.69,2.07-2.08,3.58-4.32,4.3-5.47.06-.09.1-.19.12-.29.13-.54.32-2.19-2.08-2.25ZM35.05,35.4c-1.04.69-2.25,1.09-3.49,1.18-.57.04-1.19.07-1.89.07-3.3,0-4.91-.52-6.62-1.08-.62-.2-1.29-.46-1.99-.64-.05-.03-.11-.05-.17-.07-1.93-.61-3.27-1.99-4.01-2.93.99.29,2.17.59,3.22.76.13.02.17-.16.05-.21-1.22-.42-1.97-.56-4.35-1.98-.02-.01-.04-.03-.07-.04,0,0-.01,0-.02-.01h0s-.07-.04-.11-.05c-2.79-1.18-2.7-2.46-2.61-2.82.99.39,3.55,1.33,5.51,1.64.12.02.17-.15.06-.2-1.15-.48-3.25-1.39-5.92-2.99-.09-.06-.18-.11-.28-.15-2.36-.99-2.29-2.04-2.17-3.77,0-.03,0-.07,0-.1,4.45,2.6,12.48,7.11,12.8,7.29.27.16,3.7,2.12,6.73,2.12.1,0,.68.07.77.05,3.57-.02,4.93-.7,6.71-1.28,1.13-.37,2.22-.72,3.8-.92-1.27,1.81-3.4,4.45-5.96,6.14Z"/>
          </g>
        </g>
        <path class="cls-3" d="M50.1,6.59c-3.05-3.23-7.03-5.41-11.49-6.23-5.55-1.03-11.18.17-15.83,3.37-4.66,3.2-7.79,8.02-8.82,13.58-.18.97.27,1.95,1.13,2.44.91.52,1.86,1.06,2.8,1.6,1.46.83,3.27-.11,3.47-1.78.06-.46.14-.93.24-1.39.72-3.21,2.62-6.06,5.29-7.98,1.05-.75,2.18-1.34,3.36-1.76.02,0,.04-.02.06-.03,1.12-.49,2.34-.87,3.11-1.09h0s1.17-.35,1.17-.35c0,0,0,0,0,0l.47-.14h0s1.53-.46,1.53-.46c1.49-.45,3.09.28,3.72,1.69,0,0,.12.28.24.56.13.29.44.46.76.41l8.48-1.49c.44-.08.62-.62.31-.94Z"/>
      </g>
    </g>
  </g>
</svg>