<?xml version="1.0" encoding="UTF-8"?>
<svg id="Layer_2" xmlns="http://www.w3.org/2000/svg" viewBox="0 0 265.99 46.53">
  <defs>
    <style>
      .cls-1 {
        fill: #3a5f3a;
      }

      .cls-2 {
        fill: #212121;
      }

      .cls-3 {
        fill: #007acc;
      }

      .cls-4 {
        fill: #385c38;
      }
    </style>
  </defs>
  <g id="Layer_1-2" data-name="Layer_1">
    <g>
      <g>
        <path class="cls-1" d="M72.31,21.88c-2.04,0-3.82-.46-5.35-1.38-1.53-.92-2.74-2.2-3.61-3.84-.88-1.64-1.31-3.55-1.31-5.73s.44-4.05,1.31-5.7c.88-1.64,2.08-2.93,3.61-3.85,1.53-.93,3.31-1.39,5.35-1.39s3.86.46,5.43,1.39c1.56.93,2.77,2.21,3.63,3.85s1.28,3.54,1.28,5.7-.43,4.08-1.28,5.73-2.06,2.92-3.63,3.84c-1.56.92-3.37,1.38-5.43,1.38ZM72.31,19.19c1.47,0,2.75-.33,3.84-1,1.09-.67,1.93-1.61,2.52-2.84s.89-2.7.89-4.41-.3-3.18-.89-4.41c-.59-1.23-1.43-2.17-2.52-2.82-1.09-.65-2.37-.98-3.84-.98s-2.68.33-3.76.98c-1.08.65-1.92,1.6-2.52,2.82-.6,1.23-.91,2.7-.91,4.41s.3,3.18.91,4.41c.61,1.23,1.45,2.18,2.52,2.84,1.08.67,2.33,1,3.76,1Z"/>
        <path class="cls-1" d="M91.11,21.88c-1.17,0-2.2-.24-3.08-.73-.89-.48-1.56-1.21-2.02-2.18-.46-.97-.69-2.19-.69-3.66V6.29h3.02v8.7c0,1.45.31,2.53.92,3.25.61.72,1.52,1.07,2.71,1.07.79,0,1.49-.19,2.12-.57.62-.38,1.12-.93,1.5-1.65.37-.71.56-1.6.56-2.64V6.29h3.02v15.23h-2.72l-.18-2.6c-.46.93-1.14,1.65-2.04,2.18-.9.52-1.93.79-3.1.79Z"/>
        <path class="cls-1" d="M102.52,21.52V6.29h2.72l.24,2.87c.36-.69.81-1.26,1.34-1.74.53-.47,1.18-.84,1.93-1.1s1.6-.39,2.52-.39v3.17h-1.09c-.63,0-1.22.08-1.78.24s-1.06.42-1.48.79c-.42.36-.76.85-1.01,1.47s-.38,1.4-.38,2.34v7.59h-3.02Z"/>
        <path class="cls-1" d="M129.6,21.88c-2,0-3.74-.45-5.24-1.34-1.5-.9-2.67-2.15-3.51-3.76-.84-1.61-1.25-3.5-1.25-5.65s.43-4.1,1.3-5.77c.87-1.67,2.1-2.98,3.7-3.93,1.6-.95,3.52-1.42,5.76-1.42,2.54,0,4.63.61,6.29,1.81,1.65,1.21,2.72,2.88,3.2,5.02h-5.02c-.3-.85-.83-1.5-1.59-1.96-.76-.46-1.73-.69-2.92-.69-1.31,0-2.42.29-3.34.86-.92.57-1.61,1.38-2.07,2.42-.46,1.04-.7,2.26-.7,3.67s.24,2.68.71,3.69,1.15,1.77,2.02,2.28c.88.51,1.93.77,3.16.77,1.73,0,3.05-.45,3.94-1.36.9-.91,1.45-2.04,1.65-3.42h-4.96v-3.38h9.49v11.82h-4.17l-.36-2.45c-.42.61-.92,1.12-1.5,1.54-.57.42-1.24.74-1.99.95-.76.21-1.63.32-2.61.32Z"/>
        <path class="cls-1" d="M143.58,21.52V6.29h4.02l.39,2.78c.4-.65.88-1.2,1.42-1.66s1.17-.83,1.87-1.09c.71-.26,1.49-.39,2.36-.39v4.81h-1.54c-.61,0-1.15.07-1.63.2-.48.13-.91.35-1.27.65-.36.3-.63.71-.82,1.22-.18.51-.27,1.15-.27,1.92v6.8h-4.53Z"/>
        <path class="cls-1" d="M163.05,21.88c-1.57,0-2.95-.33-4.13-.98s-2.1-1.57-2.77-2.75c-.66-1.18-1-2.53-1-4.07s.32-2.97.97-4.2c.64-1.23,1.57-2.2,2.76-2.9s2.58-1.06,4.16-1.06,2.87.33,4.02.98c1.15.65,2.04,1.56,2.69,2.7.64,1.15.97,2.47.97,3.96,0,.2,0,.43-.01.68-.01.25-.03.51-.05.77h-12.3v-2.66h7.8c-.06-.83-.37-1.5-.94-2.02s-1.28-.79-2.15-.79c-.66,0-1.26.15-1.78.45-.52.3-.93.76-1.22,1.37-.29.62-.44,1.39-.44,2.31v.88c0,.71.13,1.34.39,1.89.26.55.65.98,1.18,1.28.52.3,1.12.45,1.78.45s1.24-.14,1.68-.41c.43-.27.77-.61,1.01-1.01h4.62c-.28.93-.77,1.78-1.45,2.57-.69.79-1.52,1.41-2.49,1.86s-2.08.68-3.31.68Z"/>
        <path class="cls-1" d="M180.69,21.88c-1.57,0-2.95-.33-4.13-.98s-2.1-1.57-2.77-2.75c-.66-1.18-1-2.53-1-4.07s.32-2.97.97-4.2c.64-1.23,1.57-2.2,2.76-2.9s2.58-1.06,4.16-1.06,2.87.33,4.02.98c1.15.65,2.04,1.56,2.69,2.7.64,1.15.97,2.47.97,3.96,0,.2,0,.43-.01.68-.01.25-.03.51-.05.77h-12.3v-2.66h7.8c-.06-.83-.37-1.5-.94-2.02s-1.28-.79-2.15-.79c-.66,0-1.26.15-1.78.45-.52.3-.93.76-1.22,1.37-.29.62-.44,1.39-.44,2.31v.88c0,.71.13,1.34.39,1.89.26.55.65.98,1.18,1.28.52.3,1.12.45,1.78.45s1.24-.14,1.68-.41c.43-.27.77-.61,1.01-1.01h4.62c-.28.93-.77,1.78-1.45,2.57-.69.79-1.52,1.41-2.49,1.86s-2.08.68-3.31.68Z"/>
        <path class="cls-1" d="M191.04,21.52V6.29h3.96l.33,2.42c.44-.83,1.09-1.5,1.95-2.01.86-.51,1.89-.77,3.1-.77,1.27,0,2.34.27,3.2.82s1.53,1.32,1.98,2.34c.45,1.02.68,2.27.68,3.76v8.67h-4.53v-8.28c0-1.13-.23-2-.7-2.6-.46-.61-1.2-.91-2.21-.91-.65,0-1.21.15-1.69.44-.48.29-.86.71-1.13,1.24-.27.53-.41,1.19-.41,1.98v8.13h-4.53Z"/>
        <path class="cls-1" d="M212.08,21.52l-4.5-15.23h4.47l2.84,12.18h-.82l3.23-12.18h4.99l3.26,12.15-.85.03,2.84-12.18h4.44l-4.44,15.23h-4.71l-3.54-12.48h.97l-3.48,12.48h-4.71Z"/>
        <path class="cls-1" d="M238.41,21.88c-1.25,0-2.29-.21-3.13-.62s-1.45-.96-1.84-1.65c-.39-.68-.59-1.45-.59-2.3s.23-1.69.68-2.4c.45-.71,1.16-1.27,2.12-1.68.96-.4,2.19-.61,3.7-.61h3.66c0-.68-.09-1.25-.26-1.71-.17-.45-.45-.79-.83-1.01-.38-.22-.91-.33-1.57-.33-.71,0-1.3.15-1.78.44s-.79.74-.91,1.34h-4.35c.1-1.09.45-2.03,1.06-2.84.6-.81,1.43-1.44,2.46-1.9,1.04-.46,2.22-.69,3.55-.69,1.45,0,2.71.23,3.78.69,1.07.46,1.9,1.15,2.49,2.07.59.92.89,2.05.89,3.4v9.43h-3.78l-.54-2.21c-.22.38-.48.73-.79,1.04s-.65.58-1.06.82c-.4.23-.85.41-1.33.53-.48.12-1.03.18-1.63.18ZM239.56,18.44c.46,0,.88-.08,1.24-.24s.68-.38.95-.67c.27-.28.49-.61.67-.98.17-.37.3-.79.38-1.25h-2.93c-.5,0-.93.07-1.27.2-.34.13-.59.32-.74.57-.15.25-.23.53-.23.83,0,.34.09.63.26.85.17.22.4.39.69.51s.62.18.98.18Z"/>
        <path class="cls-1" d="M251.9,28.17l3.69-8.34h-.91l-6.17-13.54h4.93l4.2,9.25,3.51-9.25h4.84l-9.28,21.88h-4.81Z"/>
        <path class="cls-2" d="M68.21,42.26c-1.32,0-2.47-.29-3.44-.88-.97-.59-1.72-1.41-2.23-2.47-.52-1.06-.78-2.28-.78-3.68s.26-2.61.78-3.67c.52-1.06,1.26-1.89,2.23-2.48s2.12-.88,3.44-.88c1.58,0,2.87.38,3.88,1.15,1,.76,1.63,1.84,1.89,3.22h-2.16c-.19-.8-.59-1.44-1.19-1.92-.6-.48-1.41-.72-2.45-.72-.92,0-1.71.21-2.37.64-.66.43-1.17,1.04-1.53,1.83-.36.79-.54,1.74-.54,2.84s.18,2.05.54,2.85.87,1.41,1.53,1.83c.66.42,1.45.63,2.37.63,1.04,0,1.85-.23,2.45-.69s.99-1.08,1.19-1.88h2.16c-.26,1.35-.89,2.4-1.89,3.16-1,.76-2.3,1.14-3.88,1.14Z"/>
        <path class="cls-2" d="M77.1,46.3l2.39-5.36h-.56l-3.87-8.7h2.12l3.05,7.11,3.09-7.11h2.04l-6.22,14.07h-2.04Z"/>
        <path class="cls-2" d="M90.65,42.26c-.93,0-1.77-.21-2.52-.64-.75-.43-1.32-1.03-1.74-1.81-.41-.78-.62-1.66-.62-2.64,0-1.04.21-1.94.62-2.71.41-.77.99-1.37,1.74-1.81.74-.43,1.58-.65,2.52-.65,1.2,0,2.21.31,3,.93.8.62,1.3,1.46,1.52,2.51h-2.02c-.13-.56-.42-.99-.88-1.3s-1.01-.47-1.64-.47c-.52,0-1,.13-1.44.39s-.79.64-1.05,1.16c-.26.51-.39,1.15-.39,1.91,0,.56.07,1.06.22,1.5.15.44.35.8.61,1.09.26.29.57.51.92.66.36.15.73.23,1.12.23.41,0,.8-.07,1.16-.21.36-.14.65-.35.88-.61s.39-.59.49-.96h2.02c-.22,1.02-.73,1.85-1.53,2.49s-1.8.95-2.99.95Z"/>
        <path class="cls-2" d="M96.94,42.03v-13.99h1.94v13.99h-1.94Z"/>
        <path class="cls-2" d="M102.17,30.39c-.38,0-.68-.12-.92-.35s-.36-.53-.36-.89.12-.64.36-.86.55-.34.92-.34.67.11.91.34c.25.23.37.52.37.86s-.12.66-.37.89c-.25.23-.55.35-.91.35ZM101.2,42.03v-9.79h1.94v9.79h-1.94Z"/>
        <path class="cls-2" d="M105.47,42.03v-9.79h1.75l.12,1.67c.31-.6.75-1.06,1.31-1.4.56-.34,1.22-.5,1.97-.5.79,0,1.46.15,2.02.47s.99.78,1.29,1.41c.3.63.46,1.41.46,2.36v5.79h-1.94v-5.6c0-.91-.2-1.6-.6-2.07-.4-.47-.98-.71-1.75-.71-.5,0-.96.12-1.36.37-.4.25-.72.6-.96,1.07-.24.47-.36,1.04-.36,1.71v5.23h-1.94Z"/>
        <path class="cls-2" d="M120.36,46.53c-.89,0-1.68-.11-2.37-.34-.69-.23-1.22-.57-1.59-1.04-.38-.47-.56-1.04-.56-1.71,0-.35.08-.7.23-1.06.16-.36.41-.7.76-1.03.35-.33.82-.62,1.42-.86l1.09.85c-.66.26-1.1.56-1.33.9-.23.34-.34.67-.34.98,0,.4.12.73.35.99.23.26.56.45.97.58.42.13.87.19,1.38.19s.96-.07,1.33-.21.66-.34.86-.59.31-.55.31-.9c0-.44-.16-.8-.47-1.07-.31-.27-.91-.43-1.79-.49-.73-.05-1.35-.13-1.87-.22-.52-.1-.95-.21-1.3-.33s-.65-.27-.89-.43c-.24-.16-.45-.33-.62-.5v-.45l1.94-1.98,1.57.54-2.12,1.94.41-.87c.14.1.28.2.42.28.13.08.31.16.52.22.21.06.51.12.88.17.38.05.86.1,1.46.16.89.07,1.61.22,2.16.46.54.24.94.57,1.18.98.24.41.36.92.36,1.52,0,.56-.15,1.08-.46,1.58-.31.5-.78.91-1.42,1.23s-1.47.49-2.48.49ZM120.36,39.01c-.82,0-1.52-.16-2.1-.48-.58-.32-1.03-.74-1.33-1.26s-.46-1.12-.46-1.78.15-1.23.47-1.76c.31-.52.75-.95,1.32-1.26.57-.32,1.27-.48,2.1-.48s1.51.16,2.09.48c.58.32,1.01.74,1.31,1.26.3.52.44,1.11.44,1.76s-.15,1.25-.44,1.78c-.3.52-.74.95-1.31,1.26-.58.32-1.27.48-2.09.48ZM120.36,37.46c.63,0,1.14-.16,1.51-.5.37-.33.55-.81.55-1.45s-.19-1.12-.55-1.45-.87-.5-1.51-.5-1.13.17-1.53.5c-.39.33-.59.81-.59,1.45s.19,1.12.57,1.45c.38.33.9.5,1.55.5ZM121.96,33.77l-.47-1.53h4.02v1.32l-3.56.21Z"/>
        <path class="cls-2" d="M134.35,42.03l-3.69-13.6h2.08l2.76,11.33,3.15-11.33h2.18l3.07,11.37,2.8-11.37h2.08l-3.75,13.6h-2.27l-3.05-10.82-3.13,10.82h-2.21Z"/>
        <path class="cls-2" d="M151.26,30.39c-.38,0-.68-.12-.92-.35-.24-.23-.36-.53-.36-.89s.12-.64.36-.86c.24-.23.55-.34.92-.34s.67.11.91.34c.25.23.37.52.37.86s-.12.66-.37.89c-.25.23-.55.35-.91.35ZM150.29,42.03v-9.79h1.94v9.79h-1.94Z"/>
        <path class="cls-2" d="M158.45,42.03c-.62,0-1.16-.1-1.61-.29-.45-.19-.8-.52-1.05-.97-.25-.45-.37-1.07-.37-1.85v-5.05h-1.69v-1.63h1.69l.25-2.47h1.69v2.47h2.76v1.63h-2.76v5.07c0,.56.12.94.35,1.14.23.2.63.3,1.2.3h1.13v1.65h-1.59Z"/>
        <path class="cls-2" d="M161.64,42.03v-13.99h1.94v5.79c.32-.56.77-1,1.35-1.33.58-.33,1.21-.5,1.91-.5.78,0,1.44.15,2,.47.56.31.98.79,1.27,1.43.29.64.44,1.43.44,2.38v5.75h-1.92v-5.56c0-.92-.19-1.62-.57-2.1-.38-.48-.95-.72-1.72-.72-.52,0-.98.13-1.4.38-.42.25-.75.62-.99,1.09-.25.47-.37,1.05-.37,1.72v5.19h-1.94Z"/>
        <path class="cls-2" d="M177.12,42.26c-.93,0-1.77-.21-2.51-.64-.74-.43-1.31-1.03-1.73-1.8-.41-.77-.62-1.66-.62-2.67s.21-1.94.63-2.71c.42-.77,1-1.37,1.74-1.8.74-.43,1.57-.64,2.49-.64s1.76.21,2.49.64c.73.43,1.3,1.02,1.73,1.79.43.76.64,1.66.64,2.7s-.21,1.92-.64,2.69c-.43.77-1.01,1.37-1.74,1.8-.73.43-1.56.64-2.48.64ZM177.1,40.59c.52,0,.99-.13,1.43-.39.43-.26.79-.65,1.06-1.17.27-.52.41-1.15.41-1.9s-.13-1.4-.4-1.91c-.27-.51-.61-.9-1.04-1.16-.43-.26-.9-.39-1.42-.39s-1,.13-1.44.39-.79.64-1.06,1.16c-.27.51-.4,1.15-.4,1.91s.13,1.39.4,1.9c.26.52.61.91,1.04,1.17.43.26.9.39,1.42.39Z"/>
        <path class="cls-2" d="M187.4,42.26c-.75,0-1.41-.16-1.98-.47-.57-.31-1-.78-1.3-1.4-.3-.62-.45-1.41-.45-2.35v-5.81h1.94v5.59c0,.93.2,1.63.59,2.09.39.46.97.69,1.74.69.51,0,.96-.12,1.36-.37.4-.25.72-.6.96-1.06.24-.46.36-1.03.36-1.7v-5.25h1.94v9.79h-1.75l-.12-1.67c-.3.6-.74,1.06-1.31,1.4-.58.34-1.24.5-1.99.5Z"/>
        <path class="cls-2" d="M198.72,42.03c-.62,0-1.16-.1-1.61-.29-.45-.19-.8-.52-1.05-.97-.25-.45-.37-1.07-.37-1.85v-5.05h-1.69v-1.63h1.69l.25-2.47h1.69v2.47h2.76v1.63h-2.76v5.07c0,.56.12.94.35,1.14.23.2.63.3,1.2.3h1.13v1.65h-1.59Z"/>
        <path class="cls-2" d="M205.77,42.03l4.99-13.6h2.12l4.99,13.6h-2.08l-3.98-11.27-4,11.27h-2.04ZM208.02,38.66l.54-1.55h6.39l.54,1.55h-7.48Z"/>
        <path class="cls-2" d="M223.26,46.53c-.89,0-1.68-.11-2.37-.34s-1.22-.57-1.59-1.04c-.38-.47-.56-1.04-.56-1.71,0-.35.08-.7.23-1.06.16-.36.41-.7.76-1.03.35-.33.82-.62,1.42-.86l1.09.85c-.66.26-1.1.56-1.33.9-.23.34-.34.67-.34.98,0,.4.12.73.35.99.23.26.56.45.97.58.41.13.87.19,1.38.19s.96-.07,1.33-.21c.37-.14.66-.34.86-.59.21-.25.31-.55.31-.9,0-.44-.16-.8-.47-1.07s-.91-.43-1.79-.49c-.73-.05-1.35-.13-1.87-.22-.52-.1-.95-.21-1.3-.33s-.65-.27-.89-.43c-.25-.16-.45-.33-.62-.5v-.45l1.94-1.98,1.57.54-2.12,1.94.41-.87c.14.1.28.2.42.28s.31.16.52.22c.21.06.51.12.88.17.38.05.86.1,1.46.16.89.07,1.61.22,2.16.46.54.24.93.57,1.18.98.24.41.36.92.36,1.52,0,.56-.15,1.08-.46,1.58-.3.5-.78.91-1.42,1.23s-1.47.49-2.48.49ZM223.26,39.01c-.82,0-1.52-.16-2.1-.48s-1.03-.74-1.33-1.26c-.3-.52-.46-1.12-.46-1.78s.15-1.23.47-1.76c.31-.52.75-.95,1.32-1.26.57-.32,1.27-.48,2.1-.48s1.51.16,2.09.48c.58.32,1.01.74,1.31,1.26.3.52.45,1.11.45,1.76s-.15,1.25-.45,1.78c-.3.52-.74.95-1.31,1.26s-1.27.48-2.09.48ZM223.26,37.46c.63,0,1.14-.16,1.51-.5.37-.33.55-.81.55-1.45s-.18-1.12-.55-1.45c-.37-.33-.87-.5-1.51-.5s-1.13.17-1.53.5-.59.81-.59,1.45.19,1.12.57,1.45c.38.33.9.5,1.54.5ZM224.86,33.77l-.47-1.53h4.02v1.32l-3.56.21Z"/>
        <path class="cls-2" d="M233.97,42.26c-.93,0-1.76-.21-2.48-.64-.72-.43-1.28-1.02-1.69-1.79s-.61-1.66-.61-2.68.2-1.92.59-2.69c.39-.77.96-1.37,1.69-1.81.73-.43,1.58-.65,2.54-.65s1.78.21,2.47.64c.69.43,1.21.99,1.58,1.69.37.7.55,1.48.55,2.33v.43c0,.15-.01.32-.04.49h-7.97v-1.36h6.08c-.04-.8-.31-1.44-.82-1.9-.5-.47-1.13-.7-1.88-.7-.53,0-1.02.12-1.46.36-.44.24-.79.59-1.05,1.05-.26.46-.39,1.04-.39,1.74v.54c0,.73.13,1.33.39,1.83.26.49.61.87,1.04,1.13.43.26.92.39,1.45.39.62,0,1.14-.14,1.54-.41s.7-.64.88-1.11h1.94c-.17.6-.45,1.13-.85,1.6-.4.47-.89.85-1.48,1.12s-1.26.41-2.04.41Z"/>
      </g>
      <g>
        <g>
          <path class="cls-4" d="M43.62,25.35c-.38-.22-.73-.47-1.06-.75-.43-.37-1.01-.49-1.54-.3h-.02c-.46.17-.82.54-.96,1.01-.56,1.87-1.46,3.62-1.98,4.55-.06.13-.12.25-.2.37-.76,1.22-2.36,3.59-4.56,5.8l-.04.04c-.07.07-1.7,1.61-3.91,2.94-2.21,1.33-4.74,2.03-7.33,2.03h-.02s-.1,0-.15,0c-.34,0-.41.49-.08.58.48.12.97.23,1.47.32,1.3.24,2.6.36,3.9.36,4.24,0,8.37-1.27,11.93-3.73.58-.4,1.14-.83,1.68-1.28v3.43c0,.86.69,1.55,1.55,1.55h4.38c.86,0,1.55-.69,1.55-1.55v-13.34c0-.64-.52-1.16-1.16-1.14-1.2.02-2.39-.28-3.47-.9Z"/>
          <path d="M20.2,21.79s0,0,0,0c-2.4.65-3.88,3.01-3.49,5.41-.03-.02-.06-.03-.08-.04.73,1.06,3.89,4.88,9.57,1.44-.16.04-.32.07-.49.1.38-.71.58-1.5.57-2.33l3.43-.93,6.41-1.73s0,0,0,0c.05-.01.1-.03.14-.05l3.05-.83c1.27-.34,2.35-.8,3.27-1.33.41.92,1.1,1.68,1.99,2.19,1.11.64,2.41.81,3.65.47,0,0,0,0,0,0,1.24-.34,2.27-1.13,2.91-2.25.73-1.27.85-2.78.3-4.18-.31-.79-.83-1.49-1.51-2.02-.66-.51-1.41-.83-2.2-.96.47-1.8.38-3.18.37-3.25,0-.08-.02-.15-.04-.22-.42-1.55-1.93-2.51-3.51-2.23l-12.58,2.19-1.08-2.4c-.25-.54-.85-.82-1.42-.65l-1.96.59c-.61.18-1,.8-.85,1.41.16.68.84,1.07,1.5.87l1.01-.3,4.59,10.15c-2.06.45-4.22.16-6.42-.85-1.62-.75-2.73-1.67-2.95-1.86l-1.39-1.59c.11-.07.21-.13.31-.19.12-.07.27-.17.35-.2.62-.12,1.04-.71.94-1.34-.1-.65-.7-1.09-1.35-1-.46.07-.83.3-1.19.53-.3.19-.61.38-.98.49,0,0-.01,0-.02,0-.49.13-1.36.04-1.8-.05-.64-.14-1.27.27-1.41.91-.14.64.27,1.27.91,1.41.12.03.87.18,1.73.17l1.17,1.33-1.19,3.05c-.09.02-.18.04-.27.06ZM44.59,20.04c1.04-.95,1.77-1.99,2.27-2.96,0,0,0,0,0,0,.46-.02.92.09,1.33.32.71.41,1.16,1.13,1.22,1.97.02.3-.02.61-.12.9-.27.8-.9,1.38-1.68,1.6h0c-.39.11-.81.13-1.2.02-.94-.24-1.62-.95-1.82-1.85,0,0,0,0,0,0ZM23.48,20.52c1.01.76,2.97,2.03,5.49,2.64-.04.01-.07.03-.11.05l-3.22.87c-.6-1.06-1.57-1.84-2.69-2.21l.52-1.35ZM23.32,24.83c1.2,1.52.41,3.52-1.22,3.96,0,0,0,0,0,0-.23.06-.46.09-.69.08-.22-.03-.44-.06-.66-.11-.78-.24-1.42-.86-1.64-1.71-.35-1.31.48-2.64,1.79-3,.89-.24,1.86.05,2.43.77Z"/>
          <g>
            <path d="M16.7,27.2l-.05-.5c0,.17.03.34.05.5Z"/>
            <path class="cls-3" d="M34.29,26.67s-.07,0-.11,0c-2.45.17-3.94.66-5.4,1.13-.99.32-1.87.66-3.08.89-4.44,1.56-9-1.5-9-1.5-.07-.04-.11-.06-.12-.07,0,0-.01,0-.02-.01-.09-.05-8.91-5-13.27-7.56-.65-.38-1.43-.39-2.09-.03-.68.37-1.1,1.05-1.13,1.81,0,.19-.02.38-.03.59-.11,1.66-.27,4.1,2.78,5.79-.02.44.04.97.27,1.55.51,1.32,1.69,2.41,3.51,3.25.6.96,2.38,3.4,5.4,4.54.2.08.53.17.74.23.08.02.15.05.23.08.58.22.88.31,1.65.56,1.81.59,3.69,1.2,7.39,1.2h.02c2.23,0,4.43-.61,6.34-1.76,2.06-1.24,3.58-2.69,3.58-2.69,2.07-2.08,3.58-4.32,4.3-5.47.06-.09.1-.19.12-.29.13-.54.32-2.19-2.08-2.25ZM27.39,35.4c-1.04.69-2.25,1.09-3.49,1.18-.57.04-1.19.07-1.89.07-3.3,0-4.91-.52-6.62-1.08-.62-.2-1.29-.46-1.99-.64-.05-.03-.11-.05-.17-.07-1.93-.61-3.27-1.99-4.01-2.93.99.29,2.17.59,3.22.76.13.02.17-.16.05-.21-1.22-.42-1.97-.56-4.35-1.98-.02-.01-.04-.03-.07-.04,0,0-.01,0-.02-.01h0s-.07-.04-.11-.05c-2.79-1.18-2.7-2.46-2.61-2.82.99.39,3.55,1.33,5.51,1.64.12.02.17-.15.06-.2-1.15-.48-3.25-1.39-5.92-2.99-.09-.06-.18-.11-.28-.15-2.36-.99-2.29-2.04-2.17-3.77,0-.03,0-.07,0-.1,4.45,2.6,12.48,7.11,12.8,7.29.27.16,3.7,2.12,6.73,2.12.1,0,.68.07.77.05,3.57-.02,4.93-.7,6.71-1.28,1.13-.37,2.22-.72,3.8-.92-1.27,1.81-3.4,4.45-5.96,6.14Z"/>
          </g>
        </g>
        <path class="cls-4" d="M42.45,6.59c-3.05-3.23-7.03-5.41-11.49-6.23-5.55-1.03-11.18.17-15.83,3.37-4.66,3.2-7.79,8.02-8.82,13.58-.18.97.27,1.95,1.13,2.44.91.52,1.86,1.06,2.8,1.6,1.46.83,3.27-.11,3.47-1.78.06-.46.14-.93.24-1.39.72-3.21,2.62-6.06,5.29-7.98,1.05-.75,2.18-1.34,3.36-1.76.02,0,.04-.02.06-.03,1.12-.49,2.34-.87,3.11-1.09h0s1.17-.35,1.17-.35c0,0,0,0,0,0l.47-.14h0s1.53-.46,1.53-.46c1.49-.45,3.09.28,3.72,1.69,0,0,.12.28.24.56.13.29.44.46.76.41l8.48-1.49c.44-.08.62-.62.31-.94Z"/>
      </g>
    </g>
  </g>
</svg>