<?xml version="1.0" encoding="UTF-8"?>
<svg id="Layer_2" xmlns="http://www.w3.org/2000/svg" viewBox="0 0 252 144">
  <defs>
    <style>
      .cls-1 {
        fill: #2179ad;
      }

      .cls-2 {
        fill: #fff;
      }

      .cls-3 {
        fill: #2087c9;
      }
    </style>
  </defs>
  <g id="Layer_1-2" data-name="Layer_1">
    <g>
      <rect class="cls-3" x="0" y="0" width="252" height="144"/>
      <g>
        <path class="cls-1" d="M252,105.7c-4.03.25-8.4.38-13.21.38-27.4,0-40.74-4.34-54.88-8.93-5.12-1.66-10.7-3.83-16.52-5.34-.45-.22-.91-.42-1.41-.58-15.99-5.07-27.14-16.48-33.22-24.29,8.21,2.38,17.96,4.89,26.73,6.33,1.06.17,1.43-1.35.42-1.71-10.08-3.49-16.36-4.62-36.08-16.43-.18-.12-.36-.22-.54-.32-.06-.03-.11-.07-.17-.1h0c-.3-.16-.6-.31-.91-.44-23.11-9.77-22.4-20.4-21.67-23.35,8.23,3.2,29.41,11.03,45.65,13.57,1.03.16,1.44-1.28.48-1.68-9.56-3.97-26.97-11.57-49.12-24.83-.71-.49-1.48-.92-2.29-1.26-11.9-5.01-16.33-10.2-17.76-16.73h-20.82c1.29,10.99,6.41,22.89,23.04,32.1-.13,3.66.36,8.06,2.21,12.85,4.24,10.92,14.01,19.97,29.07,26.93,5,7.96,19.71,28.2,44.81,37.66,1.65.62,4.43,1.43,6.13,1.92.64.18,1.28.41,1.9.64,4.78,1.81,7.3,2.6,13.69,4.67,15.04,4.89,30.58,9.94,61.25,9.94h.18c4.37,0,8.72-.3,13.03-.85v-20.16Z"/>
        <path class="cls-1" d="M183.48,45.05c2.21,1.29,30.7,17.58,55.79,17.58.82,0,5.62.6,6.38.42,2.22-.01,4.32-.06,6.35-.13v-19.25c-30.42,2.02-57.21-15.93-57.21-15.93-.6-.33-.93-.53-.96-.54-.06-.03-.11-.07-.17-.1-.4-.22-22.3-12.52-47.99-27.11h-41.65c35.66,20.43,77.38,43.88,79.47,45.05Z"/>
      </g>
      <path class="cls-2" d="M252,101.53c-8.04,8.56-17.23,16.92-27.24,23.52-8.65,5.7-18.62,9.04-28.95,9.82-4.69.35-9.87.55-15.68.55-27.4,0-40.74-4.34-54.88-8.93-5.12-1.66-10.7-3.83-16.52-5.34-.45-.22-.91-.42-1.41-.58-15.99-5.07-27.14-16.48-33.22-24.29,8.21,2.38,17.96,4.89,26.73,6.33,1.06.17,1.43-1.35.42-1.71-10.08-3.49-16.36-4.62-36.08-16.43-.18-.12-.36-.22-.54-.32-.06-.03-.11-.07-.17-.1h0c-.3-.16-.6-.31-.91-.44-23.11-9.77-22.4-20.4-21.67-23.35,8.23,3.2,29.41,11.03,45.65,13.57,1.03.16,1.44-1.28.48-1.68-9.56-3.97-26.97-11.57-49.12-24.83-.71-.49-1.48-.92-2.29-1.26-19.53-8.23-18.95-16.91-17.99-31.28.02-.29.04-.58.06-.87,36.9,21.55,103.51,58.98,106.16,60.47,2.21,1.29,30.7,17.58,55.79,17.58.82,0,5.62.6,6.38.42,29.62-.17,40.89-5.84,55.67-10.64,3.1-1.01,6.16-2,9.34-2.94v-21.41c-5.65,1.47-10.72,3.11-15.72,4.73-8.23,2.67-15.48,5.48-25.51,7.36-36.81,12.95-74.65-12.41-74.65-12.41-.6-.33-.93-.53-.96-.54-.06-.03-.11-.07-.17-.1-.67-.37-61.08-34.31-99.24-56.44H.85c-.31.51-.59,1.04-.85,1.58v36.63c2.84,8.24,8.83,16.46,21.05,23.23-.13,3.66.36,8.06,2.21,12.85,4.24,10.92,14.01,19.97,29.07,26.93,5,7.96,19.71,28.2,44.81,37.66,1.65.62,4.43,1.43,6.13,1.92.64.18,1.28.41,1.9.64,2.77,1.05,4.79,1.76,7.23,2.57h115.91c1.53-.82,3.04-1.66,4.53-2.55,7.46-4.49,14.07-9.31,19.14-13.31v-26.61Z"/>
    </g>
  </g>
</svg>