<?xml version="1.0" encoding="UTF-8"?>
<svg xmlns="http://www.w3.org/2000/svg" version="1.1" viewBox="0 0 1300 436.451947">
  <defs>
    <style>
      .cls-1 {
        fill: #385c38;
      }

      .cls-2 {
        fill: #007acc;
      }

      .cls-3 {
        fill: #ffc550;
      }
    </style>
  </defs>
  <!-- Generator: Adobe Illustrator 28.7.9, SVG Export Plug-In . SVG Version: 1.2.0 Build 218)  -->
  <g>
    <g id="Layer_1">
      <g>
        <path class="cls-1" d="M786.010738,249.030786c-2.787213-1.61364-5.354365-3.447328-7.774847-5.501064-3.153945-2.713864-7.408087-3.594027-11.295496-2.20042h-.146698c-3.374007,1.246908-6.014494,3.960759-7.041383,7.408087-4.107443,13.715992-10.708731,26.551807-14.522805,33.373128-.440067.953512-.880162,1.833688-1.466956,2.713857-5.574399,8.948399-17.30999,26.331759-33.44645,42.541561l-.293397.29339c-.51343.51343-12.469083,11.808948-28.678878,21.564167-16.209794,9.755219-34.766721,14.889544-53.763729,14.889544h-1.246908c-2.493817,0-3.007247,3.594034-.58678,4.254162,3.520677.880162,7.114718,1.68699,10.782094,2.347118,9.535172,1.760339,19.070343,2.640515,28.605529,2.640515,31.099345,0,61.391863-9.315138,87.503589-27.358627,4.254141-2.933905,8.361612-6.087843,12.322385-9.388487v25.1582c0,6.307884,5.060969,11.368866,11.368859,11.368866h32.12622c6.307863,0,11.368859-5.060983,11.368859-11.368866v-97.845588c0-4.694237-3.814074-8.508304-8.508311-8.361619-8.801708.146698-17.530052-2.053722-25.451597-6.601274l.146698.073349Z"/>
        <path d="M614.23084,222.919089h0c-17.603401,4.767586-28.45883,22.07759-25.598282,39.680998-.220034-.146691-.440081-.220041-.58678-.29339,5.354365,7.77484,28.532193,35.793589,70.193571,10.562046-1.173559.293383-2.347118.51343-3.594027.733471,2.787213-5.207674,4.254155-11.002127,4.18082-17.089971l25.158186-6.821314,47.015771-12.689131c.366732-.073335.733464-.220034,1.026861-.366732l22.370987-6.087843c9.315138-2.493817,17.236683-5.867796,23.984641-9.755219,3.007247,6.747972,8.068216,12.322385,14.59614,16.06311,8.141579,4.694237,17.676778,5.941145,26.771855,3.447328,9.095076-2.493817,16.64989-8.288263,21.344126-16.503191,5.354365-9.315138,6.234556-20.390601,2.20042-30.659264-2.273755-5.794447-6.087829-10.928778-11.075463-14.816202-4.840935-3.740711-10.341999-6.087829-16.136459-7.041355,3.447342-13.202547,2.787213-23.324512,2.713878-23.837943,0-.58678-.146726-1.10021-.293397-1.613654-3.08061-11.368859-14.156073-18.410214-25.744994-16.356493l-92.271161,16.06311-7.921545-17.603401c-1.833688-3.960773-6.234528-6.014494-10.415348-4.7676l-14.376106,4.327533c-4.474203,1.32023-7.334752,5.867768-6.234542,10.341971,1.173559,4.987633,6.161192,7.848196,11.002127,6.38124l7.408101-2.20042,33.666497,74.447726c-15.10957,3.300644-30.952633,1.173559-47.089092-6.234542-11.882304-5.501064-20.023869-12.249036-21.637523-13.642629l-10.1953-11.662256c.806827-.51343,1.540291-.953526,2.273769-1.393607.880176-.51343,1.980386-1.246908,2.567166-1.466942,4.547552-.880176,7.628148-5.207681,6.89467-9.828568-.733478-4.7676-5.134332-7.99488-9.901918-7.334752-3.373993.51343-6.087843,2.20042-8.728358,3.887409-2.20042,1.393607-4.474189,2.787213-7.188053,3.594027h-.146698c-3.594027.953512-9.975253.293383-13.202547-.366732-4.694251-1.026875-9.315138,1.980372-10.341999,6.674623-1.026875,4.694237,1.980372,9.315124,6.674623,10.341999.880176.220048,6.381226,1.320258,12.689117,1.246908l8.58166,9.755219-8.728358,22.370987c-.660129.146698-1.320244.293397-1.980372.440095l.073335.073349ZM793.125456,210.083273c7.62812-6.96802,12.982486-14.596168,16.649862-21.710872,3.373979-.146698,6.747958.660129,9.755233,2.347118,5.207667,3.007247,8.508311,8.288263,8.948406,14.449456.14667,2.200434-.146726,4.474203-.88019,6.601288-1.980358,5.867796-6.601288,10.121951-12.322385,11.735591-2.860549.806827-5.941131.953526-8.80168.146698-6.894684-1.760339-11.882318-6.968006-13.349246-13.569279ZM638.28883,213.603951c7.408101,5.574413,21.784207,14.889537,40.267785,19.36374-.293383.073349-.51343.220048-.806827.366732l-23.617895,6.38124c-4.400854-7.774833-11.515558-13.495944-19.730486-16.209808l3.814074-9.901904h.073349ZM637.115271,245.216726c8.801708,11.148826,3.007247,25.818329-8.948392,29.045617-1.687004.440088-3.373993.660129-5.060983.58678-1.61364-.220041-3.227295-.440088-4.840935-.80682-5.721111-1.760339-10.415348-6.307891-12.029002-12.542426-2.567152-9.608528,3.520691-19.363747,13.129212-22.004262,6.527924-1.760339,13.642643.366746,17.823449,5.647762l-.073349.073349Z"/>
        <path d="M588.559223,262.60008l-.366732-3.667376c0,1.246908.220034,2.493817.366732,3.667376"/>
        <path class="cls-2" d="M717.577519,258.71267h-.806827c-17.970147,1.246894-28.898925,4.840935-39.60767,8.288263-7.261402,2.347118-13.715978,4.840935-22.591034,6.527924-32.566301,11.442216-66.012751-11.002127-66.012751-11.002127-.513444-.293383-.806827-.440081-.88019-.51343,0,0-.073335,0-.146684-.073349-.660129-.366732-65.352636-36.673758-97.332158-55.450718-4.767586-2.787199-10.488697-2.860549-15.329632-.220048-4.987633,2.713864-8.06823,7.701498-8.288263,13.275911,0,1.393593-.146698,2.787199-.220048,4.327505-.806813,12.175687-1.980386,30.07247,20.390615,42.468205-.146698,3.227295.293383,7.114711,1.980386,11.368866,3.740711,9.68187,12.39572,17.67675,25.744966,23.837943,4.400854,7.041362,17.456717,24.938153,39.607663,33.299772,1.466956.58678,3.887423,1.246908,5.427722,1.686993.58678.146695,1.10021.366735,1.68699.58678,4.254155,1.613644,6.454582,2.273773,12.102337,4.10746,13.275911,4.327503,27.065237,8.801702,54.20381,8.801702h.146698c16.356493,0,32.492952-4.474199,46.502326-12.909163,15.109598-9.095094,26.25841-19.730482,26.25841-19.730482,15.182948-15.256283,26.25841-31.686132,31.53944-40.121093.440095-.660129.733464-1.3936.880162-2.127071.953526-3.960773,2.347118-16.06311-15.256269-16.503191v.073349ZM666.967722,322.745045c-7.628148,5.060979-16.503191,7.99488-25.598282,8.655006-4.180806.29339-8.728358.513434-13.86269.513434-24.204675,0-36.013629-3.814071-48.556048-7.921531-4.547545-1.466952-9.461829-3.373986-14.596154-4.69424-.366739-.220044-.806827-.366739-1.246908-.513434-14.156073-4.474199-23.984641-14.596158-29.412356-21.490821,7.261402,2.127078,15.916412,4.327498,23.617902,5.574406.953519.146698,1.246908-1.173559.366739-1.540291-8.948406-3.080596-14.44947-4.107464-31.906172-14.522812-.146698-.073342-.293397-.220041-.51343-.29339,0,0-.073349,0-.146698-.073349,0,0-.51343-.293383-.806827-.366732-20.46395-8.655009-19.803821-18.043496-19.143692-20.684004,7.261402,2.860556,26.038363,9.755226,40.414483,12.028995.880162.146698,1.246908-1.10021.440081-1.466956-8.434962-3.520677-23.837943-10.1953-43.42173-21.930906-.660129-.440081-1.320258-.806813-2.053735-1.10021-17.310004-7.261402-16.796574-14.9629-15.916412-27.652017v-.733478c32.63965,19.070357,91.537704,52.150089,93.884822,53.470346,1.980386,1.173559,27.13858,15.549673,49.362882,15.549673.733478,0,4.987633.51343,5.647762.366739,26.185061-.146698,36.160328-5.134332,49.216177-9.388487,8.288277-2.71385,16.283144-5.281016,27.872065-6.747972-9.315138,13.275904-24.938167,32.63965-43.715127,45.035381l.073349-.073349Z"/>
        <path class="cls-1" d="M777.429064,111.430858c-22.370987-23.691244-51.563295-39.681005-84.276295-45.695499-40.70788-7.554813-82.002525,1.246894-116.109118,24.718105-34.179941,23.471211-57.137722,58.824711-64.692507,99.605941-1.320258,7.11469,1.980386,14.302757,8.288277,17.896784,6.674623,3.814074,13.642615,7.774847,20.537299,11.735605,10.708731,6.087843,23.984627-.806827,25.451583-13.055863.440081-3.373979,1.026861-6.821321,1.760339-10.1953,5.281016-23.544546,19.217055-44.448591,38.800843-58.531315,7.701484-5.501064,15.989747-9.828568,24.644756-12.909179.146698,0,.293397-.14667.440081-.220034,8.214928-3.594013,17.16332-6.381226,22.811082-7.99488l8.58166-2.567152,3.447328-1.026861,11.222175-3.374007c10.928778-3.300616,22.66437,2.053749,27.285271,12.395748,0,0,.880162,2.053722,1.760353,4.107443.953498,2.127085,3.227281,3.374007,5.574399,3.007247l62.19869-10.928764c3.227309-.586794,4.547566-4.547538,2.273783-6.894684v-.073335Z"/>
      </g>
      <path class="cls-3" d="M1284,15.999982v404.452026H16V15.999982h1268M1300-.000018H0v436.452026h1300V-.000018h0Z"/>
    </g>
  </g>
</svg>