<?xml version="1.0" encoding="UTF-8"?>
<svg xmlns="http://www.w3.org/2000/svg" version="1.1" viewBox="0 0 1300 436.451947">
  <defs>
    <style>
      .cls-1 {
        fill: #385c38;
      }

      .cls-2 {
        fill: #212121;
      }

      .cls-3 {
        fill: none;
        opacity: .56;
        stroke: #ff6969;
        stroke-miterlimit: 10;
        stroke-width: 16px;
      }

      .cls-4 {
        fill: #007acc;
      }
    </style>
  </defs>
  <!-- Generator: Adobe Illustrator 28.7.9, SVG Export Plug-In . SVG Version: 1.2.0 Build 218)  -->
  <g>
    <g id="Layer_1">
      <g>
        <g>
          <path class="cls-2" d="M410.582685,231.803913c-7.31622,0-13.745179-1.644823-19.286876-4.943312-5.541698-3.295541-9.889572-7.893971-13.040676-13.801185-3.151104-5.901318-4.725182-12.766538-4.725182-20.589765,0-7.752481,1.574078-14.579381,4.725182-20.483647s7.498978-10.52333,13.040676-13.854244c5.541698-3.333862,11.970656-4.999319,19.286876-4.999319,7.460658,0,13.980996,1.665457,19.561013,4.999319,5.57707,3.330914,9.904311,7.949978,12.984669,13.854244,3.077411,5.904266,4.619064,12.731166,4.619064,20.483647,0,7.823226-1.541653,14.688446-4.619064,20.589765-3.080359,5.907214-7.407599,10.505644-12.984669,13.801185-5.580018,3.298489-12.100356,4.943312-19.561013,4.943312ZM410.691751,222.132471c5.217449,0,9.780507-1.193823,13.69212-3.584417,3.911613-2.390594,6.935965-5.795201,9.073056-10.21382s3.20711-9.706814,3.20711-15.864583-1.070019-11.445964-3.20711-15.867531c-2.137091-4.415672-5.161443-7.802592-9.073056-10.157814s-8.474671-3.531358-13.69212-3.531358c-5.214502,0-9.780507,1.176137-13.69212,3.531358-3.911613,2.355221-6.953651,5.742142-9.126115,10.157814-2.175411,4.421567-3.260169,9.709762-3.260169,15.867531s1.084758,11.445964,3.260169,15.864583c2.172463,4.41862,5.214502,7.823226,9.126115,10.21382s8.477618,3.584417,13.69212,3.584417Z"/>
          <path class="cls-2" d="M480.346173,231.803913c-4.277129,0-7.988298-.869575-11.139402-2.605777-3.151104-1.73915-5.580018-4.347874-7.280847-7.826174-1.703777-3.475352-2.552718-7.858599-2.552718-13.146793v-32.489676h10.865265v31.292905c0,5.146704,1.123078,9.019997,3.369234,11.628722,2.243208,2.608725,5.468005,3.911613,9.671441,3.911613,2.823908,0,5.379573-.686817,7.661102-2.063398,2.281529-1.376581,4.073737-3.369234,5.379573-5.977959,1.302888-2.608725,1.954333-5.795201,1.954333-9.562376v-29.229507h10.868212v54.765532h-9.671441l-.76051-9.344245c-1.668405,3.330914-4.094371,5.939639-7.280847,7.823226-3.189424,1.883588-6.882906,2.823908-11.083395,2.823908Z"/>
          <path class="cls-2" d="M524.02831,230.501024v-54.765532h9.780507l.975693,10.322886c1.232143-2.464287,2.826855-4.545371,4.781188-6.249148,1.95728-1.70083,4.256495-3.024352,6.900593-3.96762,2.644097-.94032,5.668449-1.411954,9.073056-1.411954v11.519657h-3.911613c-2.246156,0-4.383247.271189-6.411272.813568-2.028026.545327-3.820234,1.46796-5.379573,2.770849-1.556392,1.305836-2.770849,3.080359-3.637476,5.326515-.869575,2.246156-1.305836,5.034691-1.305836,8.365605v27.275174h-10.865265Z"/>
        </g>
        <g>
          <path class="cls-1" d="M930.055457,163.094408c-1.994442-1.15467-3.831415-2.4668-5.563436-3.936388-2.256864-1.941956-5.300994-2.571772-8.082702-1.574551h-.104973c-2.414333.892248-4.303783,2.834194-5.038592,5.300994-2.939157,9.814732-7.662831,18.999638-10.392062,23.880761-.314898.682303-.629816,1.312129-1.049708,1.941951-3.988864,6.403193-12.386484,18.842179-23.933227,30.441402l-.209946.20994c-.367395.367395-8.922484,8.450111-20.521703,15.430639-11.599219,6.980528-24.877972,10.654489-38.471633,10.654489h-.892248c-1.784497,0-2.151891,2.571777-.419881,3.044145,2.519286.629816,5.091068,1.207157,7.715327,1.679524,6.823069,1.259643,13.646137,1.889469,20.469216,1.889469,22.253713,0,43.930086-6.66562,62.614815-19.576973,3.04413-2.09941,5.983307-4.356269,8.817511-6.718106v18.002417c0,4.513723,3.62147,8.135203,8.135198,8.135203h22.988512c4.513708,0,8.135198-3.62148,8.135198-8.135203v-70.015224c0-3.359048-2.729231-6.088274-6.088279-5.983312-6.298225.104973-12.543954-1.469578-18.212362-4.723664l.104973.052486Z"/>
          <path d="M807.135168,144.409699h0c-12.59644,3.411534-20.364243,15.798029-18.317325,28.394474-.157449-.104968-.314908-.157454-.419881-.20994,3.831415,5.563431,20.41674,25.612766,50.228311,7.557868-.839762.209935-1.679524.367395-2.571772.524849,1.994442-3.726448,3.04414-7.872776,2.991663-12.229045l18.002407-4.881118,33.643006-9.079943c.262422-.052476.524844-.157449.734789-.262422l16.007974-4.356269c6.66562-1.784497,12.334028-4.19881,17.162655-6.980528,2.151891,4.828636,5.773361,8.817511,10.444539,11.494256,5.825858,3.359048,12.648946,4.251296,19.157097,2.4668,6.50815-1.784497,11.914137-5.93082,15.273185-11.809164,3.831415-6.66562,4.461252-14.590872,1.574551-21.938805-1.627028-4.146324-4.356259-7.82029-7.925253-10.602008-3.464021-2.676735-7.400409-4.356259-11.546742-5.038572,2.46681-9.447327,1.994442-16.690287,1.941966-17.057682,0-.419881-.104993-.787276-.209946-1.15468-2.204388-8.135198-10.12964-13.17377-18.422308-11.704192l-66.02634,11.494256-5.668408-12.59644c-1.312129-2.834204-4.461232-4.303783-7.452895-3.411544l-10.287089,3.096646c-3.201599.944715-5.248517,4.19879-4.461242,7.400389.839762,3.568993,4.408755,5.615922,7.872776,4.566215l5.301004-1.574551,24.090686,53.27245c-10.811933,2.361837-22.14873.839762-33.695473-4.461242-8.502603-3.936388-14.32845-8.765025-15.483131-9.762236l-7.295436-8.345144c.57734-.367395,1.102184-.682313,1.627038-.997221.629827-.367395,1.417102-.892248,1.836983-1.049697,3.254085-.629827,5.458463-3.726453,4.933609-7.033014-.524854-3.411544-3.673966-5.720885-7.085501-5.248517-2.414323.367395-4.356269,1.574551-6.245739,2.781708-1.574551.997221-3.201589,1.994442-5.143545,2.571772h-.104973c-2.571772.682303-7.137977.209935-9.447327-.262422-3.359058-.734799-6.66562,1.417092-7.400409,4.77615-.734799,3.359048,1.417092,6.66561,4.77615,7.400409.629827.157459,4.566205.944735,9.079933.892248l6.140766,6.980528-6.245739,16.007974c-.472367.104973-.944725.209946-1.417092.314918l.052476.052486ZM935.146526,135.224793c5.458443-4.986096,9.289858-10.444559,11.914117-15.535617,2.414313-.104973,4.828626.472367,6.980538,1.679524,3.726443,2.151891,6.088279,5.93082,6.403198,10.339576.104953,1.574561-.104993,3.201599-.629837,4.723674-1.417082,4.19881-4.723674,7.24295-8.817511,8.39762-2.046919.57734-4.251286.682313-6.298205.104973-4.933619-1.259643-8.502613-4.986086-9.5523-9.709749ZM824.350308,137.744079c5.301004,3.988874,15.588093,10.654484,28.81436,13.856083-.209935.052486-.367395.157459-.57734.262422l-16.900223,4.566215c-3.149112-5.563426-8.240171-9.657273-14.118515-11.599229l2.729231-7.085491h.052486ZM823.510546,160.365186c6.298225,7.977749,2.151891,18.474784-6.403188,20.784129-1.207167.314913-2.414323.472367-3.62148.419881-1.15467-.157454-2.30935-.314913-3.464021-.577335-4.093847-1.259643-7.452895-4.513728-8.607575-8.974965-1.836973-6.87556,2.519296-13.856088,9.394851-15.745557,4.671177-1.259643,9.762246.262432,12.753899,4.041361l-.052486.052486Z"/>
          <path d="M788.765366,172.804167l-.262422-2.624259c0,.892248.157449,1.784497.262422,2.624259"/>
          <path class="cls-4" d="M881.0868,170.022459h-.57734c-12.858872.892238-20.679162,3.464021-28.342002,5.93082-5.196031,1.679524-9.814722,3.464021-16.165433,4.671177-23.30342,8.187689-47.236647-7.872776-47.236647-7.872776-.367405-.209935-.57734-.314908-.629837-.367395,0,0-.052476,0-.104963-.052486-.472367-.262422-46.76429-26.242587-69.647829-39.678789-3.411534-1.994432-7.505382-2.046919-10.969402-.157459-3.568993,1.941956-5.773371,5.510949-5.93082,9.499824,0,.997211-.104973,1.994432-.157459,3.096626-.57733,8.712538-1.417102,21.518914,14.590882,30.388911-.104973,2.30935.209935,5.091063,1.417102,8.135203,2.676735,6.928041,8.869987,12.648926,18.422288,17.057682,3.149112,5.038577,12.491477,17.844957,28.341997,23.828269,1.049708.419881,2.781718.892248,3.883907,1.207159.419881.10497.787276.262424,1.207157.419881,3.04414,1.154673,4.618696,1.62704,8.660052,2.939169,9.499824,3.096625,19.367032,6.298221,38.786541,6.298221h.104973c11.704192,0,23.250934-3.201596,33.275602-9.237391,10.811953-6.508163,18.789692-14.118512,18.789692-14.118512,10.86444-10.916916,18.789692-22.673599,22.568631-28.709392.314918-.472367.524844-.997216.629816-1.522065.682313-2.834204,1.679524-11.494256-10.916906-11.809164v.052486ZM844.872021,215.842012c-5.458463,3.621477-11.809164,5.720885-18.317325,6.19325-2.991653.20994-6.245739.367397-9.919705.367397-17.320104,0-25.77022-2.729229-34.74518-5.668398-3.25408-1.049705-6.770587-2.414318-10.444549-3.35905-.262427-.157457-.57734-.262427-.892248-.367397-10.12964-3.201596-17.162655-10.444551-21.046556-15.378155,5.196031,1.52207,11.389283,3.096621,16.900228,3.988869.682308.104973.892248-.839762.262427-1.102184-6.403198-2.204378-10.339586-2.939172-22.831053-10.392067-.104973-.052481-.209946-.157454-.367395-.20994,0,0-.052486,0-.104973-.052486,0,0-.367395-.209935-.57734-.262422-14.643359-6.193252-14.170991-12.911358-13.698624-14.800823,5.196031,2.046924,18.632233,6.980533,28.919333,8.60757.629816.104973.892248-.787276.314908-1.049708-6.035793-2.519286-17.057682-7.295436-31.071224-15.693066-.472367-.314908-.944735-.57733-1.469588-.787276-12.386494-5.196031-12.0191-10.70698-11.389283-19.786913v-.524854c23.355907,13.646147,65.501501,37.316963,67.181025,38.261697,1.417102.839762,19.419514,11.126856,35.322525,11.126856.524854,0,3.568993.367395,4.041361.262427,18.737206-.104973,25.875193-3.673966,35.217548-6.718106,5.93083-1.941946,11.651705-3.778929,19.944372-4.828636-6.66562,9.499819-17.844967,23.355907-31.281169,32.225902l.052486-.052486Z"/>
          <path class="cls-1" d="M923.914682,64.632229c-16.007974-16.952709-36.897072-28.394479-60.305465-32.698262-29.129278-5.405987-58.678427.892238-83.084031,17.687498-24.458091,16.79526-40.885956,42.093113-46.291923,71.274877-.944735,5.091048,1.417102,10.234603,5.93083,12.806375,4.77615,2.729231,9.762226,5.563436,14.695845,8.39763,7.662831,4.356269,17.162645-.57734,18.212352-9.342365.314908-2.414313.734789-4.881123,1.259643-7.295436,3.778929-16.847736,13.75112-31.806013,27.764662-41.883167,5.510939-3.936388,11.44176-7.033014,17.635012-9.237402.104973,0,.209946-.104953.314908-.157449,5.878344-2.571762,12.281532-4.566205,16.322893-5.720885l6.140766-1.836973,2.4668-.734789,8.030235-2.414333c7.82029-2.361817,16.21791,1.469599,19.524481,8.870007,0,0,.629816,1.469578,1.259653,2.939157.682293,1.522075,2.30934,2.414333,3.988864,2.151891l44.507426-7.82028c2.309361-.419891,3.254095-3.254075,1.627048-4.933619v-.052476Z"/>
        </g>
        <g>
          <path class="cls-1" d="M425.582524,374.089587c-10.357768,0-19.393827-2.299133-27.111094-6.909069-7.714349-4.609936-13.698513-11.058012-17.943739-19.344226-4.248144-8.286215-6.369298-17.967081-6.369298-29.054269,0-11.18639,2.199932-21.071493,6.602713-29.672818,4.402781-8.595489,10.74582-15.326579,19.032034-20.196189,8.286215-4.866692,18.177154-7.302956,29.672818-7.302956,12.948669,0,23.694489,3.10733,32.237459,9.321991,8.545888,6.214661,14.060306,14.813067,16.54617,25.789384h-25.944021c-1.555124-4.347345-4.271485-7.714349-8.157837-10.098095-3.883434-2.380828-8.828903-3.571242-14.836409-3.571242-6.836127,0-12.583959,1.476347-17.243496,4.426122-4.662455,2.952693-8.184096,7.095801-10.564924,12.426404-2.383746,5.339357-3.574159,11.629877-3.574159,18.877397,0,7.457593,1.190414,13.777291,3.574159,18.953257,2.380828,5.181802,5.849951,9.091495,10.407369,11.734914,4.557418,2.637584,9.943457,3.956376,16.158118,3.956376,8.907681,0,15.66503-2.32831,20.274967-6.990764,4.607019-4.656619,7.431334-10.509488,8.467111-17.55277h-25.322555v-17.401051h48.626075v62.479894h-21.439121l-1.864398-14.320648c-2.173672,3.110248-4.738314,5.753667-7.691008,7.924422-2.949776,2.17659-6.369298,3.810492-10.252732,4.895869s-8.312474,1.628066-13.284202,1.628066Z"/>
          <path class="cls-1" d="M493.31941,373.961879v-80.035582h20.663018l2.17659,14.29372c2.068636-3.314486,4.5049-6.162143,7.300038-8.548806,2.798056-2.380828,6.033765-4.242308,9.710043-5.590277,3.676278-1.345051,7.638489-2.019035,11.886633-2.019035v24.701089h-7.769785c-3.10733,0-5.928728.338451-8.467111,1.009518-2.538383.676902-4.712055,1.785621-6.523935,3.343663-1.814798,1.552206-3.212367,3.647101-4.195626,6.290521-.986176,2.643419-1.476347,5.928728-1.476347,9.867598v36.687592h-23.30352Z"/>
          <path class="cls-1" d="M625.143163,311.091107c-3.367004-5.847033-8.000282-10.486146-13.905668-13.902751-5.902469-3.416605-12.791114-5.126366-20.663018-5.126366-8.079059,0-15.171942,1.814798-21.284484,5.438558-6.112542,3.62376-10.874198,8.595489-14.290802,14.915186-3.419522,6.319697-5.129284,13.514699-5.129284,21.590841,0,7.877739,1.733103,14.839326,5.205143,20.896433,3.469123,6.062941,8.259955,10.777914,14.372497,14.139083,6.109624,3.367004,13.205425,5.047588,21.284484,5.047588,6.109624,0,11.702819-1.161237,16.776667-3.495382,5.073848-2.32831,9.37451-5.485241,12.896151-9.476628,3.518724-3.985552,6.004588-8.467111,7.457593-13.43884h-23.770349c-1.242932,2.17659-2.978952,3.962211-5.205143,5.362698-2.229108,1.400487-5.047588,2.094895-8.467111,2.094895-3.626678,0-6.75735-.776103-9.397851-2.32831-2.643419-1.552206-4.662455-3.728797-6.060024-6.523935-1.10106-2.20212-1.641196-4.73795-1.874975-7.457593h56.639851c.207155-1.347969.335533-2.666761.388052-3.962211.049601-1.29545.078777-2.456688.078777-3.495382,0-7.661831-1.68642-14.425016-5.050506-20.277884ZM573.517713,325.311885c.400816-1.899775.974141-3.621572,1.753526-5.129284,1.604725-3.110248,3.755056-5.438558,6.448075-6.990764,2.69302-1.552206,5.695314-2.32831,9.012717-2.32831,4.350263,0,8.000282,1.318792,10.952975,3.956376,2.949776,2.643419,4.528241,6.138801,4.738314,10.491982h-32.905608Z"/>
          <path class="cls-1" d="M714.631363,311.091107c-3.367004-5.847033-8.000282-10.486146-13.905668-13.902751-5.902469-3.416605-12.791114-5.126366-20.663018-5.126366-8.079059,0-15.171942,1.814798-21.284484,5.438558-6.112542,3.62376-10.874198,8.595489-14.290802,14.915186-3.419522,6.319697-5.129284,13.514699-5.129284,21.590841,0,7.877739,1.733103,14.839326,5.205143,20.896433,3.469123,6.062941,8.259955,10.777914,14.372497,14.139083,6.109624,3.367004,13.205425,5.047588,21.284484,5.047588,6.109624,0,11.702819-1.161237,16.776667-3.495382,5.073848-2.32831,9.37451-5.485241,12.896151-9.476628,3.518724-3.985552,6.004588-8.467111,7.451758-13.43884h-23.764513c-1.242932,2.17659-2.978952,3.962211-5.205143,5.362698-2.229108,1.400487-5.047588,2.094895-8.467111,2.094895-3.626678,0-6.75735-.776103-9.397851-2.32831-2.643419-1.552206-4.662455-3.728797-6.060024-6.523935-1.10106-2.20212-1.641196-4.73795-1.874975-7.457593h56.636933c.210073-1.347969.338451-2.666761.385134-3.962211.058354-1.29545.081695-2.456688.081695-3.495382,0-7.661831-1.680584-14.425016-5.047588-20.277884ZM663.005912,325.311885c.400816-1.899775.974141-3.621572,1.753526-5.129284,1.604725-3.110248,3.755056-5.438558,6.448075-6.990764,2.69302-1.552206,5.695314-2.32831,9.012717-2.32831,4.350263,0,8.000282,1.318792,10.952975,3.956376,2.949776,2.643419,4.528241,6.138801,4.738314,10.491982h-32.905608Z"/>
          <path class="cls-1" d="M731.18045,373.961879v-80.035582h20.347909l1.867316,12.583959c2.380828-4.347345,5.747832-7.842727,10.095177-10.486146,4.35318-2.640501,9.634183-3.962211,15.848844-3.962211,6.523935,0,12.015011,1.397569,16.467393,4.195626,4.452381,2.795139,7.848562,6.809868,10.176872,12.038353,2.32831,5.23432,3.495382,11.629877,3.495382,19.186671v46.47933h-23.148882v-44.30274c0-5.695314-1.219591-10.124354-3.652937-13.281285-2.433346-3.162766-6.290521-4.738314-11.571524-4.738314-3.110248,0-5.928728.752762-8.467111,2.25245s-4.534077,3.647101-5.981246,6.448075c-1.453005,2.795139-2.17659,6.162143-2.17659,10.095177v43.526637h-23.300602Z"/>
          <polygon class="cls-1" points="917.923716 293.926388 905.503877 347.882701 891.046037 293.926388 865.411291 293.926388 850.939227 347.91662 838.376057 293.926388 815.384729 293.926388 838.533612 373.961879 862.610317 373.961879 878.21517 316.679195 893.683621 373.961879 917.923716 373.961879 940.915044 293.926388 917.923716 293.926388"/>
          <path class="cls-1" d="M969.969313,373.961879c-6.523935,0-11.939151-1.032859-16.233978-3.104413-4.300662-2.071554-7.457593-4.895869-9.476628-8.467111-2.019035-3.571242-3.034388-7.533453-3.034388-11.886633,0-4.656619,1.167072-8.776385,3.495382-12.347627,2.334145-3.577077,5.987082-6.424734,10.952975-8.548806,4.971729-2.118237,11.238908-3.180272,18.801538-3.180272h18.953257c0-3.524559-.443488-6.424734-1.318792-8.700525-.88114-2.281627-2.304968-3.985552-4.271485-5.129284-1.972352-1.137896-4.662455-1.709761-8.081977-1.709761-3.62376,0-6.68149.72942-9.167354,2.17659-2.485864,1.453005-4.038071,3.728797-4.656619,6.833209h-22.372779c.513512-5.590277,2.351651-10.456969,5.514417-14.600077,3.156931-4.143107,7.381733-7.405075,12.662736-9.78882,5.281003-2.380828,11.338109-3.574159,18.177154-3.574159,7.457593,0,13.92901,1.219591,19.420086,3.650019,5.485241,2.436264,9.762561,5.984164,12.814456,10.640783,3.05773,4.662455,4.586595,10.462805,4.586595,17.401051v50.335836h-19.420086l-2.800974-13.205425c-1.137896,1.972352-2.485864,3.757973-4.038071,5.362698-1.552206,1.604725-3.367004,3.005212-5.438558,4.195626s-4.347345,2.094895-6.833209,2.719279c-2.485864.618548-5.23432.927823-8.233696.927823ZM975.717145,356.251554c2.485864,0,4.662455-.408475,6.523935-1.242932,1.867316-.822786,3.472041-1.966517,4.820009-3.413687,1.342133-1.453005,2.456688-3.13359,3.337827-5.053424.88114-1.913999,1.528865-4.008894,1.943176-6.290521v-.157555h-15.072741c-2.590901,0-4.738314.338451-6.448075,1.015353-1.709761.671067-2.976035,1.628066-3.804656,2.870998s-1.242932,2.695937-1.242932,4.35318c0,1.762279.437652,3.232791,1.318792,4.423205.88114,1.196249,2.071554,2.077389,3.577077,2.643419,1.499688.571866,3.180272.851963,5.047588.851963Z"/>
          <path class="cls-1" d="M1037.143725,406.405824l18.801538-42.878243h-4.662455l-31.540134-69.601285h25.325473l21.596676,47.695334,18.019599-47.695334h25.016198l-47.849971,112.479527h-24.706924Z"/>
        </g>
      </g>
      <line class="cls-3" x2="1300" y2="436.451947"/>
    </g>
  </g>
</svg>