<?xml version="1.0" encoding="UTF-8"?>
<svg xmlns="http://www.w3.org/2000/svg" version="1.1" viewBox="0 0 1300 436.451947">
  <defs>
    <style>
      .cls-1 {
        fill: #385c38;
      }

      .cls-2 {
        fill: #212121;
      }

      .cls-3 {
        fill: none;
        opacity: .56;
        stroke: #ff6969;
        stroke-miterlimit: 10;
        stroke-width: 16px;
      }

      .cls-4 {
        fill: #007acc;
      }
    </style>
  </defs>
  <!-- Generator: Adobe Illustrator 28.7.9, SVG Export Plug-In . SVG Version: 1.2.0 Build 218)  -->
  <g>
    <g id="Layer_1">
      <g>
        <g>
          <path class="cls-2" d="M473.547471,193.401198c-7.255118.943576-13.842519.141635-19.763342-2.414591-5.920443-2.553303-10.825068-6.552582-14.71171-12.004062-3.885883-5.445634-6.332225-12.050509-7.34119-19.808399-.999841-7.687736-.319377-14.66063,2.043934-20.921985s6.079151-11.40259,11.144978-15.420401c5.065446-4.020734,11.225918-6.501427,18.481037-7.445003,7.39835-.962204,14.079027-.151587,20.042413,2.434774,5.960082,2.583819,10.846906,6.60622,14.663015,12.063901,3.813185,5.458061,6.222431,12.029118,7.222272,19.716854,1.008965,7.75789.365597,14.764603-1.925017,21.013531-2.292777,6.255155-5.990817,11.373266-11.096282,15.360562-5.108008,3.990599-11.361758,6.462616-18.760107,7.42482ZM472.408295,183.796462c5.173875-.672897,9.544856-2.445249,13.115485-5.32036,3.570629-2.875111,6.130629-6.641336,7.680001-11.298675s1.928434-10.039369,1.134264-16.145712-2.537274-11.212371-5.226768-15.32139c-2.688734-4.103173-6.12464-7.071755-10.307339-8.902824s-8.859335-2.408884-14.03321-1.735987c-5.170952.672517-9.547137,2.42771-13.122329,5.267745-3.575191,2.840034-6.155011,6.591002-7.73984,11.249979-1.586992,4.665204-1.980669,10.049135-1.186499,16.155478s2.551889,11.21047,5.279004,15.311624c2.724191,4.101534,6.179917,7.085374,10.367178,8.95152s8.869101,2.46112,14.040053,1.788603Z"/>
          <path class="cls-2" d="M542.728325,184.403771c-4.241409.551623-8.033733.167942-11.382439-1.147361-3.349086-1.318226-6.094163-3.591906-8.229386-6.821799-2.137766-3.22659-3.544926-7.463742-4.226947-12.707772l-4.190207-32.218337,10.774523-1.401298,4.035859,31.031561c.663773,5.103721,2.277012,8.799822,4.840857,11.097072,2.560922,2.29763,5.926821,3.173734,10.095152,2.631615,2.800324-.364201,5.246067-1.374887,7.331003-3.034221,2.084936-1.659334,3.605184-3.866488,4.563666-6.62184.955559-2.754972,1.190601-5.998853.704747-9.734566l-3.769742-28.985395,10.777446-1.401678,7.063134,54.308154-9.59067,1.24733-1.959289-9.168123c-1.224882,3.518271-3.294139,6.418086-6.211076,8.696904-2.91986,2.279198-6.461223,3.688015-10.626631,4.229754Z"/>
          <path class="cls-2" d="M585.877613,177.47806l-7.063134-54.308154,9.698824-1.261396,2.298891,10.110838c.904033-2.602616,2.217028-4.871991,3.935302-6.81359,1.721577-1.939056,3.830895-3.548056,6.331256-4.824456,2.500741-1.273477,5.439009-2.131224,8.815182-2.570318l1.485695,11.423449-3.878945.504482c-2.227397.289688-4.311665.834234-6.252802,1.633638-1.940757.802328-3.599006,1.948398-4.977288,3.441514-1.374979,1.495659-2.350433,3.41199-2.920134,5.751157-.572625,2.339547-.645604,5.161058-.216015,8.464154l3.517691,27.047384-10.774523,1.401298Z"/>
        </g>
        <g>
          <path class="cls-1" d="M354.873264,262.479161c-2.126704-.887803-4.117561-1.952059-6.02465-3.185994-2.488471-1.634669-5.588405-1.866623-8.218269-.518972l-.104096.013538c-2.279096,1.196174-3.902312,3.365585-4.31284,5.906552-1.6488,10.111828-5.148443,19.82924-7.22536,25.021588-.224271.717217-.455331,1.382399-.790487,2.061114-3.129729,6.864162-9.852954,20.282307-19.807306,33.273848l-.181116.235264c-.316943.411709-7.758153,9.530276-18.360218,17.948462-10.602066,8.418186-23.296088,13.77403-36.776221,15.527211l-.104096.013538-.780701.101535c-1.769593.230147-1.802236,2.827829-.02377,3.072874,2.579474.299643,5.204238.540478,7.867501.670448,6.928542.369149,13.775857.113741,20.541952-.766234,22.06786-2.870071,42.703533-12.275633,59.567033-27.488934,2.747945-2.474479,5.371507-5.091557,7.877434-7.799197l2.321779,17.852068c.582137,4.476027,4.640426,7.600199,9.116457,7.018061l22.796522-2.964838c4.476012-.582135,7.600193-4.640435,7.018056-9.116461l-9.029894-69.430488c-.433218-3.330995-3.491646-5.685438-6.809103-5.148134-6.232087.916381-12.628724.160494-18.669473-2.335358l.110865.03851Z"/>
          <path d="M230.569775,259.80358h0c-12.051253,5.007611-18.156692,18.292476-14.502299,30.519729-.169672-.083785-.332585-.115525-.44345-.154035,4.516935,5.022828,23.549518,22.765704,50.783567,1.016781-.805673.316487-1.618114.580935-2.482604.852148,1.497184-3.95255,2.003361-8.19963,1.389493-12.51275l17.222539-7.162131,32.190991-13.343064c.253462-.085883.500154-.223823.694808-.354996l15.312453-6.384443c6.379804-2.629261,11.689497-5.754468,16.119038-9.135704,2.756671,4.510779,6.862343,7.999278,11.83973,10.051224,6.21042,2.579631,13.091599,2.584451,19.315249-.024501,6.22365-2.608952,11.049735-7.41786,13.622597-13.680329,2.939749-7.104091,2.542202-15.044385-1.268056-21.958652-2.148193-3.901857-5.328464-7.19315-9.22641-9.491341-3.78031-2.207624-7.900433-3.365444-12.100136-3.507304,1.227782-9.686573-.174768-16.808121-.274189-17.16568-.054152-.416374-.205651-.76716-.357112-1.11796-3.235178-7.782956-11.744069-11.757324-19.777947-9.23051l-63.992497,19.913707-7.245637-11.760183c-1.6667-2.641308-4.979034-3.692472-7.83064-2.42185l-9.8018,4.397515c-3.05302,1.349736-4.663164,4.840627-3.469552,7.913952,1.293043,3.430882,5.096223,5.000421,8.395933,3.512724l5.053662-2.245074,30.760062,49.720556c-10.41703,3.736532-21.855449,3.68928-33.989431-.078264-8.93927-2.806929-15.339214-6.843877-16.612862-7.68384l-8.310785-7.334553c.525135-.438786,1.004981-.818764,1.484837-1.198733.577183-.445555,1.290193-1.067561,1.686262-1.277847,3.14568-1.044247,4.932274-4.399311,3.985355-7.610567-.960459-3.315362-4.381108-5.199274-7.703229-4.290864-2.346777.675703-4.116817,2.123231-5.834819,3.563992-1.432789,1.191963-2.917627,2.390696-4.768906,3.213659l-.104096.013538c-2.462297,1.008287-7.051288,1.12877-9.402272.958196-3.425772-.295443-6.427188,2.264925-6.722622,5.690696-.295445,3.425762,2.264924,6.427178,5.690696,6.722622.644874.074915,4.649913.347939,9.119175-.286246l6.989763,6.130252-4.129022,16.679798c-.454884.165017-.909758.330034-1.364642.495051l.058807.04528ZM356.327458,234.185703c4.769798-5.648432,7.865234-11.555447,9.81098-16.942439,2.380612-.415471,4.849221-.154328,7.138848.765214,3.972851,1.653319,6.802333,5.096081,7.683221,9.427401.307148,1.547875.308796,3.188401-.015362,4.765454-.863725,4.346505-3.750097,7.791674-7.660826,9.464685-1.955364.83651-4.127783,1.224905-6.232067.916378-5.054873-.612832-9.07466-3.847858-10.724794-8.396694ZM246.781475,250.973385c5.771179,3.271888,16.832022,8.555099,30.36074,10.024163-.201413.079124-.344019.203527-.538674.33469l-16.170173,6.707709c-3.84033-5.11082-9.416855-8.513881-15.496561-9.681486l1.792619-7.378306.052048-.006769ZM248.86618,273.513876c7.274519,7.098838,4.516621,18.04296-3.669173,21.436371-1.15647.467972-2.333238.779799-3.537083.883438-1.165334-.007221-2.330678-.014445-3.50955-.125757-4.222114-.721138-7.972789-3.514828-9.693194-7.789887-2.708375-6.581223.71123-14.065283,7.285678-16.825715,4.469709-1.851567,9.714562-.998801,13.1686,2.362733l-.045279.058817Z"/>
          <path d="M216.015437,290.330072l-.598682-2.568497c.115074.884797.386281,1.749287.598682,2.568497"/>
          <path class="cls-4" d="M307.207085,275.664861l-.572518.07446c-12.636408,2.543201-20.059702,6.102091-27.340402,9.536569-4.936027,2.335632-9.285998,4.7009-15.427983,6.717029-22.052831,11.124762-47.857503-1.714896-47.857503-1.714896-.391412-.160798-.613132-.237818-.671959-.283096,0,0-.052038.006768-.110855-.038511-.502267-.199309-49.758253-19.99221-74.183552-30.364899-3.640266-1.537789-7.706692-1.061851-10.898098,1.258584-3.288732,2.386032-5.014405,6.209519-4.656092,10.185386.128611.988883.153127,1.991314.243229,3.091072.551151,8.714233,1.370036,21.521961,18.388297,28.253324.193742,2.303602.864779,5.02147,2.454468,7.884497,3.547893,6.524962,10.427247,11.399322,20.468369,14.539293,3.77264,4.590355,14.688626,16.084893,31.17844,19.973986,1.095093.280993,2.87356.526037,4.007158.696168.429912.049941.814546.158697,1.251227.260687,3.167635.752425,4.789963,1.017777,8.966793,1.797732,9.819859,1.845567,20.017572,3.747847,39.274897,1.243304l.104096-.013538c11.606443-1.509495,22.643841-6.173541,31.806348-13.451813,9.882296-7.848232,16.811898-16.423915,16.811898-16.423915,9.365745-12.226934,15.708545-24.907554,18.677485-31.38031.251367-.509038.391849-1.056577.428255-1.590581.311086-2.898532.183078-11.61487-12.348766-10.302581l.006769.052048ZM277.204123,325.772385c-4.945813,4.295213-10.972714,7.19614-17.3656,8.50392-2.939592.594022-6.146194,1.169844-9.789476,1.643677-17.175454,2.233781-25.906988.617161-35.186059-1.139958-3.362284-.621258-7.025418-1.520949-10.790539-1.983959-.280542-.122296-.606364-.185775-.93218-.249255-10.457953-1.868434-18.366358-8.143848-22.854112-12.53534,5.348938.839224,11.693538,1.601879,17.273531,1.775927.690148.016099.776492-.947822.118086-1.126824-6.634021-1.360145-10.6323-1.581124-23.980648-7.360747-.110865-.038505-.228499-.129062-.391402-.160804,0,0-.052048.006769-.110865-.03851,0,0-.391402-.160799-.606363-.18577-15.31981-4.252969-15.717825-10.975889-15.493087-12.910495,5.416629,1.359694,19.376907,4.519227,29.787933,4.805945.638095.022868.783261-.895774.176897-1.081555-6.310298-1.719807-17.856119-5.034571-32.835672-11.554735-.509036-.251357-1.011303-.450666-1.55885-.591167-12.953182-3.555145-13.299605-9.067452-13.846092-18.152781l-.067691-.52047c24.920798,10.519959,69.767246,28.557551,71.554586,29.277787,1.513572.649984,20.692366,8.529387,36.462563,6.478369.52047-.067691,3.58657-.095968,4.041455-.260981,18.567183-2.520642,25.185262-6.980418,34.056989-11.204022,5.630845-2.690629,11.067025-5.250094,19.155054-7.360544-5.384756,10.280148-14.683713,25.462322-26.863734,35.991111l.045279-.058817Z"/>
          <path class="cls-1" d="M336.085063,165.631273c-18.060681-14.746572-40.250972-23.398709-64.018929-24.647558-29.583216-1.604023-58.073298,8.452569-80.108986,28.255163-22.087736,19.809364-35.115728,47.014649-36.712961,76.64991-.28025,5.170373,2.725228,9.966364,7.532942,11.93452,5.088252,2.090456,10.398215,4.257934,15.656158,6.432167,8.160664,3.331609,16.94485-2.785992,16.855362-11.613196.000903-2.434764.099132-4.935124.308227-7.396965,1.574509-17.194402,9.534242-33.313871,22.131094-45.114198,4.957237-4.614261,10.439152-8.449926,16.29638-11.43465.104096-.013538.194656-.131153.291972-.196748,5.497569-3.308417,11.590056-6.112024,15.448746-7.778277l5.852566-2.613609,2.351432-1.046797,7.651793-3.429833c7.450374-3.350678,16.272-.634306,20.50539,6.277848,0,0,.814089,1.376078,1.628197,2.752152.872897,1.421368,2.601431,2.096333,4.233082,1.619474l43.127135-13.49511c2.23592-.714223,2.807239-3.646581.977168-5.102257l-.006768-.052038Z"/>
        </g>
        <g>
          <path class="cls-1" d="M506.772682,332.56403c-10.271265,1.335846-19.528378.221299-27.775739-3.354838-8.244468-3.576513-15.010266-9.198957-20.288714-16.86846-5.281342-7.669127-8.633327-16.995576-10.063246-27.99017-1.442713-11.092966-.536041-21.17924,2.720654-30.276558,3.257447-9.091532,8.6794-16.584471,16.268376-22.482089,7.589352-5.894724,17.083481-9.58628,28.483138-11.068881,12.840527-1.669995,23.897357.025491,33.170487,5.086459,9.276024,5.060592,15.853328,12.875991,19.734052,23.440036l-25.727348,3.346012c-2.102815-4.110473-5.230735-7.099027-9.392062-8.96164-4.158057-1.860096-9.215753-2.402749-15.173086-1.627958-6.779035.881658-12.288458,3.086975-16.528647,6.613058-4.242706,3.529353-7.200597,8.092046-8.874051,13.685187-1.675218,5.602197-2.044399,11.99371-1.109684,19.180702.961809,7.395311,2.957335,13.5087,5.988719,18.334007,3.029243,4.831469,6.973629,8.261096,11.833908,10.294666,4.859527,2.027784,10.37067,2.640922,16.533428,1.839414,8.833288-1.148827,15.23392-4.32919,19.204037-9.547251,3.967977-5.211898,6.013858-11.380139,6.132609-18.498184l-25.111072,3.265861-2.244221-17.255725,48.219971-6.271326,8.058059,61.958089-21.260071,2.765013-3.695768-13.960596c-1.754389,3.364612-3.956689,6.316718-6.60476,8.850153-2.644425,2.538846-5.824664,4.600119-9.535683,6.17728s-8.033079,2.686533-12.963286,3.327739Z"/>
          <path class="cls-1" d="M573.927389,323.701332l-10.322223-79.36716,20.49045-2.664918,4.001879,13.893629c1.623889-3.553598,3.672543-6.691678,6.136528-9.418899,2.467632-2.721811,5.436241-4.985056,8.907969-6.795898,3.472104-1.807949,7.3143-2.987313,11.526965-3.535197l3.18571,24.494796-7.704895,1.002073c-3.081379.400754-5.835564,1.100255-8.266199,2.093094-2.429883.998625-4.44241,2.378424-6.038216,4.157133-1.599453,1.773298-2.71517,4.030943-3.349294,6.779097-.637017,2.74853-.699386,6.069619-.191389,9.975593l4.731615,36.381194-23.108899,3.005465Z"/>
          <path class="cls-1" d="M696.541737,244.354263c-4.092979-5.363957-9.28587-9.366771-15.582578-11.993221-6.293815-2.626827-13.345438-3.433877-21.151599-2.418634-8.011586,1.04196-14.811178,3.756373-20.405312,8.138206s-9.674817,9.926153-12.247834,16.633712c-2.57591,6.707935-3.343449,14.063356-2.301866,22.072049,1.015995,7.811948,3.632463,14.491876,7.856694,20.050605,4.222091,5.564892,9.581004,9.622612,16.075988,12.167372,6.492843,2.550923,13.746129,3.302324,21.757715,2.260364,6.058599-.787961,11.455317-2.660857,16.185755-5.629884,4.73119-2.963241,8.588784-6.648465,11.566243-11.060706,2.975318-4.406078,4.862433-9.170811,5.662098-14.288413l-23.571829,3.065672c-.951836,2.318714-2.443066,4.313317-4.470043,5.989221-2.02987,1.67628-4.735254,2.728389-8.126218,3.169406-3.596389.467734-6.80101.101877-9.619647-1.09682-2.821531-1.19832-5.10442-3.096337-6.850808-5.687886-1.375873-2.041725-2.238545-4.486715-2.821125-7.153494l56.166819-7.304866c.031577-1.363428-.011202-2.687763-.126197-3.979168-.117888-1.291028-.238721-2.44633-.372681-3.47635-.98815-7.597843-3.532736-14.087046-7.623574-19.457166ZM647.1815,265.114432c.152454-1.935603.49893-3.716961,1.077356-5.312599,1.190193-3.291235,3.022282-5.877428,5.492622-7.763991s5.347466-3.043392,8.637164-3.471239c4.313931-.561055,8.103552.275978,11.371756,2.510724,3.266063,2.240909,5.282147,5.503523,6.051897,9.793255l-32.630795,4.24385Z"/>
          <path class="cls-1" d="M785.282571,232.812931c-4.092979-5.363957-9.28587-9.366771-15.582578-11.993221-6.293815-2.626827-13.345438-3.433877-21.151599-2.418634-8.011586,1.04196-14.811178,3.756373-20.405312,8.138206-5.594135,4.381833-9.674817,9.926153-12.247834,16.633712-2.57591,6.707935-3.343449,14.063356-2.301866,22.072049,1.015995,7.811948,3.632463,14.491876,7.856694,20.050605,4.222091,5.564892,9.581004,9.622612,16.075988,12.167372,6.492843,2.550923,13.746129,3.302324,21.757715,2.260364,6.058599-.787961,11.455317-2.660857,16.185755-5.629884,4.73119-2.963241,8.588784-6.648465,11.566243-11.060706,2.975318-4.406078,4.862433-9.170811,5.656311-14.287661l-23.566042,3.064919c-.951836,2.318714-2.443066,4.313317-4.470043,5.989221-2.02987,1.67628-4.735254,2.728389-8.126218,3.169406-3.596389.467734-6.80101.101877-9.619647-1.09682-2.821531-1.19832-5.10442-3.096337-6.850808-5.687886-1.375873-2.041725-2.238545-4.486715-2.821125-7.153494l56.163926-7.30449c.034471-1.363804-.008309-2.688139-.129091-3.978791-.109209-1.292157-.235827-2.446707-.369788-3.476726-.98815-7.597843-3.526949-14.087799-7.620681-19.457543ZM735.922333,253.5731c.152454-1.935603.49893-3.716961,1.077356-5.312599,1.190193-3.291235,3.022282-5.877428,5.492622-7.763991,2.47034-1.886563,5.347466-3.043392,8.637164-3.471239,4.313931-.561055,8.103552.275978,11.371756,2.510724,3.266063,2.240909,5.282147,5.503523,6.051897,9.793255l-32.630795,4.24385Z"/>
          <path class="cls-1" d="M809.801918,293.024292l-10.322223-79.36716,20.177972-2.624279,3.47468,12.238035c1.800265-4.618094,4.688349-8.518528,8.658464-11.70055,3.976278-3.179881,9.042715-5.171645,15.205474-5.973153,6.46945-.841395,12.094912-.163684,16.870976,2.036779,4.775687,2.197569,8.661286,5.740762,11.644471,10.625298,2.983937,4.890322,4.9661,11.081949,5.940703,18.575632l5.994459,46.091155-22.955553,2.985521-5.713743-43.932743c-.734527-5.647749-2.515147-9.882508-5.335322-12.699244-2.820927-2.822523-6.849087-3.887451-12.085986-3.206358-3.084273.40113-5.78213,1.511106-8.105898,3.325645-2.323768,1.81454-4.025842,4.201404-5.099683,7.165628-1.08038,2.95919-1.363678,6.391395-.856433,10.291582l5.613649,43.163122-23.106006,3.005089Z"/>
          <polygon class="cls-1" points="984.663375 189.572863 979.30603 244.680349 958.010167 193.039289 932.58951 196.345413 925.201454 251.75121 905.780063 199.832159 882.980748 202.79736 916.258513 279.178908 940.13414 276.073725 948.220896 217.256877 970.947934 272.066188 994.985587 268.939932 1007.462689 186.607662 984.663375 189.572863"/>
          <path class="cls-1" d="M1046.596522,262.227589c-6.46945.841395-11.972649.515564-16.498776-.984783-4.531914-1.499595-8.026733-3.893172-10.489491-7.174192s-3.980639-7.07919-4.542071-11.396015c-.600566-4.617729.025431-8.853606,1.873711-12.695306,1.853314-3.848239,5.10848-7.143234,9.758958-9.89002,4.657017-2.741752,10.734884-4.603199,18.234354-5.578555l18.794968-2.44441c-.454564-3.495123-1.268384-6.313881-2.429888-8.457777-1.168043-2.148931-2.799736-3.654994-4.897338-4.535551-2.102635-.874017-4.844024-1.094163-8.234988-.653146-3.593496.467358-6.531615,1.585043-8.810077,3.34073-2.277709,1.761473-3.523442,4.218447-3.736447,7.376708l-22.185932,2.885427c-.211757-5.609817.983371-10.672931,3.585385-15.18934,2.596227-4.515657,6.365049-8.295256,11.294514-11.340187,4.929842-3.042037,10.782457-5.00659,17.564385-5.888625,7.395311-.961809,13.969972-.587025,19.728642,1.114919,5.753636,1.708483,10.452809,4.675105,14.079781,8.89923,3.633512,4.229159,5.897682,9.783889,6.792511,16.66419l6.491834,49.915453-19.257898,2.504617-4.480691-12.733896c-.874017,2.102635-1.980436,4.047191-3.312717,5.838703s-2.951301,3.414357-4.852026,4.861999c-1.900725,1.447641-4.040858,2.638078-6.425435,3.577851-2.385329.933986-5.070944,1.595146-8.04527,1.981977ZM1050.012242,243.923873c2.465104-.320603,4.570835-1.006383,6.309149-2.073946,1.745606-1.056743,3.189421-2.397884,4.33949-4.006816,1.14353-1.613966,2.03203-3.424259,2.658209-5.441701.626932-2.011655.999068-4.172592,1.115656-6.488597l-.02032-.156239-14.94686,1.943938c-2.569263.33415-4.655092.946727-6.263273,1.838484-1.608934.885971-2.741208,1.99829-3.402608,3.337709s-.884856,2.833724-.67112,4.477126c.227282,1.747562.850932,3.149348,1.878241,4.216179,1.028062,1.072618,2.322175,1.79287,3.888126,2.160005,1.560917.373674,3.26359.434687,5.115311.193858Z"/>
          <path class="cls-1" d="M1117.394232,285.737064l13.11449-44.944985-4.623516.601319-40.253232-64.952261,25.113965-3.266237,27.567598,44.511671,11.717819-49.620999,24.807274-3.22635-32.943816,117.711379-24.500583,3.186463Z"/>
        </g>
      </g>
      <line class="cls-3" x2="1300" y2="436.451947"/>
    </g>
  </g>
</svg>