<?xml version="1.0" encoding="UTF-8"?>
<svg xmlns="http://www.w3.org/2000/svg" version="1.1" viewBox="0 0 1300 436.451947">
  <defs>
    <style>
      .cls-1 {
        fill: #385c38;
      }

      .cls-2 {
        fill: #212121;
      }

      .cls-3 {
        fill: none;
        opacity: .56;
        stroke: #ff6969;
        stroke-miterlimit: 10;
        stroke-width: 16px;
      }

      .cls-4 {
        fill: #007acc;
      }
    </style>
  </defs>
  <!-- Generator: Adobe Illustrator 28.7.9, SVG Export Plug-In . SVG Version: 1.2.0 Build 218)  -->
  <g>
    <g id="Layer_1">
      <g>
        <g>
          <path class="cls-2" d="M478.222787,185.072501c-7.31622,0-13.745179-1.243167-19.286876-3.736186-5.541698-2.49079-9.889572-5.966312-13.040676-10.43102-3.151104-4.460253-4.725182-9.649028-4.725182-15.561871,0-5.859373,1.574078-11.019186,4.725182-15.481666s7.498978-7.953597,13.040676-10.471123c5.541698-2.519753,11.970656-3.778516,19.286876-3.778516,7.460658,0,13.980996,1.258763,19.561013,3.778516,5.57707,2.517525,9.904311,6.008642,12.984669,10.471123,3.077411,4.462481,4.619064,9.622293,4.619064,15.481666,0,5.912842-1.541653,11.101618-4.619064,15.561871-3.080359,4.464708-7.407599,7.94023-12.984669,10.43102-5.580018,2.493018-12.100356,3.736186-19.561013,3.736186ZM478.331852,177.762766c5.217449,0,9.780507-.902299,13.69212-2.709124,3.911613-1.806826,6.935965-4.380048,9.073056-7.719668s3.20711-7.33647,3.20711-11.990549-1.070019-8.65093-3.20711-11.992777c-2.137091-3.337392-5.161443-5.897247-9.073056-7.677338s-8.474671-2.669022-13.69212-2.669022c-5.214502,0-9.780507.888931-13.69212,2.669022-3.911613,1.780091-6.953651,4.339946-9.126115,7.677338-2.175411,3.341848-3.260169,7.338697-3.260169,11.992777s1.084758,8.65093,3.260169,11.990549c2.172463,3.33962,5.214502,5.912842,9.126115,7.719668s8.477618,2.709124,13.69212,2.709124Z"/>
          <path class="cls-2" d="M547.986274,185.072501c-4.277129,0-7.988298-.65723-11.139402-1.969462-3.151104-1.31446-5.580018-3.28615-7.280847-5.91507-1.703777-2.626692-2.552718-5.939577-2.552718-9.936427v-24.555897h10.865265v23.65137c0,3.889911,1.123078,6.817369,3.369234,8.789059,2.243208,1.97169,5.468005,2.956421,9.671441,2.956421,2.823908,0,5.379573-.5191,7.661102-1.559529,2.281529-1.040429,4.073737-2.546488,5.379573-4.518178,1.302888-1.97169,1.954333-4.380048,1.954333-7.227303v-22.091841h10.868212v41.392125h-9.671441l-.76051-7.062438c-1.668405,2.517525-4.094371,4.489215-7.280847,5.912842-3.189424,1.423627-6.882906,2.134327-11.083395,2.134327Z"/>
          <path class="cls-2" d="M591.668411,184.08777v-41.392125h9.780507l.975693,7.8021c1.232143-1.862523,2.826855-3.435419,4.781188-4.723145,1.95728-1.285497,4.256495-2.285824,6.900593-2.998751,2.644097-.7107,5.668449-1.067163,9.073056-1.067163v8.706627h-3.911613c-2.246156,0-4.383247.204967-6.411272.6149-2.028026.412161-3.820234,1.109493-5.379573,2.094225-1.556392.986959-2.770849,2.328154-3.637476,4.025812-.869575,1.697659-1.305836,3.805251-1.305836,6.322776v20.614744h-10.865265Z"/>
        </g>
        <g>
          <path class="cls-1" d="M351.63068,225.278055c-1.994442-.872707-3.831415-1.864422-5.563436-2.975146-2.256864-1.467742-5.300994-1.943761-8.082702-1.190055h-.104973c-2.414333.674367-4.303783,2.142101-5.038592,4.006524-2.939157,7.418035-7.662831,14.360043-10.392062,18.049225-.314898.515689-.629816.991715-1.049708,1.467738-3.988864,4.839572-12.386484,14.241034-23.933227,23.007799l-.209946.158674c-.367395.277679-8.922484,6.386646-20.521703,11.662572-11.599219,5.275926-24.877972,8.052728-38.471633,8.052728h-.892248c-1.784497,0-2.151891,1.943765-.419881,2.300783,2.519286.476019,5.091068.912376,7.715327,1.269395,6.823069.952046,13.646137,1.428073,20.469216,1.428073,22.253713,0,43.930086-5.037916,62.614815-14.796396,3.04413-1.586747,5.983307-3.292495,8.817511-5.077586v13.606337c0,3.4115,3.62147,6.148636,8.135198,6.148636h22.988512c4.513708,0,8.135198-2.737137,8.135198-6.148636v-52.917936c0-2.538789-2.729231-4.601555-6.088279-4.522224-6.298225.079339-12.543954-1.110716-18.212362-3.570174l.104973.03967Z"/>
          <path d="M228.71039,211.156037h0c-12.59644,2.578459-20.364243,11.940247-18.317325,21.460718-.157449-.079335-.314908-.119005-.419881-.158674,3.831415,4.204875,20.41674,19.358286,50.228311,5.712283-.839762.158671-1.679524.277679-2.571772.396684,1.994442-2.816472,3.04414-5.950293,2.991663-9.242788l18.002407-3.689179,33.643006-6.862677c.262422-.039662.524844-.119001.734789-.19834l16.007974-3.292495c6.66562-1.348734,12.334028-3.173486,17.162655-5.275926,2.151891,3.649513,5.773361,6.664329,10.444539,8.687429,5.825858,2.538789,12.648946,3.213156,19.157097,1.864422,6.50815-1.348734,11.914137-4.48255,15.273185-8.925439,3.831415-5.037916,4.461252-11.027871,1.574551-16.581483-1.627028-3.133817-4.356259-5.910623-7.925253-8.013062-3.464021-2.023093-7.400409-3.292487-11.546742-3.808184,2.46681-7.140348,1.994442-12.614621,1.941966-12.892301,0-.317349-.104993-.595028-.209946-.872714-2.204388-6.148633-10.12964-9.956816-18.422308-8.8461l-66.02634,8.687429-5.668408-9.520467c-1.312129-2.142109-4.461232-3.252825-7.452895-2.578466l-10.287089,2.340464c-3.201599.714021-5.248517,3.173471-4.461242,5.593259.839762,2.697467,4.408755,4.244548,7.872776,3.451173l5.301004-1.190055,24.090686,40.263645c-10.811933,1.785091-22.14873.634697-33.695473-3.371834-8.502603-2.975146-14.32845-6.624659-15.483131-7.378358l-7.295436-6.307311c.57734-.277679,1.102184-.515696,1.627038-.753706.629827-.277679,1.417102-.674367,1.836983-.793368,3.254085-.476027,5.458463-2.816476,4.933609-5.315595-.524854-2.578466-3.673966-4.32388-7.085501-3.966862-2.414323.277679-4.356269,1.190055-6.245739,2.102432-1.574551.753706-3.201589,1.507412-5.143545,1.943761h-.104973c-2.571772.515689-7.137977.158671-9.447327-.19834-3.359058-.555366-6.66562,1.071047-7.400409,3.609844-.734799,2.538789,1.417092,5.037909,4.77615,5.593274.629827.119009,4.566205.714036,9.079933.674367l6.140766,5.275926-6.245739,12.098925c-.472367.079339-.944725.158678-1.417092.238017l.052476.03967ZM356.721748,204.214029c5.458443-3.768522,9.289858-7.894061,11.914117-11.741915,2.414313-.079339,4.828626.357018,6.980538,1.269395,3.726443,1.626413,6.088279,4.48255,6.403198,7.814715.104953,1.190063-.104993,2.419788-.629837,3.570182-1.417082,3.173486-4.723674,5.474266-8.817511,6.346973-2.046919.436357-4.251286.515696-6.298205.079339-4.933619-.952046-8.502613-3.768514-9.5523-7.338688ZM245.925531,206.118121c5.301004,3.014816,15.588093,8.052724,28.81436,10.472513-.209935.03967-.367395.119009-.57734.19834l-16.900223,3.451173c-3.149112-4.204871-8.240171-7.299026-14.118515-8.766768l2.729231-5.355257h.052486ZM245.085769,223.215292c6.298225,6.029632,2.151891,13.963355-6.403188,15.708773-1.207167.238013-2.414323.357018-3.62148.317349-1.15467-.119005-2.30935-.238013-3.464021-.436353-4.093847-.952046-7.452895-3.411504-8.607575-6.783334-1.836973-5.196591,2.519296-10.472516,9.394851-11.900589,4.671177-.952046,9.762246.198348,12.753899,3.054485l-.052486.03967Z"/>
          <path d="M210.340589,232.61675l-.262422-1.983431c0,.674367.157449,1.348734.262422,1.983431"/>
          <path class="cls-4" d="M302.662022,230.514319h-.57734c-12.858872.674359-20.679162,2.618128-28.342002,4.48255-5.196031,1.269395-9.814722,2.618128-16.165433,3.530505-23.30342,6.188306-47.236647-5.950293-47.236647-5.950293-.367405-.158671-.57734-.23801-.629837-.277679,0,0-.052476,0-.104963-.03967-.472367-.19834-46.76429-19.834309-69.647829-29.989472-3.411534-1.507404-7.505382-1.547074-10.969402-.119009-3.568993,1.467742-5.773371,4.165209-5.93082,7.180025,0,.753698-.104973,1.507404-.157459,2.340449-.57733,6.58499-1.417102,16.264127,14.590882,22.968125-.104973,1.745421.209935,3.847857,1.417102,6.148636,2.676735,5.236256,8.869987,9.560136,18.422288,12.892301,3.149112,3.808187,12.491477,13.487328,28.341997,18.009552,1.049708.317349,2.781718.674367,3.883907.912378.419881.079337.787276.198342,1.207157.317349,3.04414.872709,4.618696,1.229727,8.660052,2.221442,9.499824,2.340448,19.367032,4.760234,38.786541,4.760234h.104973c11.704192,0,23.250934-2.419786,33.275602-6.981677,10.811953-4.91891,18.789692-10.670858,18.789692-10.670858,10.86444-8.251072,18.789692-17.136845,22.568631-21.698735.314918-.357018.524844-.753702.629816-1.150386.682313-2.142109,1.679524-8.687429-10.916906-8.925439v.03967ZM266.447244,265.145018c-5.458463,2.737135-11.809164,4.32388-18.317325,4.680896-2.991653.158674-6.245739.277681-9.919705.277681-17.320104,0-25.77022-2.062768-34.74518-4.28421-3.25408-.793373-6.770587-1.824757-10.444549-2.538791-.262427-.119007-.57734-.198344-.892248-.277681-10.12964-2.419786-17.162655-7.894056-21.046556-11.622904,5.196031,1.15039,11.389283,2.340445,16.900228,3.014812.682308.079339.892248-.634697.262427-.833037-6.403198-1.666082-10.339586-2.221444-22.831053-7.854388-.104973-.039666-.209946-.119005-.367395-.158674,0,0-.052486,0-.104973-.03967,0,0-.367395-.158671-.57734-.19834-14.643359-4.680898-14.170991-9.758484-13.698624-11.186553,5.196031,1.547077,18.632233,5.27593,28.919333,6.505655.629816.079339.892248-.595028.314908-.793375-6.035793-1.904092-17.057682-5.513935-31.071224-11.860916-.472367-.23801-.944735-.43635-1.469588-.595028-12.386494-3.927192-12.0191-8.092402-11.389283-14.955071v-.396688c23.355907,10.313842,65.501501,28.204389,67.181025,28.918426,1.417102.634697,19.419514,8.409746,35.322525,8.409746.524854,0,3.568993.277679,4.041361.198344,18.737206-.079339,25.875193-2.776806,35.217548-5.077586,5.93083-1.467735,11.651705-2.856138,19.944372-3.649513-6.66562,7.180021-17.844967,17.652538-31.281169,24.356534l.052486-.03967Z"/>
          <path class="cls-1" d="M345.489904,150.859736c-16.007974-12.812962-36.897072-21.460721-60.305465-24.713547-29.129278-4.085878-58.678427.674359-83.084031,13.36832-24.458091,12.693961-40.885956,31.814233-46.291923,53.869989-.944735,3.847846,1.417102,7.735376,5.93083,9.679137,4.77615,2.06277,9.762226,4.204879,14.695845,6.34698,7.662831,3.292495,17.162645-.436357,18.212352-7.061017.314908-1.824753.734789-3.689183,1.259643-5.513935,3.778929-12.733622,13.75112-24.03918,27.764662-31.655555,5.510939-2.975146,11.44176-5.315595,17.635012-6.981685.104973,0,.209946-.079324.314908-.119001,5.878344-1.943754,12.281532-3.451165,16.322893-4.32388l6.140766-1.388396,2.4668-.555358,8.030235-1.824768c7.82029-1.785076,16.21791,1.110732,19.524481,6.704006,0,0,.629816,1.110716,1.259653,2.221433.682293,1.150394,2.30934,1.824768,3.988864,1.626413l44.507426-5.910615c2.309361-.317356,3.254095-2.45945,1.627048-3.72886v-.039662Z"/>
        </g>
        <g>
          <path class="cls-1" d="M493.222625,292.612887c-10.357768,0-19.393827-1.737699-27.111094-5.221917-7.714349-3.484218-13.698513-8.357713-17.943739-14.620485-4.248144-6.262772-6.369298-13.57963-6.369298-21.959395,0-8.454742,2.199932-15.925964,6.602713-22.426898,4.402781-6.496523,10.74582-11.583923,19.032034-15.264404,8.286215-3.678276,18.177154-5.519619,29.672818-5.519619,12.948669,0,23.694489,2.348539,32.237459,7.045618,8.545888,4.697079,14.060306,11.195807,16.54617,19.491775h-25.944021c-1.555124-3.28575-4.271485-5.830552-8.157837-7.632202-3.883434-1.799444-8.828903-2.699166-14.836409-2.699166-6.836127,0-12.583959,1.115832-17.243496,3.34529-4.662455,2.231664-8.184096,5.36305-10.564924,9.391952-2.383746,4.035518-3.574159,8.789933-3.574159,14.267653,0,5.636495,1.190414,10.412961,3.574159,14.324988,2.380828,3.916438,5.849951,6.871407,10.407369,8.86932,4.557418,1.993502,9.943457,2.990253,16.158118,2.990253,8.907681,0,15.66503-1.759751,20.274967-5.283662,4.607019-3.519501,7.431334-7.943135,8.467111-13.266491h-25.322555v-13.151821h48.626075v47.222687h-21.439121l-1.864398-10.823634c-2.173672,2.350745-4.738314,4.348657-7.691008,5.989327-2.949776,1.64508-6.369298,2.879993-10.252732,3.700328s-8.312474,1.230502-13.284202,1.230502Z"/>
          <path class="cls-1" d="M560.959511,292.516364v-60.491384h20.663018l2.17659,10.803281c2.068636-2.505109,4.5049-4.657385,7.300038-6.46124,2.798056-1.799444,6.033765-3.206363,9.710043-4.225166,3.676278-1.016598,7.638489-1.525999,11.886633-1.525999v18.669235h-7.769785c-3.10733,0-5.928728.255803-8.467111.763-2.538383.511607-4.712055,1.349583-6.523935,2.527161-1.814798,1.173167-3.212367,2.756502-4.195626,4.754414-.986176,1.997912-1.476347,4.480969-1.476347,7.457991v27.728707h-23.30352Z"/>
          <path class="cls-1" d="M692.783265,244.998249c-3.367004-4.419223-8.000282-7.925494-13.905668-10.507784-5.902469-2.582291-12.791114-3.874539-20.663018-3.874539-8.079059,0-15.171942,1.371635-21.284484,4.110495-6.112542,2.73886-10.874198,6.496523-14.290802,11.272989-3.419522,4.776466-5.129284,10.214493-5.129284,16.31849,0,5.954044,1.733103,11.215654,5.205143,15.793652,3.469123,4.582408,8.259955,8.146014,14.372497,10.686406,6.109624,2.544802,13.205425,3.814998,21.284484,3.814998,6.109624,0,11.702819-.87767,16.776667-2.641831,5.073848-1.759751,9.37451-4.145779,12.896151-7.162494,3.518724-3.012305,6.004588-6.399494,7.457593-10.157157h-23.770349c-1.242932,1.64508-2.978952,2.994663-5.205143,4.05316-2.229108,1.058497-5.047588,1.583335-8.467111,1.583335-3.626678,0-6.75735-.586584-9.397851-1.759751-2.643419-1.173167-4.662455-2.818247-6.060024-4.93083-1.10106-1.664376-1.641196-3.580971-1.874975-5.636495h56.639851c.207155-1.018803.335533-2.015554.388052-2.994663.049601-.979109.078777-1.85678.078777-2.641831,0-5.790859-1.68642-10.902515-5.050506-15.326149ZM641.157814,255.7464c.400816-1.435862.974141-2.737206,1.753526-3.876744,1.604725-2.350745,3.755056-4.110495,6.448075-5.283662s5.695314-1.759751,9.012717-1.759751c4.350263,0,8.000282.996751,10.952975,2.990253,2.949776,1.997912,4.528241,4.639744,4.738314,7.929904h-32.905608Z"/>
          <path class="cls-1" d="M782.271464,244.998249c-3.367004-4.419223-8.000282-7.925494-13.905668-10.507784-5.902469-2.582291-12.791114-3.874539-20.663018-3.874539-8.079059,0-15.171942,1.371635-21.284484,4.110495-6.112542,2.73886-10.874198,6.496523-14.290802,11.272989-3.419522,4.776466-5.129284,10.214493-5.129284,16.31849,0,5.954044,1.733103,11.215654,5.205143,15.793652,3.469123,4.582408,8.259955,8.146014,14.372497,10.686406,6.109624,2.544802,13.205425,3.814998,21.284484,3.814998,6.109624,0,11.702819-.87767,16.776667-2.641831,5.073848-1.759751,9.37451-4.145779,12.896151-7.162494,3.518724-3.012305,6.004588-6.399494,7.451758-10.157157h-23.764513c-1.242932,1.64508-2.978952,2.994663-5.205143,4.05316-2.229108,1.058497-5.047588,1.583335-8.467111,1.583335-3.626678,0-6.75735-.586584-9.397851-1.759751-2.643419-1.173167-4.662455-2.818247-6.060024-4.93083-1.10106-1.664376-1.641196-3.580971-1.874975-5.636495h56.636933c.210073-1.018803.338451-2.015554.385134-2.994663.058354-.979109.081695-1.85678.081695-2.641831,0-5.790859-1.680584-10.902515-5.047588-15.326149ZM730.646013,255.7464c.400816-1.435862.974141-2.737206,1.753526-3.876744,1.604725-2.350745,3.755056-4.110495,6.448075-5.283662s5.695314-1.759751,9.012717-1.759751c4.350263,0,8.000282.996751,10.952975,2.990253,2.949776,1.997912,4.528241,4.639744,4.738314,7.929904h-32.905608Z"/>
          <path class="cls-1" d="M798.820552,292.516364v-60.491384h20.347909l1.867316,9.511033c2.380828-3.28575,5.747832-5.927581,10.095177-7.925494,4.35318-1.995707,9.634183-2.994663,15.848844-2.994663,6.523935,0,12.015011,1.056291,16.467393,3.17108,4.452381,2.112583,7.848562,5.14694,10.176872,9.098661,2.32831,3.956131,3.495382,8.789933,3.495382,14.501404v35.129363h-23.148882v-33.484283c0-4.304553-1.219591-7.652049-3.652937-10.038076-2.433346-2.390438-6.290521-3.581247-11.571524-3.581247-3.110248,0-5.928728.568942-8.467111,1.702415s-4.534077,2.756502-5.981246,4.873495c-1.453005,2.112583-2.17659,4.657385-2.17659,7.629997v32.897699h-23.300602Z"/>
          <polygon class="cls-1" points="985.563818 232.025049 973.143978 272.805562 958.686139 232.025049 933.051392 232.025049 918.579329 272.831197 906.016158 232.025049 883.02483 232.025049 906.173713 292.516364 930.250418 292.516364 945.855271 249.221761 961.323723 292.516364 985.563818 292.516364 1008.555145 232.025049 985.563818 232.025049"/>
          <path class="cls-1" d="M1037.609415,292.516364c-6.523935,0-11.939151-.780641-16.233978-2.346334-4.300662-1.565693-7.457593-3.700328-9.476628-6.399494-2.019035-2.699166-3.034388-5.69383-3.034388-8.98399,0-3.519501,1.167072-6.633246,3.495382-9.332412,2.334145-2.703577,5.987082-4.855853,10.952975-6.46124,4.971729-1.600976,11.238908-2.403669,18.801538-2.403669h18.953257c0-2.663883-.443488-4.855853-1.318792-6.57591-.88114-1.724467-2.304968-3.012305-4.271485-3.876744-1.972352-.860029-4.662455-1.292248-8.081977-1.292248-3.62376,0-6.68149.5513-9.167354,1.64508-2.485864,1.09819-4.038071,2.818247-4.656619,5.164582h-22.372779c.513512-4.225166,2.351651-7.903442,5.514417-11.034827,3.156931-3.131386,7.381733-5.596801,12.662736-7.39845,5.281003-1.799444,11.338109-2.701372,18.177154-2.701372,7.457593,0,13.92901.921774,19.420086,2.758707,5.485241,1.841343,9.762561,4.522868,12.814456,8.042369,3.05773,3.523912,4.586595,7.907852,4.586595,13.151821v38.044133h-19.420086l-2.800974-9.980741c-1.137896,1.490716-2.485864,2.840299-4.038071,4.05316s-3.367004,2.271357-5.438558,3.17108-4.347345,1.583335-6.833209,2.055248c-2.485864.467503-5.23432.701254-8.233696.701254ZM1043.357247,279.130792c2.485864,0,4.662455-.308728,6.523935-.939416,1.867316-.621867,3.472041-1.486306,4.820009-2.580086,1.342133-1.09819,2.456688-2.368386,3.337827-3.819409.88114-1.446612,1.528865-3.029947,1.943176-4.754414v-.119081h-15.072741c-2.590901,0-4.738314.255803-6.448075.76741-1.709761.507196-2.976035,1.230502-3.804656,2.169918s-1.242932,2.037606-1.242932,3.29016c0,1.331942.437652,2.443363,1.318792,3.343085.88114.904133,2.071554,1.570103,3.577077,1.997912,1.499688.432219,3.180272.643919,5.047588.643919Z"/>
          <path class="cls-1" d="M1104.783827,317.037697l18.801538-32.407639h-4.662455l-31.540134-52.605078h25.325473l21.596676,36.048426,18.019599-36.048426h25.016198l-47.849971,85.012717h-24.706924Z"/>
        </g>
      </g>
      <line class="cls-3" x2="1300" y2="436.451947"/>
    </g>
  </g>
</svg>